<svg width="299" height="113" viewBox="0 0 299 113" fill="none" xmlns="http://www.w3.org/2000/svg">
<g filter="url(#filter0_d)">
<rect width="291" height="105" rx="10" fill="white"/>
<rect x="0.5" y="0.5" width="290" height="104" rx="9.5" stroke="#E6E7E8"/>
</g>
<path d="M67.5637 40.6255H66.7894V38.3009V30.0372C66.7894 27.3317 64.5882 25.1306 61.8828 25.1306H40.606L26.2516 21.0293C26.2475 21.0282 26.2432 21.0275 26.2391 21.0264C26.2349 21.0253 26.2309 21.0236 26.2266 21.0226C26.2179 21.0204 26.2094 21.0194 26.2008 21.0175C26.1875 21.0147 26.1741 21.0118 26.1608 21.0097C26.1487 21.0077 26.1369 21.0065 26.1248 21.005C26.1107 21.0034 26.0968 21.0019 26.0828 21.0011C26.0715 21.0005 26.0602 21.0004 26.0488 21.0002C26.0344 21 26.02 20.9999 26.0057 21.0005C25.995 21.0009 25.9844 21.0019 25.9739 21.0027C25.9591 21.004 25.9443 21.0053 25.9297 21.0075C25.9198 21.0089 25.91 21.0108 25.9002 21.0126C25.8851 21.0152 25.8702 21.0181 25.8555 21.0217C25.8463 21.024 25.8373 21.0266 25.8282 21.0292C25.8131 21.0335 25.7982 21.038 25.7834 21.0431C25.775 21.0461 25.7667 21.0493 25.7584 21.0526C25.7434 21.0584 25.7285 21.0645 25.714 21.0712C25.7062 21.0748 25.6987 21.0788 25.691 21.0826C25.6765 21.0899 25.6621 21.0974 25.6481 21.1057C25.6407 21.11 25.6337 21.1145 25.6265 21.1191C25.6126 21.1277 25.599 21.1366 25.5858 21.1462C25.5788 21.1512 25.5721 21.1566 25.5653 21.1618C25.5526 21.1716 25.54 21.1817 25.5279 21.1923C25.5211 21.1983 25.5146 21.2046 25.508 21.2108C25.4966 21.2215 25.4854 21.2323 25.4746 21.2436C25.4679 21.2508 25.4616 21.2582 25.4551 21.2656C25.4453 21.2769 25.4356 21.2883 25.4264 21.3001C25.4198 21.3087 25.4136 21.3175 25.4073 21.3263C25.3991 21.3377 25.3911 21.3493 25.3836 21.3612C25.3772 21.3713 25.3713 21.3818 25.3654 21.3923C25.3589 21.4037 25.3524 21.4153 25.3465 21.4272C25.3407 21.4388 25.3356 21.4506 25.3303 21.4625C25.3252 21.4742 25.3201 21.4859 25.3155 21.4978C25.3108 21.5104 25.3067 21.5234 25.3024 21.5364C25.2997 21.5447 25.2964 21.5526 25.294 21.5611C25.2927 21.5653 25.2922 21.5694 25.2911 21.5736C25.2899 21.5778 25.2883 21.5818 25.2872 21.5861L24.4014 25.1304H21.9071C19.207 25.1304 17.0097 27.3226 17.0008 30.0207C17.0007 30.0263 17 30.0315 17 30.037V56.894C17 57.3217 17.3481 57.6687 17.7747 57.6687C18.2024 57.6687 18.5494 57.3217 18.5494 56.894V33.6103C19.4279 34.4363 20.609 34.9439 21.9071 34.9439H61.8828C61.8837 34.9439 61.8845 34.9438 61.8855 34.9438C63.7353 34.9452 65.2399 36.4507 65.2399 38.301V43.7245H56.7167C56.7162 43.7245 56.7158 43.7246 56.7153 43.7246C56.6929 43.7246 56.6706 43.7259 56.6484 43.7279C56.6237 43.7301 56.5993 43.7336 56.5753 43.738C56.5717 43.7386 56.5682 43.7389 56.5646 43.7397C56.5443 43.7437 56.5245 43.7491 56.5048 43.7546C56.5004 43.7559 56.496 43.7567 56.4918 43.7581C56.4742 43.7634 56.4572 43.7698 56.4401 43.7763C56.4336 43.7788 56.427 43.7809 56.4205 43.7836C56.4062 43.7895 56.3925 43.7964 56.3788 43.8031C56.3697 43.8074 56.3605 43.8115 56.3516 43.8161C56.3408 43.8218 56.3307 43.8283 56.3204 43.8345C56.3089 43.8413 56.2973 43.8479 56.2861 43.8554C56.2786 43.8603 56.2716 43.866 56.2644 43.8713C56.2512 43.8808 56.2379 43.8902 56.2253 43.9006C56.2198 43.9051 56.2147 43.9102 56.2095 43.9149C56.1959 43.9266 56.1824 43.9383 56.1696 43.9511C56.162 43.9587 56.1552 43.9669 56.1481 43.9748C56.1381 43.9856 56.1277 43.9963 56.1182 44.0078C56.1022 44.0273 56.0873 44.0476 56.0732 44.0686C56.0729 44.0689 56.0726 44.0693 56.0724 44.0697L51.9407 50.2676C51.9119 50.3107 51.8875 50.3565 51.8682 50.4041C51.8609 50.4219 51.855 50.44 51.8491 50.4579C51.8474 50.4634 51.8451 50.4687 51.8434 50.4742C51.8377 50.4933 51.8332 50.5126 51.829 50.5318C51.8278 50.5369 51.8264 50.5418 51.8254 50.5469C51.8219 50.5642 51.8197 50.5817 51.8175 50.5991C51.8166 50.6066 51.8151 50.614 51.8144 50.6216C51.813 50.6359 51.8127 50.6502 51.8121 50.6645C51.8116 50.6755 51.8107 50.6864 51.8107 50.6975C51.8107 50.7081 51.8116 50.7188 51.812 50.7294C51.8125 50.7441 51.813 50.7588 51.8144 50.7735C51.8151 50.7806 51.8165 50.7878 51.8174 50.7949C51.8197 50.8127 51.8219 50.8304 51.8255 50.8481C51.8264 50.8529 51.8278 50.8577 51.829 50.8626C51.8332 50.882 51.8378 50.9014 51.8435 50.9207C51.8452 50.9262 51.8475 50.9314 51.8492 50.937C51.8551 50.955 51.861 50.9731 51.8683 50.9908C51.8877 51.0384 51.9121 51.0842 51.941 51.1275L56.0726 57.3245C56.0728 57.3248 56.073 57.325 56.0732 57.3253C56.0898 57.35 56.108 57.3735 56.1272 57.3961C56.1335 57.4036 56.1402 57.4105 56.1468 57.4175C56.1599 57.4319 56.1735 57.4457 56.1877 57.459C56.196 57.4669 56.2043 57.4745 56.2128 57.4819C56.2278 57.4948 56.2434 57.5069 56.2594 57.5186C56.2667 57.5239 56.2736 57.5297 56.2809 57.5347C56.3042 57.5505 56.3282 57.565 56.3531 57.5782C56.3594 57.5816 56.3659 57.5843 56.3722 57.5874C56.3921 57.5974 56.4123 57.6066 56.4331 57.6147C56.4411 57.6179 56.4492 57.6208 56.4574 57.6237C56.4771 57.6307 56.4971 57.6369 56.5176 57.6424C56.526 57.6446 56.5342 57.6468 56.5427 57.6489C56.5637 57.6538 56.5849 57.6575 56.6065 57.6606C56.6144 57.6617 56.6221 57.6633 56.63 57.6642C56.6566 57.6672 56.6837 57.6688 56.7112 57.669C56.7133 57.669 56.7155 57.6695 56.7178 57.6695C56.7182 57.6695 56.7187 57.6694 56.7192 57.6694H65.2402V63.0932C65.2402 64.9445 63.7342 66.4506 61.8831 66.4506H21.9075C20.0564 66.4506 18.5504 64.9445 18.5504 63.0932C18.5504 63.0892 18.5499 63.0853 18.5498 63.0812V59.9933C18.5498 59.5667 18.2027 59.2186 17.775 59.2186C17.3484 59.2186 17.0003 59.5667 17.0003 59.9933V63.0932C17.0003 63.1013 17.0012 63.1091 17.0015 63.1171C17.0145 65.8117 19.21 68 21.9075 68H61.8831C64.5883 68 66.7892 65.7993 66.7897 63.0941C66.7897 63.0939 66.7897 63.0938 66.7897 63.0936V57.6694H67.564C68.8453 57.6694 69.8877 56.6269 69.8877 55.3456V42.9492C69.8874 41.668 68.8449 40.6255 67.5637 40.6255ZM26.5962 22.7392L40.2663 26.6451C40.2669 26.6453 40.2677 26.6454 40.2683 26.6456L49.4302 29.2633H24.9656L26.5962 22.7392ZM65.2398 34.7275C64.3615 33.9017 63.1806 33.3942 61.8828 33.3942C61.8814 33.3942 61.8802 33.3945 61.8788 33.3945H21.9071C20.0559 33.3945 18.5499 31.8884 18.5499 30.0372C18.5499 28.1861 20.0559 26.68 21.9071 26.68H24.0141L23.3685 29.2633H21.9073C21.4794 29.2633 21.1326 29.6102 21.1326 30.0381C21.1326 30.4659 21.4794 30.8128 21.9073 30.8128H23.9707C23.9718 30.8128 23.9729 30.813 23.974 30.813C23.9749 30.813 23.9757 30.8128 23.9764 30.8128H54.9592C54.9602 30.8128 54.9611 30.813 54.962 30.813C54.9629 30.813 54.9637 30.8128 54.9645 30.8128H60.8489C61.2767 30.8128 61.6236 30.4659 61.6236 30.0381C61.6236 29.6102 61.2767 29.2633 60.8489 29.2633H55.0702L46.0288 26.68H61.8827C63.7337 26.68 65.2398 28.1861 65.2398 30.0372V34.7275ZM68.338 55.3452C68.338 55.7721 67.9906 56.1195 67.5637 56.1195H57.1314L53.5161 50.6971L57.1314 45.2738H67.5637C67.5745 45.2738 67.585 45.2726 67.5958 45.2722C67.8557 45.2686 68.1052 45.2223 68.338 45.1398V55.3452ZM67.5637 43.7236C67.5583 43.7236 67.553 43.7243 67.5476 43.7244H66.7894V42.1749H67.5637C67.9906 42.1749 68.338 42.5223 68.338 42.9492C68.338 43.3762 67.9906 43.7236 67.5637 43.7236Z" fill="#D0AA2B"/>
<path d="M59.8161 47.8563C58.2497 47.8563 56.9755 49.1307 56.9755 50.6971C56.9755 52.2635 58.2497 53.5377 59.8161 53.5377C61.3825 53.5377 62.6568 52.2635 62.6568 50.6971C62.6568 49.1307 61.3825 47.8563 59.8161 47.8563ZM59.8161 51.9883C59.1041 51.9883 58.5249 51.4091 58.5249 50.6971C58.5249 49.9851 59.1041 49.4058 59.8161 49.4058C60.5281 49.4058 61.1073 49.9851 61.1073 50.6971C61.1073 51.4091 60.5281 51.9883 59.8161 51.9883Z" fill="#D0AA2B"/>
<path d="M98.62 39.448C99.592 38.926 100.24 37.972 100.24 36.676C100.24 34.678 98.62 33.4 95.596 33.4H89.692V46H95.956C99.196 46 100.888 44.74 100.888 42.58C100.888 40.942 99.97 39.88 98.62 39.448ZM95.344 35.236C96.964 35.236 97.882 35.812 97.882 36.982C97.882 38.134 96.964 38.71 95.344 38.71H92.032V35.236H95.344ZM95.812 44.164H92.032V40.528H95.812C97.576 40.528 98.53 41.086 98.53 42.346C98.53 43.606 97.576 44.164 95.812 44.164ZM109.892 36.388V41.248C109.892 43.174 108.83 44.146 107.264 44.146C105.842 44.146 105.014 43.318 105.014 41.572V36.388H102.764V41.878C102.764 44.776 104.438 46.126 106.904 46.126C108.146 46.126 109.28 45.658 110 44.776V46H112.142V36.388H109.892ZM117.725 46.126C120.425 46.126 122.081 44.956 122.081 43.156C122.081 39.394 116.141 41.122 116.141 39.178C116.141 38.548 116.789 38.098 118.157 38.098C119.075 38.098 119.993 38.278 120.911 38.818L121.775 37.108C120.911 36.586 119.453 36.28 118.175 36.28C115.583 36.28 113.945 37.468 113.945 39.286C113.945 43.12 119.885 41.392 119.885 43.228C119.885 43.894 119.291 44.29 117.869 44.29C116.663 44.29 115.367 43.894 114.521 43.336L113.657 45.046C114.521 45.658 116.123 46.126 117.725 46.126ZM124.819 34.804C125.665 34.804 126.259 34.192 126.259 33.4C126.259 32.662 125.647 32.104 124.819 32.104C123.991 32.104 123.379 32.698 123.379 33.454C123.379 34.21 123.991 34.804 124.819 34.804ZM123.685 46H125.935V36.388H123.685V46ZM134.009 36.28C132.605 36.28 131.435 36.748 130.697 37.63V36.388H128.555V46H130.805V41.14C130.805 39.214 131.885 38.242 133.487 38.242C134.927 38.242 135.773 39.07 135.773 40.78V46H138.023V40.492C138.023 37.594 136.313 36.28 134.009 36.28ZM149.668 41.248C149.668 38.242 147.616 36.28 144.808 36.28C141.946 36.28 139.84 38.332 139.84 41.194C139.84 44.056 141.928 46.126 145.15 46.126C146.806 46.126 148.156 45.586 149.02 44.56L147.814 43.174C147.13 43.876 146.284 44.218 145.204 44.218C143.53 44.218 142.36 43.318 142.09 41.914H149.632C149.65 41.698 149.668 41.428 149.668 41.248ZM144.808 38.08C146.284 38.08 147.346 39.034 147.526 40.42H142.072C142.288 39.016 143.35 38.08 144.808 38.08ZM154.466 46.126C157.166 46.126 158.822 44.956 158.822 43.156C158.822 39.394 152.882 41.122 152.882 39.178C152.882 38.548 153.53 38.098 154.898 38.098C155.816 38.098 156.734 38.278 157.652 38.818L158.516 37.108C157.652 36.586 156.194 36.28 154.916 36.28C152.324 36.28 150.686 37.468 150.686 39.286C150.686 43.12 156.626 41.392 156.626 43.228C156.626 43.894 156.032 44.29 154.61 44.29C153.404 44.29 152.108 43.894 151.262 43.336L150.398 45.046C151.262 45.658 152.864 46.126 154.466 46.126ZM163.396 46.126C166.096 46.126 167.752 44.956 167.752 43.156C167.752 39.394 161.812 41.122 161.812 39.178C161.812 38.548 162.46 38.098 163.828 38.098C164.746 38.098 165.664 38.278 166.582 38.818L167.446 37.108C166.582 36.586 165.124 36.28 163.846 36.28C161.254 36.28 159.616 37.468 159.616 39.286C159.616 43.12 165.556 41.392 165.556 43.228C165.556 43.894 164.962 44.29 163.54 44.29C162.334 44.29 161.038 43.894 160.192 43.336L159.328 45.046C160.192 45.658 161.794 46.126 163.396 46.126Z" fill="black"/>
<path d="M93.274 56.7V59.301H90.016V56.7H88.846V63H90.016V60.3H93.274V63H94.444V56.7H93.274ZM97.5268 58.14C96.7528 58.14 96.0058 58.338 95.4928 58.734L95.9338 59.553C96.2938 59.256 96.8518 59.076 97.3918 59.076C98.1928 59.076 98.5888 59.463 98.5888 60.12V60.192H97.3468C95.8888 60.192 95.3488 60.822 95.3488 61.623C95.3488 62.46 96.0418 63.063 97.1398 63.063C97.8598 63.063 98.3818 62.829 98.6518 62.415V63H99.7138V60.183C99.7138 58.797 98.9128 58.14 97.5268 58.14ZM97.3738 62.244C96.7978 62.244 96.4558 61.983 96.4558 61.578C96.4558 61.227 96.6628 60.939 97.4278 60.939H98.5888V61.497C98.3998 61.992 97.9228 62.244 97.3738 62.244ZM102.309 63.063C103.659 63.063 104.487 62.478 104.487 61.578C104.487 59.697 101.517 60.561 101.517 59.589C101.517 59.274 101.841 59.049 102.525 59.049C102.984 59.049 103.443 59.139 103.902 59.409L104.334 58.554C103.902 58.293 103.173 58.14 102.534 58.14C101.238 58.14 100.419 58.734 100.419 59.643C100.419 61.56 103.389 60.696 103.389 61.614C103.389 61.947 103.092 62.145 102.381 62.145C101.778 62.145 101.13 61.947 100.707 61.668L100.275 62.523C100.707 62.829 101.508 63.063 102.309 63.063ZM113.775 58.194L112.47 61.758L111.174 58.194H110.229L108.906 61.74L107.637 58.194H106.575L108.339 63H109.419L110.679 59.688L111.921 63H113.001L114.774 58.194H113.775ZM116.9 58.14C116.126 58.14 115.379 58.338 114.866 58.734L115.307 59.553C115.667 59.256 116.225 59.076 116.765 59.076C117.566 59.076 117.962 59.463 117.962 60.12V60.192H116.72C115.262 60.192 114.722 60.822 114.722 61.623C114.722 62.46 115.415 63.063 116.513 63.063C117.233 63.063 117.755 62.829 118.025 62.415V63H119.087V60.183C119.087 58.797 118.286 58.14 116.9 58.14ZM116.747 62.244C116.171 62.244 115.829 61.983 115.829 61.578C115.829 61.227 116.036 60.939 116.801 60.939H117.962V61.497C117.773 61.992 117.296 62.244 116.747 62.244ZM120.198 63H121.323V56.322H120.198V63ZM122.466 63H123.591V56.322H122.466V63ZM129.252 60.624C129.252 59.121 128.226 58.14 126.822 58.14C125.391 58.14 124.338 59.166 124.338 60.597C124.338 62.028 125.382 63.063 126.993 63.063C127.821 63.063 128.496 62.793 128.928 62.28L128.325 61.587C127.983 61.938 127.56 62.109 127.02 62.109C126.183 62.109 125.598 61.659 125.463 60.957H129.234C129.243 60.849 129.252 60.714 129.252 60.624ZM126.822 59.04C127.56 59.04 128.091 59.517 128.181 60.21H125.454C125.562 59.508 126.093 59.04 126.822 59.04ZM132.574 61.938C132.403 62.073 132.178 62.136 131.944 62.136C131.512 62.136 131.278 61.884 131.278 61.416V59.13H132.565V58.23H131.278V57.132H130.153V58.23H129.361V59.13H130.153V61.443C130.153 62.505 130.756 63.063 131.809 63.063C132.214 63.063 132.619 62.955 132.889 62.739L132.574 61.938ZM137.12 63.063C138.47 63.063 139.298 62.478 139.298 61.578C139.298 59.697 136.328 60.561 136.328 59.589C136.328 59.274 136.652 59.049 137.336 59.049C137.795 59.049 138.254 59.139 138.713 59.409L139.145 58.554C138.713 58.293 137.984 58.14 137.345 58.14C136.049 58.14 135.23 58.734 135.23 59.643C135.23 61.56 138.2 60.696 138.2 61.614C138.2 61.947 137.903 62.145 137.192 62.145C136.589 62.145 135.941 61.947 135.518 61.668L135.086 62.523C135.518 62.829 136.319 63.063 137.12 63.063ZM143.265 58.194L141.744 61.749L140.232 58.194H139.062L141.159 63.018L141.078 63.207C140.862 63.684 140.628 63.873 140.232 63.873C139.926 63.873 139.62 63.747 139.404 63.54L138.954 64.368C139.26 64.647 139.764 64.809 140.241 64.809C141.042 64.809 141.654 64.476 142.095 63.387L144.345 58.194H143.265ZM146.139 63.063C147.489 63.063 148.317 62.478 148.317 61.578C148.317 59.697 145.347 60.561 145.347 59.589C145.347 59.274 145.671 59.049 146.355 59.049C146.814 59.049 147.273 59.139 147.732 59.409L148.164 58.554C147.732 58.293 147.003 58.14 146.364 58.14C145.068 58.14 144.249 58.734 144.249 59.643C144.249 61.56 147.219 60.696 147.219 61.614C147.219 61.947 146.922 62.145 146.211 62.145C145.608 62.145 144.96 61.947 144.537 61.668L144.105 62.523C144.537 62.829 145.338 63.063 146.139 63.063ZM151.526 61.938C151.355 62.073 151.13 62.136 150.896 62.136C150.464 62.136 150.23 61.884 150.23 61.416V59.13H151.517V58.23H150.23V57.132H149.105V58.23H148.313V59.13H149.105V61.443C149.105 62.505 149.708 63.063 150.761 63.063C151.166 63.063 151.571 62.955 151.841 62.739L151.526 61.938ZM156.793 60.624C156.793 59.121 155.767 58.14 154.363 58.14C152.932 58.14 151.879 59.166 151.879 60.597C151.879 62.028 152.923 63.063 154.534 63.063C155.362 63.063 156.037 62.793 156.469 62.28L155.866 61.587C155.524 61.938 155.101 62.109 154.561 62.109C153.724 62.109 153.139 61.659 153.004 60.957H156.775C156.784 60.849 156.793 60.714 156.793 60.624ZM154.363 59.04C155.101 59.04 155.632 59.517 155.722 60.21H152.995C153.103 59.508 153.634 59.04 154.363 59.04ZM163.606 58.14C162.841 58.14 162.193 58.446 161.806 58.941C161.473 58.401 160.888 58.14 160.186 58.14C159.529 58.14 158.971 58.374 158.611 58.806V58.194H157.54V63H158.665V60.561C158.665 59.607 159.169 59.121 159.916 59.121C160.6 59.121 160.996 59.535 160.996 60.39V63H162.121V60.561C162.121 59.607 162.634 59.121 163.372 59.121C164.056 59.121 164.452 59.535 164.452 60.39V63H165.577V60.246C165.577 58.797 164.767 58.14 163.606 58.14ZM175.334 58.194L174.029 61.758L172.733 58.194H171.788L170.465 61.74L169.196 58.194H168.134L169.898 63H170.978L172.238 59.688L173.48 63H174.56L176.333 58.194H175.334ZM177.34 57.402C177.763 57.402 178.06 57.096 178.06 56.7C178.06 56.331 177.754 56.052 177.34 56.052C176.926 56.052 176.62 56.349 176.62 56.727C176.62 57.105 176.926 57.402 177.34 57.402ZM176.773 63H177.898V58.194H176.773V63ZM181.615 61.938C181.444 62.073 181.219 62.136 180.985 62.136C180.553 62.136 180.319 61.884 180.319 61.416V59.13H181.606V58.23H180.319V57.132H179.194V58.23H178.402V59.13H179.194V61.443C179.194 62.505 179.797 63.063 180.85 63.063C181.255 63.063 181.66 62.955 181.93 62.739L181.615 61.938ZM185.249 58.14C184.583 58.14 184.016 58.356 183.647 58.752V56.322H182.522V63H183.647V60.57C183.647 59.607 184.187 59.121 184.988 59.121C185.708 59.121 186.131 59.535 186.131 60.39V63H187.256V60.246C187.256 58.797 186.401 58.14 185.249 58.14ZM193.168 58.14C192.556 58.14 192.016 58.347 191.629 58.779V56.322H190.504V63H191.575V62.379C191.953 62.838 192.511 63.063 193.168 63.063C194.572 63.063 195.607 62.091 195.607 60.597C195.607 59.103 194.572 58.14 193.168 58.14ZM193.042 62.1C192.232 62.1 191.611 61.515 191.611 60.597C191.611 59.679 192.232 59.094 193.042 59.094C193.852 59.094 194.464 59.679 194.464 60.597C194.464 61.515 193.852 62.1 193.042 62.1ZM198.115 58.14C197.341 58.14 196.594 58.338 196.081 58.734L196.522 59.553C196.882 59.256 197.44 59.076 197.98 59.076C198.781 59.076 199.177 59.463 199.177 60.12V60.192H197.935C196.477 60.192 195.937 60.822 195.937 61.623C195.937 62.46 196.63 63.063 197.728 63.063C198.448 63.063 198.97 62.829 199.24 62.415V63H200.302V60.183C200.302 58.797 199.501 58.14 198.115 58.14ZM197.962 62.244C197.386 62.244 197.044 61.983 197.044 61.578C197.044 61.227 197.251 60.939 198.016 60.939H199.177V61.497C198.988 61.992 198.511 62.244 197.962 62.244ZM201.412 63H202.537V56.322H201.412V63ZM205.517 58.14C204.743 58.14 203.996 58.338 203.483 58.734L203.924 59.553C204.284 59.256 204.842 59.076 205.382 59.076C206.183 59.076 206.579 59.463 206.579 60.12V60.192H205.337C203.879 60.192 203.339 60.822 203.339 61.623C203.339 62.46 204.032 63.063 205.13 63.063C205.85 63.063 206.372 62.829 206.642 62.415V63H207.704V60.183C207.704 58.797 206.903 58.14 205.517 58.14ZM205.364 62.244C204.788 62.244 204.446 61.983 204.446 61.578C204.446 61.227 204.653 60.939 205.418 60.939H206.579V61.497C206.39 61.992 205.913 62.244 205.364 62.244ZM211.541 58.14C210.839 58.14 210.254 58.374 209.885 58.815V58.194H208.814V63H209.939V60.57C209.939 59.607 210.479 59.121 211.28 59.121C212 59.121 212.423 59.535 212.423 60.39V63H213.548V60.246C213.548 58.797 212.693 58.14 211.541 58.14ZM216.891 63.063C217.827 63.063 218.574 62.658 218.943 61.938L218.079 61.434C217.791 61.893 217.359 62.1 216.882 62.1C216.054 62.1 215.424 61.533 215.424 60.597C215.424 59.67 216.054 59.094 216.882 59.094C217.359 59.094 217.791 59.301 218.079 59.76L218.943 59.256C218.574 58.527 217.827 58.14 216.891 58.14C215.37 58.14 214.29 59.157 214.29 60.597C214.29 62.037 215.37 63.063 216.891 63.063ZM224.03 60.624C224.03 59.121 223.004 58.14 221.6 58.14C220.169 58.14 219.116 59.166 219.116 60.597C219.116 62.028 220.16 63.063 221.771 63.063C222.599 63.063 223.274 62.793 223.706 62.28L223.103 61.587C222.761 61.938 222.338 62.109 221.798 62.109C220.961 62.109 220.376 61.659 220.241 60.957H224.012C224.021 60.849 224.03 60.714 224.03 60.624ZM221.6 59.04C222.338 59.04 222.869 59.517 222.959 60.21H220.232C220.34 59.508 220.871 59.04 221.6 59.04ZM230.513 56.322V58.788C230.135 58.347 229.586 58.14 228.965 58.14C227.57 58.14 226.535 59.103 226.535 60.597C226.535 62.091 227.57 63.063 228.965 63.063C229.622 63.063 230.18 62.838 230.558 62.379V63H231.638V56.322H230.513ZM229.1 62.1C228.29 62.1 227.669 61.515 227.669 60.597C227.669 59.679 228.29 59.094 229.1 59.094C229.91 59.094 230.531 59.679 230.531 60.597C230.531 61.515 229.91 62.1 229.1 62.1ZM236.304 58.194V60.624C236.304 61.587 235.773 62.073 234.99 62.073C234.279 62.073 233.865 61.659 233.865 60.786V58.194H232.74V60.939C232.74 62.388 233.577 63.063 234.81 63.063C235.431 63.063 235.998 62.829 236.358 62.388V63H237.429V58.194H236.304ZM243.087 60.624C243.087 59.121 242.061 58.14 240.657 58.14C239.226 58.14 238.173 59.166 238.173 60.597C238.173 62.028 239.217 63.063 240.828 63.063C241.656 63.063 242.331 62.793 242.763 62.28L242.16 61.587C241.818 61.938 241.395 62.109 240.855 62.109C240.018 62.109 239.433 61.659 239.298 60.957H243.069C243.078 60.849 243.087 60.714 243.087 60.624ZM240.657 59.04C241.395 59.04 241.926 59.517 242.016 60.21H239.289C239.397 59.508 239.928 59.04 240.657 59.04Z" fill="#979797"/>
<defs>
<filter id="filter0_d" x="0" y="0" width="299" height="113" filterUnits="userSpaceOnUse" color-interpolation-filters="sRGB">
<feFlood flood-opacity="0" result="BackgroundImageFix"/>
<feColorMatrix in="SourceAlpha" type="matrix" values="0 0 0 0 0 0 0 0 0 0 0 0 0 0 0 0 0 0 127 0"/>
<feOffset dx="4" dy="4"/>
<feGaussianBlur stdDeviation="2"/>
<feColorMatrix type="matrix" values="0 0 0 0 0 0 0 0 0 0 0 0 0 0 0 0 0 0 0.05 0"/>
<feBlend mode="normal" in2="BackgroundImageFix" result="effect1_dropShadow"/>
<feBlend mode="normal" in="SourceGraphic" in2="effect1_dropShadow" result="shape"/>
</filter>
</defs>
</svg>
