<svg id="Layer_1" enable-background="new 0 0 512 512" height="512" viewBox="0 0 512 512" width="512" xmlns="http://www.w3.org/2000/svg"><g><g><path d="m197.84 249.289v226.259c0 15.99-12.97 28.95-28.95 28.95h-132.26c-15.99 0-28.95-12.96-28.95-28.95v-226.259c0-15.98 12.96-28.94 28.95-28.94h132.26c15.98 0 28.95 12.96 28.95 28.94z" fill="#56788b"/><path d="m197.84 249.289v226.259c0 15.99-12.97 28.95-28.95 28.95h-132.26c-15.99 0-28.95-12.96-28.95-28.95v-31.08c0 15.99 12.96 28.95 28.95 28.95h102.18c15.99 0 28.95-12.96 28.95-28.95v-195.179c0-15.98-12.96-28.94-28.95-28.94h30.08c15.98 0 28.95 12.96 28.95 28.94z" fill="#415e6f"/><path d="m167.76 251.419v221.999h-130v-221.999h28.28c0 8.29 6.71 15 15 15h43c8.28 0 15-6.71 15-15z" fill="#fdeda5"/><path d="m167.76 251.419v221.999h-130v-23h90.52c8.55 0 15.48-6.93 15.48-15.47v-183.529z" fill="#fbdf63"/></g><g><path d="m504.5 122.947c0 53.08-35.82 97.79-84.609 111.279l-30.83 30.83-30.83-30.83c-48.79-13.49-84.619-58.2-84.619-111.279 0-58.67 43.77-107.129 100.449-114.479 4.91-.64 9.91-.97 15-.97 63.759 0 115.439 51.69 115.439 115.449z" fill="#ed2061"/><path d="m504.5 122.947c0 53.08-35.82 97.79-84.609 111.279l-30.45 30.45.45-32.45c48.79-13.49 84.609-56.2 84.609-109.279 0-58.67-43.77-107.129-100.439-114.479 4.91-.64 9.91-.97 15-.97 63.759 0 115.439 51.69 115.439 115.449z" fill="#c71e54"/><path d="m452.03 122.947c0 34.77-28.2 62.96-62.97 62.96-5.17 0-10.19-.62-15-1.8-27.54-6.73-47.97-31.56-47.97-61.16 0-29.61 20.43-54.44 47.97-61.17 4.81-1.18 9.83-1.8 15-1.8 34.771.001 62.97 28.19 62.97 62.97z" fill="#eef0f5"/><path d="m452.03 122.947c0 34.77-28.2 62.96-62.97 62.96-5.17 0-10.19-.62-15-1.8 27.53-6.73 47.97-31.56 47.97-61.16 0-29.61-20.44-54.44-47.97-61.17 4.81-1.18 9.83-1.8 15-1.8 34.771.001 62.97 28.19 62.97 62.97z" fill="#dae1ea"/></g></g><g><path d="m168.862 212.841h-132.384c-20.114 0-36.478 16.351-36.478 36.45v226.259c0 20.098 16.364 36.45 36.478 36.45h132.384c20.114 0 36.478-16.352 36.478-36.45v-226.259c0-20.099-16.364-36.45-36.478-36.45zm21.478 262.709c0 11.828-9.635 21.45-21.478 21.45h-132.384c-11.843 0-21.478-9.622-21.478-21.45v-226.259c0-11.828 9.635-21.45 21.478-21.45h132.384c11.843 0 21.478 9.622 21.478 21.45z"/><path d="m167.733 243.919h-28.747c-4.142 0-7.5 3.357-7.5 7.5 0 4.136-3.371 7.5-7.515 7.5h-43.042c-4.144 0-7.514-3.364-7.514-7.5 0-4.143-3.358-7.5-7.5-7.5h-28.308c-4.142 0-7.5 3.357-7.5 7.5v43.49c0 4.143 3.358 7.5 7.5 7.5s7.5-3.357 7.5-7.5v-35.99h14.594c3.097 8.73 11.444 15 21.228 15h43.042c9.785 0 18.131-6.27 21.229-15h15.033v207.003h-115.126v-135.748c0-4.143-3.358-7.5-7.5-7.5s-7.5 3.357-7.5 7.5v143.248c0 4.143 3.358 7.5 7.5 7.5h130.126c4.142 0 7.5-3.357 7.5-7.5v-222.003c0-4.143-3.358-7.5-7.5-7.5z"/><path d="m122.243 450.318c4.142 0 7.5-3.357 7.5-7.5s-3.358-7.5-7.5-7.5h-39.146c-4.142 0-7.5 3.357-7.5 7.5s3.358 7.5 7.5 7.5z"/><path d="m388.942 193.416c38.89 0 70.53-31.612 70.53-70.469s-31.64-70.47-70.53-70.47-70.529 31.612-70.529 70.47c0 38.857 31.639 70.469 70.529 70.469zm0-125.938c30.619 0 55.53 24.884 55.53 55.47s-24.911 55.469-55.53 55.469-55.529-24.883-55.529-55.469 24.91-55.47 55.529-55.47z"/><path d="m388.942 0c-67.854 0-123.058 55.154-123.058 122.947 0 31.982 12.229 62.275 34.434 85.299 1.472 1.526 3.434 2.294 5.399 2.294 1.874 0 3.75-.698 5.206-2.102 2.981-2.875 3.067-7.623.192-10.604-19.495-20.214-30.231-46.81-30.231-74.887 0-59.522 48.474-107.947 108.058-107.947s108.058 48.425 108.058 107.947c0 48.39-32.566 91.179-79.196 104.056-1.249.345-2.387 1.008-3.304 1.924l-25.558 25.533-25.558-25.533c-.917-.916-2.055-1.579-3.304-1.924-7.768-2.146-15.31-5.178-22.417-9.013-3.643-1.966-8.195-.607-10.162 3.039s-.607 8.194 3.039 10.162c7.508 4.052 15.444 7.317 23.618 9.721l29.484 29.455c1.464 1.463 3.382 2.194 5.301 2.194s3.836-.731 5.301-2.194l29.484-29.455c52.076-15.303 88.272-63.521 88.272-117.965 0-67.793-55.204-122.947-123.058-122.947z"/><path d="m388.942 397.442c-4.142 0-7.5 3.357-7.5 7.5v22.689c0 18.111-14.752 32.846-32.884 32.846h-115.68c-4.142 0-7.5 3.357-7.5 7.5s3.358 7.5 7.5 7.5h115.68c26.403 0 47.884-21.464 47.884-47.846v-22.689c0-4.142-3.358-7.5-7.5-7.5z"/><path d="m108.757 97.904c4.142 0 7.5-3.357 7.5-7.5 0-18.111 14.752-32.846 32.885-32.846h107.672c4.142 0 7.5-3.357 7.5-7.5s-3.358-7.5-7.5-7.5h-107.672c-26.404 0-47.885 21.464-47.885 47.846 0 4.143 3.358 7.5 7.5 7.5z"/><path d="m103.454 191.277c1.406 1.406 3.314 2.196 5.303 2.196s3.897-.79 5.303-2.196l19.072-19.072c2.929-2.93 2.929-7.678 0-10.607-2.929-2.928-7.678-2.928-10.606 0l-6.269 6.269v-42.381c0-4.143-3.358-7.5-7.5-7.5s-7.5 3.357-7.5 7.5v42.38l-6.269-6.269c-2.928-2.928-7.677-2.928-10.606 0-2.929 2.93-2.929 7.678 0 10.607z"/><path d="m394.245 294.759c-2.929-2.928-7.678-2.928-10.606 0l-19.072 19.072c-2.929 2.93-2.929 7.678 0 10.607 2.929 2.928 7.678 2.928 10.606 0l6.269-6.269v52.38c0 4.143 3.358 7.5 7.5 7.5s7.5-3.357 7.5-7.5v-52.38l6.269 6.269c1.464 1.464 3.384 2.196 5.303 2.196s3.839-.732 5.303-2.196c2.929-2.93 2.929-7.678 0-10.607z"/></g></svg>