<svg width="108" height="108" viewBox="0 0 108 108" fill="none" xmlns="http://www.w3.org/2000/svg">
<g filter="url(#filter0_d)">
<rect x="4" width="100" height="100" rx="8" fill="white"/>
</g>
<path d="M54.4961 76C72.9955 76 87.9922 61.0033 87.9922 42.5039C87.9922 24.0045 72.9955 9.00781 54.4961 9.00781C35.9967 9.00781 21 24.0045 21 42.5039C21 61.0033 35.9967 76 54.4961 76Z" fill="#445EA0"/>
<path d="M33.266 63.6466C32.89 63.6466 32.5824 63.3389 32.5824 62.963V15.7407H28.0593C27.6833 15.7407 27.3757 16.0483 27.3757 16.4243V62.163C29.2031 64.6796 31.3704 66.9333 33.813 68.8534H71.6018C71.9778 68.8534 72.2854 68.5457 72.2854 68.1698V63.6467L33.266 63.6466Z" fill="#FFAF10"/>
<path d="M29.9734 16.4243C29.9734 16.0483 30.281 15.7407 30.657 15.7407H28.0593C27.6833 15.7407 27.3757 16.0483 27.3757 16.4243V62.163C28.1779 63.2677 29.0458 64.3217 29.9734 65.3192V16.4243Z" fill="#EF9614"/>
<path d="M37.7779 58.7251C37.4019 58.7251 37.0943 58.4175 37.0943 58.0415V10.9216H32.8785C32.5026 10.9216 32.1949 11.2292 32.1949 11.6052V63.3505C32.1949 63.7266 32.5026 64.0341 32.8785 64.0341H76.4213C76.7973 64.0341 77.1049 63.7266 77.1049 63.3505V58.7251H37.7779Z" fill="#FF9518"/>
<path d="M34.6559 63.3505V11.6052C34.6559 11.2292 34.9635 10.9216 35.3395 10.9216H32.8785C32.5026 10.9216 32.1949 11.2292 32.1949 11.6052V63.3505C32.1949 63.7266 32.5026 64.0341 32.8785 64.0341H35.3395C34.9635 64.0341 34.6559 63.7266 34.6559 63.3505Z" fill="#EF8318"/>
<path d="M81.6163 58.4289C81.6163 58.8049 81.3087 59.1125 80.9327 59.1125H37.3903C37.0143 59.1125 36.7067 58.8049 36.7067 58.4289V6.68359C36.7067 6.30762 37.0143 6 37.3903 6H80.9327C81.3087 6 81.6163 6.30762 81.6163 6.68359V58.4289Z" fill="#D9EAFC"/>
<path d="M39.4196 58.4289V6.68359C39.4196 6.30762 39.7272 6 40.1032 6H37.39C37.014 6 36.7064 6.30762 36.7064 6.68359V58.4289C36.7064 58.8049 37.014 59.1125 37.39 59.1125H40.1032C39.7272 59.1125 39.4196 58.8049 39.4196 58.4289Z" fill="#C3DDF4"/>
<path d="M76.2467 12.9445H66.7365C66.17 12.9445 65.7111 12.4855 65.7111 11.9191C65.7111 11.3528 66.17 10.8937 66.7365 10.8937H76.2467C76.8132 10.8937 77.2721 11.3528 77.2721 11.9191C77.2721 12.4855 76.813 12.9445 76.2467 12.9445Z" fill="#DB722C"/>
<path d="M76.2467 16.4305H66.7365C66.17 16.4305 65.7111 15.9714 65.7111 15.4052C65.7111 14.8387 66.17 14.3798 66.7365 14.3798H76.2467C76.8132 14.3798 77.2721 14.8387 77.2721 15.4052C77.2721 15.9714 76.813 16.4305 76.2467 16.4305Z" fill="#DB722C"/>
<path d="M76.2467 19.9167H66.7365C66.17 19.9167 65.7111 19.4576 65.7111 18.8914C65.7111 18.3251 66.17 17.866 66.7365 17.866H76.2467C76.8132 17.866 77.2721 18.3251 77.2721 18.8914C77.2721 19.4578 76.813 19.9167 76.2467 19.9167Z" fill="#DB722C"/>
<path d="M76.2467 23.4028H66.7365C66.17 23.4028 65.7111 22.9437 65.7111 22.3774C65.7111 21.811 66.17 21.3521 66.7365 21.3521H76.2467C76.8132 21.3521 77.2721 21.811 77.2721 22.3774C77.2721 22.9437 76.813 23.4028 76.2467 23.4028Z" fill="#DB722C"/>
<path d="M58.5151 47.7377H42.4973C41.9309 47.7377 41.4719 47.2786 41.4719 46.7123C41.4719 46.146 41.9309 45.6869 42.4973 45.6869H58.515C59.0814 45.6869 59.5404 46.146 59.5404 46.7123C59.5405 47.2786 59.0814 47.7377 58.5151 47.7377Z" fill="#52BBEF"/>
<path d="M58.5151 51.2238H42.4973C41.9309 51.2238 41.4719 50.7648 41.4719 50.1984C41.4719 49.6321 41.9309 49.173 42.4973 49.173H58.515C59.0814 49.173 59.5404 49.6321 59.5404 50.1984C59.5405 50.7648 59.0814 51.2238 58.5151 51.2238Z" fill="#52BBEF"/>
<path d="M58.5151 54.71H42.4973C41.9309 54.71 41.4719 54.251 41.4719 53.6846C41.4719 53.1183 41.9309 52.6592 42.4973 52.6592H58.515C59.0814 52.6592 59.5404 53.1183 59.5404 53.6846C59.5405 54.2509 59.0814 54.71 58.5151 54.71Z" fill="#52BBEF"/>
<path d="M76.2467 29.4866H61.6544C61.088 29.4866 60.629 29.0275 60.629 28.4612C60.629 27.8949 61.088 27.4358 61.6544 27.4358H76.2467C76.8131 27.4358 77.2721 27.8949 77.2721 28.4612C77.2721 29.0275 76.813 29.4866 76.2467 29.4866Z" fill="#FE3745"/>
<path d="M76.2467 32.9727H61.6544C61.088 32.9727 60.629 32.5136 60.629 31.9473C60.629 31.381 61.088 30.9219 61.6544 30.9219H76.2467C76.8131 30.9219 77.2721 31.381 77.2721 31.9473C77.2721 32.5136 76.813 32.9727 76.2467 32.9727Z" fill="#FE3745"/>
<path d="M76.2467 36.4587H61.6544C61.088 36.4587 60.629 35.9995 60.629 35.4333C60.629 34.8669 61.088 34.408 61.6544 34.408H76.2467C76.8131 34.408 77.2721 34.8669 77.2721 35.4333C77.2721 35.9995 76.813 36.4587 76.2467 36.4587Z" fill="#FE3745"/>
<path d="M76.2467 39.9449H61.6544C61.088 39.9449 60.629 39.4858 60.629 38.9196C60.629 38.3533 61.088 37.8942 61.6544 37.8942H76.2467C76.8131 37.8942 77.2721 38.3533 77.2721 38.9196C77.2721 39.4858 76.813 39.9449 76.2467 39.9449Z" fill="#FE3745"/>
<path d="M40.6561 35.4977H44.6541C44.6541 33.2897 46.4438 31.4996 48.6519 31.4996V27.502C44.2362 27.502 40.6561 31.0817 40.6561 35.4977Z" fill="#FE3745"/>
<path d="M50.6794 25.4745V29.4723C52.8875 29.4723 54.6772 31.2621 54.6772 33.4701H58.6753C58.6753 29.0541 55.0953 25.4745 50.6794 25.4745Z" fill="#91E0E8"/>
<path d="M52.6496 35.4979C52.6496 37.7057 50.86 39.4957 48.652 39.4957C46.444 39.4957 44.6542 37.7057 44.6542 35.4979H40.6561C40.6561 39.9137 44.2362 43.4936 48.6519 43.4936C53.0677 43.4936 56.6477 39.9137 56.6477 35.4979H52.6496Z" fill="#FFAF10"/>
<path d="M45.2485 21.7398V12.1921C45.2485 11.9666 45.0639 11.782 44.8384 11.782H42.3525C42.127 11.782 41.9424 11.9666 41.9424 12.1921V21.7398H45.2485Z" fill="#FFAF10"/>
<path d="M50.5964 21.7398V14.7898C50.5964 14.5642 50.4118 14.3796 50.1862 14.3796H47.7006C47.475 14.3796 47.2904 14.5642 47.2904 14.7898V21.7398H50.5964Z" fill="#FE3745"/>
<path d="M55.9442 21.7398V17.9343C55.9442 17.7087 55.7596 17.5242 55.534 17.5242H53.0483C52.8228 17.5242 52.6382 17.7087 52.6382 17.9343V21.7398H55.9442Z" fill="#37C47A"/>
<path d="M61.2922 21.7398V12.1921C61.2922 11.9666 61.1076 11.782 60.8821 11.782H58.3962C58.1707 11.782 57.9861 11.9666 57.9861 12.1921V21.7398H61.2922Z" fill="#91E0E8"/>
<path d="M71.3933 49.7101C71.3933 49.484 71.5774 49.3 71.8035 49.3H73.6575V44.7117C73.6575 44.3357 73.3499 44.0281 72.9739 44.0281H66.8051C66.4291 44.0281 66.1215 44.3357 66.1215 44.7117V50.8806C66.1215 51.2565 66.4291 51.5642 66.8051 51.5642H71.3933V49.7101Z" fill="#FE3745"/>
<path d="M76.2467 53.4696C76.2467 53.8455 75.9391 54.1532 75.5631 54.1532H71.8036C71.4276 54.1532 71.12 53.8455 71.12 53.4696V49.7101C71.12 49.3341 71.4276 49.0265 71.8036 49.0265H75.5631C75.9391 49.0265 76.2467 49.3341 76.2467 49.7101V53.4696Z" fill="#37C47A"/>
<path d="M61.9991 23.403H41.2355C40.669 23.403 40.2101 22.9439 40.2101 22.3776C40.2101 21.8111 40.669 21.3522 41.2355 21.3522H61.9991C62.5655 21.3522 63.0245 21.8111 63.0245 22.3776C63.0245 22.9439 62.5655 23.403 61.9991 23.403Z" fill="#52BBEF"/>
<path d="M19.26 90H22.8C25.5 90 27.336 88.296 27.336 85.8C27.336 83.304 25.5 81.6 22.8 81.6H19.26V90ZM20.46 88.956V82.644H22.728C24.804 82.644 26.136 83.916 26.136 85.8C26.136 87.684 24.804 88.956 22.728 88.956H20.46ZM31.7301 90.072C33.6381 90.072 35.0301 88.716 35.0301 86.82C35.0301 84.924 33.6381 83.58 31.7301 83.58C29.8221 83.58 28.4181 84.924 28.4181 86.82C28.4181 88.716 29.8221 90.072 31.7301 90.072ZM31.7301 89.064C30.5061 89.064 29.5821 88.176 29.5821 86.82C29.5821 85.464 30.5061 84.588 31.7301 84.588C32.9541 84.588 33.8661 85.464 33.8661 86.82C33.8661 88.176 32.9541 89.064 31.7301 89.064ZM39.3953 90.072C40.5353 90.072 41.4833 89.592 41.9873 88.704L41.1113 88.152C40.7033 88.776 40.0793 89.064 39.3833 89.064C38.1353 89.064 37.1993 88.2 37.1993 86.82C37.1993 85.464 38.1353 84.588 39.3833 84.588C40.0793 84.588 40.7033 84.876 41.1113 85.5L41.9873 84.936C41.4833 84.048 40.5353 83.58 39.3953 83.58C37.4393 83.58 36.0353 84.924 36.0353 86.82C36.0353 88.716 37.4393 90.072 39.3953 90.072ZM48.2547 83.64V86.928C48.2547 88.296 47.4867 89.04 46.2867 89.04C45.1947 89.04 44.5707 88.416 44.5707 87.168V83.64H43.4187V87.3C43.4187 89.172 44.5107 90.072 46.1547 90.072C47.0547 90.072 47.8467 89.7 48.3147 89.04V90H49.4067V83.64H48.2547ZM59.5558 83.58C58.4758 83.58 57.5878 84.036 57.1078 84.756C56.6878 83.964 55.8718 83.58 54.8998 83.58C53.9398 83.58 53.1598 83.94 52.7038 84.588V83.64H51.5998V90H52.7518V86.724C52.7518 85.344 53.5078 84.612 54.6598 84.612C55.7038 84.612 56.3038 85.224 56.3038 86.472V90H57.4558V86.724C57.4558 85.344 58.2118 84.612 59.3638 84.612C60.4078 84.612 61.0078 85.224 61.0078 86.472V90H62.1598V86.34C62.1598 84.468 61.1038 83.58 59.5558 83.58ZM70.0627 86.856C70.0627 84.9 68.7547 83.58 66.9187 83.58C65.0827 83.58 63.7267 84.936 63.7267 86.82C63.7267 88.716 65.0947 90.072 67.1467 90.072C68.2027 90.072 69.0787 89.712 69.6547 89.04L69.0187 88.296C68.5507 88.812 67.9267 89.064 67.1827 89.064C65.9227 89.064 65.0227 88.32 64.8787 87.204H70.0387C70.0507 87.096 70.0627 86.952 70.0627 86.856ZM66.9187 84.552C68.0347 84.552 68.8387 85.308 68.9587 86.376H64.8787C64.9987 85.296 65.8147 84.552 66.9187 84.552ZM75.0583 83.58C74.0503 83.58 73.2343 83.952 72.7663 84.6V83.64H71.6623V90H72.8143V86.724C72.8143 85.344 73.6063 84.612 74.8303 84.612C75.9223 84.612 76.5463 85.224 76.5463 86.472V90H77.6983V86.34C77.6983 84.468 76.6063 83.58 75.0583 83.58ZM83.0463 88.8C82.8063 88.992 82.4823 89.1 82.1463 89.1C81.5103 89.1 81.1503 88.716 81.1503 88.032V84.588H82.9743V83.64H81.1503V82.248H79.9983V83.64H78.9183V84.588H79.9983V88.08C79.9983 89.364 80.7303 90.072 82.0143 90.072C82.5303 90.072 83.0583 89.928 83.4063 89.628L83.0463 88.8ZM86.623 90.072C88.315 90.072 89.371 89.34 89.371 88.188C89.371 85.716 85.339 86.94 85.339 85.44C85.339 84.936 85.831 84.564 86.839 84.564C87.463 84.564 88.099 84.696 88.675 85.068L89.167 84.156C88.615 83.796 87.679 83.58 86.851 83.58C85.219 83.58 84.199 84.348 84.199 85.488C84.199 88.02 88.219 86.784 88.219 88.212C88.219 88.752 87.775 89.076 86.707 89.076C85.879 89.076 85.015 88.8 84.475 88.416L83.995 89.328C84.523 89.748 85.567 90.072 86.623 90.072Z" fill="black"/>
<defs>
<filter id="filter0_d" x="0" y="0" width="108" height="108" filterUnits="userSpaceOnUse" color-interpolation-filters="sRGB">
<feFlood flood-opacity="0" result="BackgroundImageFix"/>
<feColorMatrix in="SourceAlpha" type="matrix" values="0 0 0 0 0 0 0 0 0 0 0 0 0 0 0 0 0 0 127 0"/>
<feOffset dy="4"/>
<feGaussianBlur stdDeviation="2"/>
<feColorMatrix type="matrix" values="0 0 0 0 0 0 0 0 0 0 0 0 0 0 0 0 0 0 0.05 0"/>
<feBlend mode="normal" in2="BackgroundImageFix" result="effect1_dropShadow"/>
<feBlend mode="normal" in="SourceGraphic" in2="effect1_dropShadow" result="shape"/>
</filter>
</defs>
</svg>
