<svg width="108" height="108" viewBox="0 0 108 108" fill="none" xmlns="http://www.w3.org/2000/svg">
<g filter="url(#filter0_d)">
<rect x="4" width="100" height="100" rx="8" fill="white"/>
</g>
<path d="M32.4159 88.488C31.8159 88.872 31.1559 89.028 30.4479 89.028C28.5159 89.028 27.1119 87.648 27.1119 85.8C27.1119 83.928 28.5159 82.572 30.4599 82.572C31.4079 82.572 32.1999 82.872 32.8959 83.544L33.6399 82.8C32.8719 81.948 31.7439 81.504 30.4119 81.504C27.8079 81.504 25.9119 83.316 25.9119 85.8C25.9119 88.284 27.8079 90.096 30.3879 90.096C31.5639 90.096 32.7279 89.736 33.5679 89.028V85.752H32.4159V88.488ZM36.8015 84.708V83.64H35.6975V90H36.8495V86.832C36.8495 85.44 37.6175 84.684 38.8535 84.684C38.9375 84.684 39.0215 84.684 39.1175 84.696V83.58C38.0015 83.58 37.2095 83.964 36.8015 84.708ZM43.2027 90.072C45.1107 90.072 46.5027 88.716 46.5027 86.82C46.5027 84.924 45.1107 83.58 43.2027 83.58C41.2947 83.58 39.8907 84.924 39.8907 86.82C39.8907 88.716 41.2947 90.072 43.2027 90.072ZM43.2027 89.064C41.9787 89.064 41.0547 88.176 41.0547 86.82C41.0547 85.464 41.9787 84.588 43.2027 84.588C44.4267 84.588 45.3387 85.464 45.3387 86.82C45.3387 88.176 44.4267 89.064 43.2027 89.064ZM50.8679 90.072C52.0079 90.072 52.9559 89.592 53.4599 88.704L52.5839 88.152C52.1759 88.776 51.5519 89.064 50.8559 89.064C49.6079 89.064 48.6719 88.2 48.6719 86.82C48.6719 85.464 49.6079 84.588 50.8559 84.588C51.5519 84.588 52.1759 84.876 52.5839 85.5L53.4599 84.936C52.9559 84.048 52.0079 83.58 50.8679 83.58C48.9119 83.58 47.5079 84.924 47.5079 86.82C47.5079 88.716 48.9119 90.072 50.8679 90.072ZM60.6056 86.856C60.6056 84.9 59.2976 83.58 57.4616 83.58C55.6256 83.58 54.2696 84.936 54.2696 86.82C54.2696 88.716 55.6376 90.072 57.6896 90.072C58.7456 90.072 59.6216 89.712 60.1976 89.04L59.5616 88.296C59.0936 88.812 58.4696 89.064 57.7256 89.064C56.4656 89.064 55.5656 88.32 55.4216 87.204H60.5816C60.5936 87.096 60.6056 86.952 60.6056 86.856ZM57.4616 84.552C58.5776 84.552 59.3816 85.308 59.5016 86.376H55.4216C55.5416 85.296 56.3576 84.552 57.4616 84.552ZM63.3093 84.708V83.64H62.2053V90H63.3573V86.832C63.3573 85.44 64.1253 84.684 65.3613 84.684C65.4453 84.684 65.5293 84.684 65.6253 84.696V83.58C64.5093 83.58 63.7173 83.964 63.3093 84.708ZM67.6211 82.416C68.0771 82.416 68.4011 82.08 68.4011 81.648C68.4011 81.24 68.0651 80.916 67.6211 80.916C67.1771 80.916 66.8411 81.252 66.8411 81.672C66.8411 82.092 67.1771 82.416 67.6211 82.416ZM67.0451 90H68.1971V83.64H67.0451V90ZM76.1447 86.856C76.1447 84.9 74.8367 83.58 73.0007 83.58C71.1647 83.58 69.8087 84.936 69.8087 86.82C69.8087 88.716 71.1767 90.072 73.2287 90.072C74.2847 90.072 75.1607 89.712 75.7367 89.04L75.1007 88.296C74.6327 88.812 74.0087 89.064 73.2647 89.064C72.0047 89.064 71.1047 88.32 70.9607 87.204H76.1207C76.1327 87.096 76.1447 86.952 76.1447 86.856ZM73.0007 84.552C74.1167 84.552 74.9207 85.308 75.0407 86.376H70.9607C71.0807 85.296 71.8967 84.552 73.0007 84.552ZM79.5683 90.072C81.2603 90.072 82.3163 89.34 82.3163 88.188C82.3163 85.716 78.2843 86.94 78.2843 85.44C78.2843 84.936 78.7763 84.564 79.7843 84.564C80.4083 84.564 81.0443 84.696 81.6203 85.068L82.1123 84.156C81.5603 83.796 80.6243 83.58 79.7963 83.58C78.1643 83.58 77.1443 84.348 77.1443 85.488C77.1443 88.02 81.1643 86.784 81.1643 88.212C81.1643 88.752 80.7203 89.076 79.6523 89.076C78.8243 89.076 77.9603 88.8 77.4203 88.416L76.9403 89.328C77.4683 89.748 78.5123 90.072 79.5683 90.072Z" fill="black"/>
<path d="M32.2392 13.0565H24.3108V18.3471H32.2392V13.0565Z" fill="#48C1E1"/>
<path d="M33.8744 12.4741C33.8744 12.9079 33.5196 13.2629 33.0858 13.2629H23.464C23.0302 13.2629 22.6754 12.9079 22.6754 12.4741V6.78878C22.6754 6.35496 23.0302 6 23.464 6H33.0856C33.5195 6 33.8743 6.35496 33.8743 6.78878L33.8744 12.4741Z" fill="#046699"/>
<g opacity="0.1">
<path opacity="0.1" d="M25.9651 12.4741V6.78878C25.9651 6.35496 26.32 6 26.7539 6H23.464C23.0302 6 22.6754 6.35496 22.6754 6.78878V12.4741C22.6754 12.9079 23.0302 13.2629 23.464 13.2629H26.7539C26.3201 13.2629 25.9651 12.9079 25.9651 12.4741Z" fill="black"/>
</g>
<path d="M21.853 55.943C21.8935 55.9263 21.9251 55.8929 21.9393 55.8514C21.9537 55.8099 21.9494 55.7643 21.928 55.7261C21.8623 55.6101 21.8291 55.496 21.8291 55.3873C21.8291 54.5432 23.7017 53.6396 26.4898 53.6396C27.387 53.6396 28.2611 53.7393 29.0175 53.9281C29.0298 53.9311 29.0422 53.9327 29.0546 53.9327C29.0947 53.9327 29.1338 53.9169 29.1629 53.8878C29.201 53.8497 29.2163 53.7945 29.2031 53.7425C28.7166 51.8006 28.4381 49.8048 28.3727 47.7653C28.3718 47.7415 28.3703 47.7178 28.3695 47.6939C28.3608 47.4028 28.3562 47.1108 28.3562 46.818C28.3562 46.4649 28.6427 46.1776 28.995 46.1776H30.3786C30.4221 46.1776 30.4637 46.1591 30.4927 46.1266C30.5216 46.0941 30.5355 46.0508 30.5308 46.0075C30.5081 45.8046 30.4976 45.635 30.4976 45.4738C30.4976 43.3162 31.8773 41.4317 33.9309 40.7847C33.9732 40.7714 34.0077 40.7403 34.0253 40.6996C34.043 40.6589 34.0421 40.6125 34.0228 40.5725C33.8363 40.1834 33.7055 39.7767 33.6339 39.3638C33.2761 37.2995 34.3562 35.2441 36.2601 34.3656C36.332 34.3324 36.3668 34.2497 36.3402 34.175C36.2507 33.9247 36.183 33.6678 36.1386 33.411C35.8483 31.736 36.5034 30.1116 37.7168 29.083V22.5068C37.7168 20.0857 35.7406 18.105 33.325 18.105H23.2246C20.8092 18.105 18.8329 20.0857 18.8329 22.5068V57.7695C19.7129 57.0278 20.7274 56.4067 21.853 55.943Z" fill="#A2DFF9"/>
<path d="M33.9311 40.7844C33.9734 40.7711 34.0078 40.74 34.0254 40.6993C34.0432 40.6585 34.0423 40.6121 34.023 40.5722C33.8365 40.183 33.7057 39.7763 33.634 39.3635C33.2763 37.2991 34.3563 35.2438 36.2602 34.3653C36.3322 34.332 36.367 34.2493 36.3403 34.1746C36.2509 33.9244 36.1832 33.6674 36.1388 33.4106C35.8485 31.7357 36.5036 30.1113 37.717 29.0827V26.1217H18.8329V42.4153H31.5611C32.1551 41.6664 32.9674 41.0881 33.9311 40.7844Z" fill="#046699"/>
<path opacity="0.1" d="M23.5754 54.0336V22.5065C23.5754 20.0855 25.5516 18.1047 27.9671 18.1047H23.2246C20.8092 18.1047 18.8329 20.0855 18.8329 22.5065V57.7694C19.7129 57.0277 20.7274 56.4067 21.853 55.9429C21.8935 55.9262 21.9251 55.8928 21.9393 55.8513C21.9537 55.8098 21.9494 55.7642 21.928 55.726C21.8623 55.61 21.8291 55.4959 21.8291 55.3872C21.8292 54.8912 22.4768 54.3753 23.5754 54.0336Z" fill="black"/>
<path d="M52.1406 30.6251C52.1848 30.8805 52.2077 31.1454 52.2081 31.4126C52.2083 31.4919 52.2688 31.5579 52.3478 31.565C54.308 31.7373 55.947 33.1337 56.4266 35.04C56.4398 35.0925 56.4799 35.1342 56.5318 35.1495C56.5462 35.1538 56.5606 35.1558 56.5751 35.1558C56.6134 35.1558 56.6508 35.1414 56.6796 35.1146C57.4783 34.3696 58.4723 33.9218 59.5542 33.8199C59.6309 33.8127 59.6904 33.7494 59.6927 33.6724C59.7624 31.525 60.6356 29.5057 62.1516 27.9864C62.1833 27.9547 62.2164 27.9252 62.2485 27.894C61.9132 25.7559 60.9279 23.7014 59.2876 22.0573C58.9649 21.7342 58.442 21.7341 58.1189 22.0573L51.397 28.7947C51.7639 29.3297 52.0233 29.949 52.1406 30.6251Z" fill="#EF5050"/>
<path d="M56.4265 35.04C56.4397 35.0925 56.4798 35.1342 56.5317 35.1495C56.5461 35.1538 56.5605 35.1558 56.575 35.1558C56.6133 35.1558 56.6507 35.1414 56.6795 35.1146C57.0697 34.7506 57.507 34.4589 57.978 34.2425C57.9254 34.0668 57.83 33.9011 57.6914 33.7621L56.5764 32.6444C56.1287 32.1954 55.4014 32.1943 54.9523 32.6424C54.9489 32.6456 54.9463 32.6491 54.9431 32.6525C55.6573 33.2615 56.1869 34.0871 56.4265 35.04Z" fill="#C0272D"/>
<path d="M58.8149 31.6405H57.2382C56.6038 31.6405 56.0897 31.1263 56.0897 30.492C56.0897 29.8577 56.6038 29.3435 57.2382 29.3435H58.8149C59.4493 29.3435 59.9633 29.8577 59.9633 30.492C59.9633 31.1264 59.4493 31.6405 58.8149 31.6405Z" fill="#C0272D"/>
<path d="M57.0158 28.4675C56.7222 28.4675 56.4287 28.3558 56.2045 28.132C55.7555 27.684 55.7549 26.9567 56.2028 26.5078L57.3182 25.3902C57.7663 24.9414 58.4935 24.9406 58.9423 25.3887C59.3913 25.8367 59.3919 26.564 58.944 27.0129L57.8286 28.1305C57.6044 28.355 57.3101 28.4675 57.0158 28.4675Z" fill="#C0272D"/>
<path d="M71.4145 26.1251C71.401 26.09 71.38 26.0588 71.354 26.0326C71.3278 26.0064 71.2967 25.9856 71.2616 25.9718C68.0809 24.7049 64.4624 25.4533 62.0429 27.8781C60.4357 29.4891 59.5677 31.6305 59.536 33.8213C59.695 33.8057 59.8562 33.7973 60.0191 33.7973C62.401 33.7973 64.3906 35.5078 64.8322 37.7674C66.5691 37.4844 68.2137 36.6667 69.5127 35.3648C71.932 32.9396 72.6786 29.313 71.4145 26.1251Z" fill="#89C947"/>
<path d="M67.2881 30.1079C66.8392 29.6598 66.1119 29.6606 65.664 30.1097L61.6912 34.0916C62.441 34.3649 63.1059 34.8167 63.635 35.3954L67.2901 31.732C67.7382 31.283 67.7373 30.5558 67.2881 30.1079Z" fill="#D5E962"/>
<path d="M73.0638 39.2779C73.1037 39.5094 73.1243 39.7478 73.1244 39.9867C73.1246 40.0661 73.1852 40.1321 73.2641 40.1391C73.8856 40.1938 74.4783 40.3864 75.0254 40.7117C75.0497 40.7262 75.0767 40.7332 75.1037 40.7332C75.1465 40.7332 75.1891 40.7152 75.2191 40.6807C75.3497 40.5311 75.4617 40.41 75.5719 40.2996C76.4962 39.3731 77.6139 38.7119 78.8327 38.3514C78.9471 37.9282 79.0091 37.4835 79.0091 37.0239C79.0091 34.2242 76.7446 31.9543 73.951 31.9543C71.5686 31.9543 69.5719 33.6059 69.0356 35.8286C71.0331 35.8632 72.7212 37.3016 73.0638 39.2779Z" fill="#FFC502"/>
<path d="M38.3999 46.0673C37.8871 45.1585 37.5624 44.1618 37.4384 43.1361C35.946 42.892 34.679 41.9361 34.0298 40.5942C31.9038 41.1942 30.3447 43.1506 30.3447 45.4733C30.3447 45.6745 30.36 45.8721 30.3829 46.0672H38.3999V46.0673Z" fill="#FFC502"/>
<path d="M77.0022 43.575C77.1501 44.4284 77.0325 45.2879 76.6629 46.0672H83.1624C84.6972 43.9117 85.0683 41.0987 84.0703 38.5812C84.0576 38.5492 84.0386 38.5204 84.0146 38.4964C83.9905 38.4723 83.9617 38.4532 83.9299 38.4405C81.0086 37.277 77.6856 37.9642 75.4635 40.1912C75.3012 40.354 75.1494 40.524 75.0037 40.698C76.0352 41.3037 76.7881 42.3397 77.0022 43.575Z" fill="#89C947"/>
<path d="M76.6628 46.0673H78.0831L80.3484 43.7969C80.7965 43.348 80.7956 42.6207 80.3464 42.1728C79.8974 41.7247 79.1702 41.7255 78.7223 42.1746L77.0405 43.8603C77.1195 44.6188 76.9913 45.3748 76.6628 46.0673Z" fill="#D5E962"/>
<path d="M56.6025 35.1286C56.1417 33.0659 54.3957 31.5909 52.3613 31.4122C52.3609 31.1438 52.3391 30.872 52.2917 30.5986C51.8405 27.996 49.3618 26.2535 46.7555 26.7072C45.4026 26.9427 44.2827 27.7245 43.5795 28.7846C42.5614 28.024 41.2437 27.6668 39.8907 27.9021C37.284 28.356 35.5369 30.834 35.9883 33.4366C36.0355 33.71 36.1062 33.9733 36.1964 34.226C34.2731 35.1134 33.1052 37.2069 33.4834 39.3895C33.8408 41.4526 35.473 42.9737 37.4328 43.29C37.2429 41.9743 37.3953 40.6164 37.9039 39.3336C37.9088 39.321 37.9161 39.31 37.9257 39.3002C37.9351 39.2908 37.9464 39.2835 37.9588 39.2784C38.8712 38.9151 39.8301 38.7307 40.8086 38.7307C42.8669 38.7307 44.8029 39.5348 46.26 40.9951C46.3653 41.1009 46.4664 41.2101 46.5648 41.3209C46.4834 40.7929 46.4411 40.2554 46.4411 39.7107C46.4411 39.3386 46.7429 39.0359 47.114 39.0359H55.1326C55.1257 38.9293 55.1206 38.8221 55.1206 38.7137C55.1206 37.3138 55.6869 36.0461 56.6025 35.1286Z" fill="#368C0E"/>
<path d="M39.8311 35.5772C39.8244 35.5772 39.8178 35.577 39.8112 35.577C39.1769 35.5663 38.6716 35.0435 38.6823 34.4092C38.716 32.4208 40.3468 30.8247 42.3299 30.8247C42.3493 30.8247 42.3686 30.8249 42.3882 30.8252C43.3873 30.8406 44.347 31.2726 45.0209 32.0106C45.4486 32.479 45.4157 33.2054 44.9474 33.6331C44.4791 34.061 43.7526 34.0281 43.3248 33.5598C43.0724 33.2832 42.727 33.1278 42.3523 33.122C41.6057 33.1099 40.9914 33.7053 40.9788 34.4483C40.9684 35.0756 40.4562 35.577 39.8311 35.5772Z" fill="#89C947"/>
<path d="M46.1713 37.5533C46.0387 37.5533 45.9038 37.5302 45.7723 37.4813C45.1775 37.2607 44.8741 36.5999 45.0947 36.0051C45.7354 34.278 47.6628 33.3916 49.392 34.0294C50.252 34.347 50.9509 35.013 51.3094 35.8568C51.5574 36.4405 51.2855 37.1149 50.7016 37.363C50.1181 37.6112 49.4436 37.3391 49.1954 36.7552C49.0816 36.4877 48.8689 36.2849 48.5966 36.1843C48.0535 35.984 47.4492 36.2621 47.2483 36.8039C47.0766 37.2669 46.6378 37.5533 46.1713 37.5533Z" fill="#89C947"/>
<path d="M64.914 39.0236H64.872C64.8717 39.0343 64.8717 39.0452 64.8713 39.0559H66.4096C66.8661 39.0559 67.2359 39.4266 67.2359 39.8839C67.2359 42.1916 66.4911 44.3253 65.2365 46.0673H76.828C77.1745 45.3047 77.3067 44.4357 77.1531 43.5489C76.8116 41.5778 75.1827 40.1538 73.2776 39.9865C73.2773 39.744 73.2573 39.4984 73.2147 39.2517C72.8072 36.9008 70.5684 35.3271 68.2145 35.7369C66.9925 35.9499 65.9807 36.6557 65.3458 37.6135C65.1399 37.4598 64.9197 37.3259 64.6892 37.2108C64.8414 37.6849 64.9246 38.1898 64.9246 38.7139C64.9244 38.815 64.9211 38.9173 64.914 39.0236Z" fill="#368C0E"/>
<path d="M65.0654 39.036C65.0725 38.9294 65.0775 38.8222 65.0775 38.7138C65.0775 35.9138 62.8129 33.644 60.0193 33.644C57.2258 33.644 54.9612 35.9139 54.9612 38.7138C54.9612 38.8222 54.9662 38.9294 54.9731 39.036H65.0654Z" fill="#F7931E"/>
<path d="M46.3684 40.8872C44.1463 38.6603 40.8232 37.9731 37.902 39.1364C37.87 39.1493 37.8414 39.1684 37.8172 39.1923C37.7933 39.2164 37.7741 39.245 37.7614 39.2773C36.8678 41.5317 37.0723 44.023 38.2263 46.0673H48.6516C47.5956 44.6607 46.8797 42.9842 46.6284 41.1607C46.5442 41.0679 46.4576 40.9766 46.3684 40.8872Z" fill="#89C947"/>
<path d="M43.0541 46.0673H46.2989L43.1093 42.8705C42.6612 42.4217 41.9343 42.4205 41.4852 42.8687C41.036 43.3166 41.0351 44.0438 41.4832 44.4928L43.0541 46.0673Z" fill="#D5E962"/>
<path d="M65.314 46.0673C66.6446 44.2947 67.4379 42.0949 67.4379 39.7108C67.4379 39.2535 67.0683 38.8828 66.6116 38.8828H47.114C46.6575 38.8828 46.288 39.2535 46.288 39.7108C46.288 42.0949 47.0813 44.2947 48.4121 46.0673H65.314Z" fill="#EF5050"/>
<path d="M58.0531 46.0673V45.2729C58.0531 44.6386 57.539 44.1244 56.9046 44.1244C56.2702 44.1244 55.7561 44.6386 55.7561 45.2729V46.0673H58.0531Z" fill="#C0272D"/>
<path d="M60.2566 46.0674H62.0426C62.4121 45.6167 62.3869 44.9506 61.9666 44.5292L60.8516 43.4116C60.4037 42.9626 59.6765 42.9616 59.2275 43.4096C58.7784 43.8577 58.7776 44.5848 59.2255 45.0337L60.2566 46.0674Z" fill="#C0272D"/>
<path d="M53.3717 46.0673L54.4026 45.034C54.8507 44.585 54.8499 43.8578 54.4009 43.4099C53.9519 42.9618 53.2247 42.9626 52.7766 43.4116L51.6615 44.5291C51.2412 44.9504 51.2159 45.6165 51.5853 46.0672L53.3717 46.0673Z" fill="#C0272D"/>
<path d="M51.6059 42.9701H50.029C49.3946 42.9701 48.8805 42.4559 48.8805 41.8216C48.8805 41.1873 49.3946 40.6731 50.029 40.6731H51.6059C52.2404 40.6731 52.7544 41.1873 52.7544 41.8216C52.7544 42.4559 52.2402 42.9701 51.6059 42.9701Z" fill="#C0272D"/>
<path d="M63.6969 42.9701H62.1198C61.4855 42.9701 60.9713 42.4559 60.9713 41.8216C60.9713 41.1873 61.4855 40.6731 62.1198 40.6731H63.6969C64.3313 40.6731 64.8454 41.1873 64.8454 41.8216C64.8454 42.4559 64.3312 42.9701 63.6969 42.9701Z" fill="#C0272D"/>
<path d="M29.2383 53.9862C29.252 53.99 29.266 53.992 29.2798 53.992C29.3128 53.992 29.3453 53.9813 29.3723 53.9609C29.4105 53.932 29.4329 53.8868 29.4329 53.8389V51.8952C29.4329 51.3463 29.8794 50.8998 30.4283 50.8998C30.9771 50.8998 31.4236 51.3463 31.4236 51.8952V53.8389C31.4236 53.8868 31.446 53.932 31.4843 53.9609C31.5112 53.9813 31.5437 53.992 31.5767 53.992C31.5907 53.992 31.6046 53.9902 31.6182 53.9862C32.4239 53.7592 33.3744 53.6392 34.3665 53.6392C37.1543 53.6392 39.0271 54.5428 39.0271 55.3869C39.0271 55.4959 38.9938 55.61 38.9282 55.7261C38.9064 55.7642 38.9023 55.81 38.9167 55.8515C38.9311 55.893 38.9625 55.9264 39.003 55.943C42.5724 57.4143 45.1017 60.5353 45.6041 64.0878C45.6107 64.1339 45.6378 64.1745 45.6777 64.1982C45.7016 64.2123 45.7286 64.2195 45.7557 64.2195C45.7741 64.2195 45.7924 64.2162 45.8101 64.2096L69.9858 55.0253C70.4536 54.8477 70.9445 54.7577 71.445 54.7577C72.1461 54.7577 72.8397 54.9385 73.4508 55.2804C74.5136 55.8752 75.25 56.901 75.4713 58.0947L75.6818 59.2317C75.691 59.2809 75.7233 59.3225 75.7689 59.3432C75.7892 59.3524 75.8108 59.357 75.8323 59.357C75.8594 59.357 75.8864 59.3499 75.9103 59.3357L84.0385 54.5374C84.737 52.0486 85.091 49.468 85.091 46.8175C85.091 46.3792 84.7364 46.0239 84.299 46.0239H28.9952C28.5579 46.0239 28.2032 46.3792 28.2032 46.8175C28.2032 49.2601 28.5052 51.6431 29.0986 53.9499C29.145 53.9621 29.1928 53.9733 29.2383 53.9862Z" fill="#E6E9ED"/>
<path opacity="0.1" d="M29.2383 53.9862C29.252 53.99 29.266 53.992 29.2798 53.992C29.3128 53.992 29.3453 53.9813 29.3723 53.9609C29.4105 53.932 29.4329 53.8868 29.4329 53.8389V51.8952C29.4329 51.3463 29.8794 50.8998 30.4283 50.8998C30.9771 50.8998 31.4236 51.3463 31.4236 51.8952V53.8389C31.4236 53.8868 31.446 53.932 31.4843 53.9609C31.5112 53.9813 31.5437 53.992 31.5767 53.992C31.5907 53.992 31.6046 53.9902 31.6182 53.9862C32.3078 53.7918 33.1039 53.6767 33.9411 53.6474C33.3984 51.435 33.1235 49.1533 33.1235 46.8175C33.1235 46.3792 33.478 46.0239 33.9155 46.0239H28.9952C28.5579 46.0239 28.2032 46.3792 28.2032 46.8175C28.2032 49.2601 28.5052 51.6431 29.0986 53.9499C29.145 53.9621 29.1928 53.9733 29.2383 53.9862Z" fill="black"/>
<path d="M30.4281 54.5328C30.7426 54.3562 31.1322 54.2023 31.5769 54.0769V51.8951C31.5769 51.2608 31.0628 50.7466 30.4284 50.7466C29.794 50.7466 29.2799 51.2608 29.2799 51.8951V54.0769C29.7246 54.2022 30.1137 54.3562 30.4281 54.5328Z" fill="#89C947"/>
<path d="M42.1609 75.8452L38.0128 75.8469H38.0113C36.0367 75.8468 34.3435 74.4435 33.9855 72.5099L33.9446 72.29C33.5864 70.3561 34.666 68.4433 36.5117 67.742L45.7782 64.2218C45.301 60.4051 42.6114 57.2086 38.9181 55.7421C38.5598 56.3443 37.3259 56.8687 35.7192 57.0572C35.658 57.0644 35.6068 57.1077 35.5898 57.1671C35.5728 57.2265 35.593 57.2902 35.6413 57.3288C36.474 57.9949 36.9971 58.6972 37.0407 59.2076C37.0567 59.3926 37.0112 59.5427 36.9016 59.6664C36.7063 59.8869 36.3223 60.0034 35.7912 60.0034C35.7912 60.0034 35.7912 60.0034 35.791 60.0034C34.7571 60.0034 33.359 59.5711 32.0509 58.8471C31.4749 58.5278 30.9623 58.1792 30.527 57.8103C30.4983 57.7861 30.4631 57.774 30.428 57.774C30.3928 57.774 30.3576 57.7861 30.3291 57.8103C29.8935 58.1795 29.3809 58.5283 28.8055 58.847C27.4974 59.5711 26.0992 60.0034 25.0652 60.0034C24.534 60.0034 24.1501 59.8869 23.9549 59.6664C23.8452 59.5427 23.7996 59.3927 23.8155 59.2078C23.8593 58.6974 24.3824 57.9951 25.2148 57.3288C25.2629 57.2902 25.2833 57.2265 25.2663 57.1671C25.2494 57.1077 25.1983 57.0644 25.1369 57.0572C23.5298 56.8687 22.2957 56.344 21.938 55.7415C17.857 57.3616 15 61.0934 15 65.4401C15 71.2723 20.1423 76.0001 26.4855 76.0001H42.4106C42.5826 76.0001 42.4495 75.939 42.1609 75.8452Z" fill="#EF5050"/>
<path opacity="0.1" d="M19.9691 65.44C19.9691 61.9759 21.7834 58.9015 24.5858 56.9757C23.2514 56.7428 22.2534 56.2731 21.9378 55.7416C17.857 57.3616 15 61.0934 15 65.44C15 71.2722 20.1423 76 26.4855 76H31.4548C25.1116 76 19.9691 71.2722 19.9691 65.44Z" fill="black"/>
<path d="M39.1803 55.387C39.1803 54.3372 37.0251 53.4862 34.3666 53.4862C32.7382 53.4862 31.2991 53.8058 30.4279 54.2947C29.5573 53.8059 28.1183 53.4862 26.4896 53.4862C23.8313 53.4862 21.6758 54.3372 21.6758 55.387C21.6758 56.2486 23.1284 56.9758 25.1186 57.2093C23.9011 58.1837 23.3435 59.2077 23.8397 59.7678C24.4971 60.5101 26.7536 60.1576 28.8791 58.9809C29.4759 58.6504 29.9988 58.2906 30.4276 57.927C30.8568 58.2907 31.3801 58.6504 31.9764 58.9809C34.102 60.1576 36.3584 60.5098 37.0156 59.7678C37.5119 59.2077 36.9545 58.1837 35.7365 57.2093C37.7281 56.9758 39.1803 56.2486 39.1803 55.387Z" fill="#368C0E"/>
<path d="M93.3858 62.1875L93.0774 60.5239C92.9714 59.9497 92.4175 59.5702 91.8408 59.6759L79.9377 61.8624L87.5378 56.782C87.8981 56.5413 88.0649 56.116 87.9908 55.7122C87.9698 55.6001 87.9303 55.4902 87.8715 55.3856L87.0113 53.8622C86.8717 53.6141 86.6366 53.4325 86.3605 53.3592C86.0846 53.2855 85.7906 53.3256 85.5447 53.471L75.6578 59.3073L77.5282 69.4048L88.8682 71.4427C89.1508 71.4935 89.4423 71.428 89.6754 71.2614C89.9086 71.0946 90.0646 70.8406 90.1066 70.5574L90.363 68.8376C90.3807 68.7192 90.3783 68.6022 90.3574 68.4908C90.2827 68.0863 89.9738 67.749 89.5512 67.6521L80.631 65.6061L92.5342 63.4193C93.1112 63.3134 93.4921 62.7621 93.3858 62.1875Z" fill="#89C947"/>
<path d="M33.8349 72.5377C34.2066 74.5443 35.9639 76.0006 38.0128 75.9999L73.8407 75.9861C75.1014 75.9856 76.2972 75.4271 77.1036 74.4618C77.9103 73.4966 78.2444 72.2244 78.0157 70.9891L75.6222 58.0667C75.3933 56.8317 74.6253 55.7619 73.526 55.1466C72.4267 54.5314 71.1099 54.4347 69.9317 54.882L36.4573 67.5986C34.5429 68.3261 33.4226 70.3108 33.7941 72.3176L33.8349 72.5377Z" fill="#F7931E"/>
<g opacity="0.1">
<path opacity="0.1" d="M33.8349 72.5377C33.8919 72.8458 33.9852 73.1389 34.1035 73.4177C34.5974 72.5404 35.3906 71.8306 36.3919 71.4501L71.3503 58.1697C72.5807 57.7025 73.956 57.8036 75.1039 58.446C75.345 58.5811 75.57 58.7382 75.7786 58.9123L75.6222 58.0668C75.3933 56.8318 74.6253 55.762 73.526 55.1468C72.4267 54.5315 71.1099 54.4349 69.9317 54.8822L36.4573 67.5987C34.5429 68.3262 33.4226 70.311 33.7941 72.3178L33.8349 72.5377Z" fill="black"/>
</g>
<path d="M71.787 70.6141C71.6678 69.991 71.0648 69.5826 70.4432 69.7019C69.8203 69.821 69.4119 70.4226 69.531 71.0456L70.4765 75.9875L72.8149 75.9865L71.787 70.6141Z" fill="#FFC502"/>
<path d="M65.5616 71.9758C65.444 71.3524 64.8437 70.9427 64.2201 71.0599C63.5969 71.1774 63.1868 71.778 63.3044 72.4012L63.981 75.9899L66.3182 75.989L65.5616 71.9758Z" fill="#FFC502"/>
<path d="M59.4755 63.3257C59.6067 63.8467 60.0746 64.194 60.5885 64.194C60.6813 64.194 60.7758 64.1826 60.8698 64.1589C61.4849 64.0041 61.8579 63.3799 61.7031 62.7646L60.6099 58.4233L58.448 59.2447L59.4755 63.3257Z" fill="#FFC502"/>
<path d="M53.4994 70.9749C53.3869 70.3508 52.7901 69.9358 52.1653 70.0485C51.5412 70.161 51.1263 70.7584 51.2389 71.3826L52.0705 75.9944L54.4044 75.9935L53.4994 70.9749Z" fill="#FFC502"/>
<path d="M41.9133 68.8284C42.0267 69.3697 42.504 69.7412 43.036 69.7412C43.1143 69.7412 43.1936 69.7332 43.2732 69.7164C43.894 69.5862 44.2914 68.9772 44.1612 68.3566L43.445 64.9443L41.2715 65.77L41.9133 68.8284Z" fill="#FFC502"/>
<defs>
<filter id="filter0_d" x="0" y="0" width="108" height="108" filterUnits="userSpaceOnUse" color-interpolation-filters="sRGB">
<feFlood flood-opacity="0" result="BackgroundImageFix"/>
<feColorMatrix in="SourceAlpha" type="matrix" values="0 0 0 0 0 0 0 0 0 0 0 0 0 0 0 0 0 0 127 0"/>
<feOffset dy="4"/>
<feGaussianBlur stdDeviation="2"/>
<feColorMatrix type="matrix" values="0 0 0 0 0 0 0 0 0 0 0 0 0 0 0 0 0 0 0.05 0"/>
<feBlend mode="normal" in2="BackgroundImageFix" result="effect1_dropShadow"/>
<feBlend mode="normal" in="SourceGraphic" in2="effect1_dropShadow" result="shape"/>
</filter>
</defs>
</svg>
