<svg width="299" height="113" viewBox="0 0 299 113" fill="none" xmlns="http://www.w3.org/2000/svg">
<g filter="url(#filter0_d)">
<rect width="291" height="105" rx="10" fill="white"/>
<rect x="0.5" y="0.5" width="290" height="104" rx="9.5" stroke="#E6E7E8"/>
</g>
<path d="M19.4687 39.6874H63.5312C64.3419 39.6874 64.9999 39.0294 64.9999 38.2187C64.9999 37.4079 64.3418 36.75 63.5312 36.75H19.4687C18.6579 36.75 18 37.4081 18 38.2187C18 39.0294 18.6581 39.6874 19.4687 39.6874Z" fill="#D0AA2B"/>
<path d="M63.5312 47.0312H19.4687C18.6579 47.0312 18 47.6893 18 48.5C18 49.3106 18.6581 49.9687 19.4687 49.9687H63.5312C64.3419 49.9687 64.9999 49.3106 64.9999 48.5C64.9999 47.6893 64.3419 47.0312 63.5312 47.0312Z" fill="#D0AA2B"/>
<path d="M63.5312 57.3125H34.1562C33.3454 57.3125 32.6875 57.9706 32.6875 58.7812C32.6875 59.592 33.3455 60.2499 34.1562 60.2499H63.5312C64.3419 60.2499 64.9999 59.5919 64.9999 58.7812C65 57.9704 64.3419 57.3125 63.5312 57.3125Z" fill="#D0AA2B"/>
<path d="M95.578 46.18C99.484 46.18 102.364 43.444 102.364 39.7C102.364 35.956 99.484 33.22 95.578 33.22C91.672 33.22 88.792 35.974 88.792 39.7C88.792 43.426 91.672 46.18 95.578 46.18ZM95.578 44.128C93.04 44.128 91.15 42.274 91.15 39.7C91.15 37.126 93.04 35.272 95.578 35.272C98.116 35.272 100.006 37.126 100.006 39.7C100.006 42.274 98.116 44.128 95.578 44.128ZM106.437 37.792V36.388H104.295V46H106.545V41.338C106.545 39.376 107.625 38.368 109.335 38.368C109.497 38.368 109.659 38.386 109.857 38.422V36.28C108.255 36.28 107.085 36.784 106.437 37.792ZM118.508 32.644V37.576C117.752 36.694 116.654 36.28 115.412 36.28C112.622 36.28 110.552 38.206 110.552 41.194C110.552 44.182 112.622 46.126 115.412 46.126C116.726 46.126 117.842 45.676 118.598 44.758V46H120.758V32.644H118.508ZM115.682 44.2C114.062 44.2 112.82 43.03 112.82 41.194C112.82 39.358 114.062 38.188 115.682 38.188C117.302 38.188 118.544 39.358 118.544 41.194C118.544 43.03 117.302 44.2 115.682 44.2ZM132.405 41.248C132.405 38.242 130.353 36.28 127.545 36.28C124.683 36.28 122.577 38.332 122.577 41.194C122.577 44.056 124.665 46.126 127.887 46.126C129.543 46.126 130.893 45.586 131.757 44.56L130.551 43.174C129.867 43.876 129.021 44.218 127.941 44.218C126.267 44.218 125.097 43.318 124.827 41.914H132.369C132.387 41.698 132.405 41.428 132.405 41.248ZM127.545 38.08C129.021 38.08 130.083 39.034 130.263 40.42H124.809C125.025 39.016 126.087 38.08 127.545 38.08ZM136.375 37.792V36.388H134.233V46H136.483V41.338C136.483 39.376 137.563 38.368 139.273 38.368C139.435 38.368 139.597 38.386 139.795 38.422V36.28C138.193 36.28 137.023 36.784 136.375 37.792ZM155.171 33.4V38.602H148.655V33.4H146.315V46H148.655V40.6H155.171V46H157.511V33.4H155.171ZM161.472 34.804C162.318 34.804 162.912 34.192 162.912 33.4C162.912 32.662 162.3 32.104 161.472 32.104C160.644 32.104 160.032 32.698 160.032 33.454C160.032 34.21 160.644 34.804 161.472 34.804ZM160.338 46H162.588V36.388H160.338V46ZM168.178 46.126C170.878 46.126 172.534 44.956 172.534 43.156C172.534 39.394 166.594 41.122 166.594 39.178C166.594 38.548 167.242 38.098 168.61 38.098C169.528 38.098 170.446 38.278 171.364 38.818L172.228 37.108C171.364 36.586 169.906 36.28 168.628 36.28C166.036 36.28 164.398 37.468 164.398 39.286C164.398 43.12 170.338 41.392 170.338 43.228C170.338 43.894 169.744 44.29 168.322 44.29C167.116 44.29 165.82 43.894 164.974 43.336L164.11 45.046C164.974 45.658 166.576 46.126 168.178 46.126ZM179.286 43.876C178.944 44.146 178.494 44.272 178.026 44.272C177.162 44.272 176.694 43.768 176.694 42.832V38.26H179.268V36.46H176.694V34.264H174.444V36.46H172.86V38.26H174.444V42.886C174.444 45.01 175.65 46.126 177.756 46.126C178.566 46.126 179.376 45.91 179.916 45.478L179.286 43.876ZM185.437 46.126C188.425 46.126 190.567 44.074 190.567 41.194C190.567 38.314 188.425 36.28 185.437 36.28C182.485 36.28 180.325 38.314 180.325 41.194C180.325 44.074 182.485 46.126 185.437 46.126ZM185.437 44.2C183.817 44.2 182.593 43.03 182.593 41.194C182.593 39.358 183.817 38.188 185.437 38.188C187.075 38.188 188.299 39.358 188.299 41.194C188.299 43.03 187.075 44.2 185.437 44.2ZM194.528 37.792V36.388H192.386V46H194.636V41.338C194.636 39.376 195.716 38.368 197.426 38.368C197.588 38.368 197.75 38.386 197.948 38.422V36.28C196.346 36.28 195.176 36.784 194.528 37.792ZM206.714 36.388L203.672 43.498L200.648 36.388H198.308L202.502 46.036L202.34 46.414C201.908 47.368 201.44 47.746 200.648 47.746C200.036 47.746 199.424 47.494 198.992 47.08L198.092 48.736C198.704 49.294 199.712 49.618 200.666 49.618C202.268 49.618 203.492 48.952 204.374 46.774L208.874 36.388H206.714Z" fill="black"/>
<path d="M88.846 63H91.6C93.643 63 95.038 61.74 95.038 59.85C95.038 57.96 93.643 56.7 91.6 56.7H88.846V63ZM90.016 62.01V57.69H91.546C92.95 57.69 93.859 58.545 93.859 59.85C93.859 61.155 92.95 62.01 91.546 62.01H90.016ZM100.358 60.624C100.358 59.121 99.3322 58.14 97.9282 58.14C96.4972 58.14 95.4442 59.166 95.4442 60.597C95.4442 62.028 96.4882 63.063 98.0992 63.063C98.9272 63.063 99.6022 62.793 100.034 62.28L99.4312 61.587C99.0892 61.938 98.6662 62.109 98.1262 62.109C97.2892 62.109 96.7042 61.659 96.5692 60.957H100.34C100.349 60.849 100.358 60.714 100.358 60.624ZM97.9282 59.04C98.6662 59.04 99.1972 59.517 99.2872 60.21H96.5602C96.6682 59.508 97.1992 59.04 97.9282 59.04ZM103.68 61.938C103.509 62.073 103.284 62.136 103.05 62.136C102.618 62.136 102.384 61.884 102.384 61.416V59.13H103.671V58.23H102.384V57.132H101.259V58.23H100.467V59.13H101.259V61.443C101.259 62.505 101.862 63.063 102.915 63.063C103.32 63.063 103.725 62.955 103.995 62.739L103.68 61.938ZM106.423 58.14C105.649 58.14 104.902 58.338 104.389 58.734L104.83 59.553C105.19 59.256 105.748 59.076 106.288 59.076C107.089 59.076 107.485 59.463 107.485 60.12V60.192H106.243C104.785 60.192 104.245 60.822 104.245 61.623C104.245 62.46 104.938 63.063 106.036 63.063C106.756 63.063 107.278 62.829 107.548 62.415V63H108.61V60.183C108.61 58.797 107.809 58.14 106.423 58.14ZM106.27 62.244C105.694 62.244 105.352 61.983 105.352 61.578C105.352 61.227 105.559 60.939 106.324 60.939H107.485V61.497C107.296 61.992 106.819 62.244 106.27 62.244ZM110.287 57.402C110.71 57.402 111.007 57.096 111.007 56.7C111.007 56.331 110.701 56.052 110.287 56.052C109.873 56.052 109.567 56.349 109.567 56.727C109.567 57.105 109.873 57.402 110.287 57.402ZM109.72 63H110.845V58.194H109.72V63ZM111.988 63H113.113V56.322H111.988V63ZM118.775 60.624C118.775 59.121 117.749 58.14 116.345 58.14C114.914 58.14 113.861 59.166 113.861 60.597C113.861 62.028 114.905 63.063 116.516 63.063C117.344 63.063 118.019 62.793 118.451 62.28L117.848 61.587C117.506 61.938 117.083 62.109 116.543 62.109C115.706 62.109 115.121 61.659 114.986 60.957H118.757C118.766 60.849 118.775 60.714 118.775 60.624ZM116.345 59.04C117.083 59.04 117.614 59.517 117.704 60.21H114.977C115.085 59.508 115.616 59.04 116.345 59.04ZM123.104 56.322V58.788C122.726 58.347 122.177 58.14 121.556 58.14C120.161 58.14 119.126 59.103 119.126 60.597C119.126 62.091 120.161 63.063 121.556 63.063C122.213 63.063 122.771 62.838 123.149 62.379V63H124.229V56.322H123.104ZM121.691 62.1C120.881 62.1 120.26 61.515 120.26 60.597C120.26 59.679 120.881 59.094 121.691 59.094C122.501 59.094 123.122 59.679 123.122 60.597C123.122 61.515 122.501 62.1 121.691 62.1ZM129.681 63.063C131.175 63.063 132.246 62.037 132.246 60.597C132.246 59.157 131.175 58.14 129.681 58.14C128.205 58.14 127.125 59.157 127.125 60.597C127.125 62.037 128.205 63.063 129.681 63.063ZM129.681 62.1C128.871 62.1 128.259 61.515 128.259 60.597C128.259 59.679 128.871 59.094 129.681 59.094C130.5 59.094 131.112 59.679 131.112 60.597C131.112 61.515 130.5 62.1 129.681 62.1ZM134.06 58.896V58.194H132.989V63H134.114V60.669C134.114 59.688 134.654 59.184 135.509 59.184C135.59 59.184 135.671 59.193 135.77 59.211V58.14C134.969 58.14 134.384 58.392 134.06 58.896ZM139.929 56.322V58.788C139.551 58.347 139.002 58.14 138.381 58.14C136.986 58.14 135.951 59.103 135.951 60.597C135.951 62.091 136.986 63.063 138.381 63.063C139.038 63.063 139.596 62.838 139.974 62.379V63H141.054V56.322H139.929ZM138.516 62.1C137.706 62.1 137.085 61.515 137.085 60.597C137.085 59.679 137.706 59.094 138.516 59.094C139.326 59.094 139.947 59.679 139.947 60.597C139.947 61.515 139.326 62.1 138.516 62.1ZM146.71 60.624C146.71 59.121 145.684 58.14 144.28 58.14C142.849 58.14 141.796 59.166 141.796 60.597C141.796 62.028 142.84 63.063 144.451 63.063C145.279 63.063 145.954 62.793 146.386 62.28L145.783 61.587C145.441 61.938 145.018 62.109 144.478 62.109C143.641 62.109 143.056 61.659 142.921 60.957H146.692C146.701 60.849 146.71 60.714 146.71 60.624ZM144.28 59.04C145.018 59.04 145.549 59.517 145.639 60.21H142.912C143.02 59.508 143.551 59.04 144.28 59.04ZM148.528 58.896V58.194H147.457V63H148.582V60.669C148.582 59.688 149.122 59.184 149.977 59.184C150.058 59.184 150.139 59.193 150.238 59.211V58.14C149.437 58.14 148.852 58.392 148.528 58.896ZM155.784 58.14C155.118 58.14 154.551 58.356 154.182 58.752V56.322H153.057V63H154.182V60.57C154.182 59.607 154.722 59.121 155.523 59.121C156.243 59.121 156.666 59.535 156.666 60.39V63H157.791V60.246C157.791 58.797 156.936 58.14 155.784 58.14ZM159.452 57.402C159.875 57.402 160.172 57.096 160.172 56.7C160.172 56.331 159.866 56.052 159.452 56.052C159.038 56.052 158.732 56.349 158.732 56.727C158.732 57.105 159.038 57.402 159.452 57.402ZM158.885 63H160.01V58.194H158.885V63ZM162.638 63.063C163.988 63.063 164.816 62.478 164.816 61.578C164.816 59.697 161.846 60.561 161.846 59.589C161.846 59.274 162.17 59.049 162.854 59.049C163.313 59.049 163.772 59.139 164.231 59.409L164.663 58.554C164.231 58.293 163.502 58.14 162.863 58.14C161.567 58.14 160.748 58.734 160.748 59.643C160.748 61.56 163.718 60.696 163.718 61.614C163.718 61.947 163.421 62.145 162.71 62.145C162.107 62.145 161.459 61.947 161.036 61.668L160.604 62.523C161.036 62.829 161.837 63.063 162.638 63.063ZM168.026 61.938C167.855 62.073 167.63 62.136 167.396 62.136C166.964 62.136 166.73 61.884 166.73 61.416V59.13H168.017V58.23H166.73V57.132H165.605V58.23H164.813V59.13H165.605V61.443C165.605 62.505 166.208 63.063 167.261 63.063C167.666 63.063 168.071 62.955 168.341 62.739L168.026 61.938ZM170.935 63.063C172.429 63.063 173.5 62.037 173.5 60.597C173.5 59.157 172.429 58.14 170.935 58.14C169.459 58.14 168.379 59.157 168.379 60.597C168.379 62.037 169.459 63.063 170.935 63.063ZM170.935 62.1C170.125 62.1 169.513 61.515 169.513 60.597C169.513 59.679 170.125 59.094 170.935 59.094C171.754 59.094 172.366 59.679 172.366 60.597C172.366 61.515 171.754 62.1 170.935 62.1ZM175.313 58.896V58.194H174.242V63H175.367V60.669C175.367 59.688 175.907 59.184 176.762 59.184C176.843 59.184 176.924 59.193 177.023 59.211V58.14C176.222 58.14 175.637 58.392 175.313 58.896ZM181.24 58.194L179.719 61.749L178.207 58.194H177.037L179.134 63.018L179.053 63.207C178.837 63.684 178.603 63.873 178.207 63.873C177.901 63.873 177.595 63.747 177.379 63.54L176.929 64.368C177.235 64.647 177.739 64.809 178.216 64.809C179.017 64.809 179.629 64.476 180.07 63.387L182.32 58.194H181.24Z" fill="#979797"/>
<defs>
<filter id="filter0_d" x="0" y="0" width="299" height="113" filterUnits="userSpaceOnUse" color-interpolation-filters="sRGB">
<feFlood flood-opacity="0" result="BackgroundImageFix"/>
<feColorMatrix in="SourceAlpha" type="matrix" values="0 0 0 0 0 0 0 0 0 0 0 0 0 0 0 0 0 0 127 0"/>
<feOffset dx="4" dy="4"/>
<feGaussianBlur stdDeviation="2"/>
<feColorMatrix type="matrix" values="0 0 0 0 0 0 0 0 0 0 0 0 0 0 0 0 0 0 0.05 0"/>
<feBlend mode="normal" in2="BackgroundImageFix" result="effect1_dropShadow"/>
<feBlend mode="normal" in="SourceGraphic" in2="effect1_dropShadow" result="shape"/>
</filter>
</defs>
</svg>
