<svg width="299" height="113" viewBox="0 0 299 113" fill="none" xmlns="http://www.w3.org/2000/svg">
<g filter="url(#filter0_d)">
<rect width="291" height="105" rx="10" fill="white"/>
<rect x="0.5" y="0.5" width="290" height="104" rx="9.5" stroke="#E6E7E8"/>
</g>
<path d="M94.876 33.4H89.692V46H92.032V42.364H94.876C98.188 42.364 100.24 40.654 100.24 37.882C100.24 35.092 98.188 33.4 94.876 33.4ZM94.768 40.384H92.032V35.38H94.768C96.82 35.38 97.882 36.298 97.882 37.882C97.882 39.466 96.82 40.384 94.768 40.384ZM111.028 41.248C111.028 38.242 108.976 36.28 106.168 36.28C103.306 36.28 101.2 38.332 101.2 41.194C101.2 44.056 103.288 46.126 106.51 46.126C108.166 46.126 109.516 45.586 110.38 44.56L109.174 43.174C108.49 43.876 107.644 44.218 106.564 44.218C104.89 44.218 103.72 43.318 103.45 41.914H110.992C111.01 41.698 111.028 41.428 111.028 41.248ZM106.168 38.08C107.644 38.08 108.706 39.034 108.886 40.42H103.432C103.648 39.016 104.71 38.08 106.168 38.08ZM114.998 37.792V36.388H112.856V46H115.106V41.338C115.106 39.376 116.186 38.368 117.896 38.368C118.058 38.368 118.22 38.386 118.418 38.422V36.28C116.816 36.28 115.646 36.784 114.998 37.792ZM122.999 46.126C125.699 46.126 127.355 44.956 127.355 43.156C127.355 39.394 121.415 41.122 121.415 39.178C121.415 38.548 122.063 38.098 123.431 38.098C124.349 38.098 125.267 38.278 126.185 38.818L127.049 37.108C126.185 36.586 124.727 36.28 123.449 36.28C120.857 36.28 119.219 37.468 119.219 39.286C119.219 43.12 125.159 41.392 125.159 43.228C125.159 43.894 124.565 44.29 123.143 44.29C121.937 44.29 120.641 43.894 119.795 43.336L118.931 45.046C119.795 45.658 121.397 46.126 122.999 46.126ZM133.279 46.126C136.267 46.126 138.409 44.074 138.409 41.194C138.409 38.314 136.267 36.28 133.279 36.28C130.327 36.28 128.167 38.314 128.167 41.194C128.167 44.074 130.327 46.126 133.279 46.126ZM133.279 44.2C131.659 44.2 130.435 43.03 130.435 41.194C130.435 39.358 131.659 38.188 133.279 38.188C134.917 38.188 136.141 39.358 136.141 41.194C136.141 43.03 134.917 44.2 133.279 44.2ZM145.681 36.28C144.277 36.28 143.107 36.748 142.369 37.63V36.388H140.227V46H142.477V41.14C142.477 39.214 143.557 38.242 145.159 38.242C146.599 38.242 147.445 39.07 147.445 40.78V46H149.695V40.492C149.695 37.594 147.985 36.28 145.681 36.28ZM155.888 36.28C154.34 36.28 152.846 36.676 151.82 37.468L152.702 39.106C153.422 38.512 154.538 38.152 155.618 38.152C157.22 38.152 158.012 38.926 158.012 40.24V40.384H155.528C152.612 40.384 151.532 41.644 151.532 43.246C151.532 44.92 152.918 46.126 155.114 46.126C156.554 46.126 157.598 45.658 158.138 44.83V46H160.262V40.366C160.262 37.594 158.66 36.28 155.888 36.28ZM155.582 44.488C154.43 44.488 153.746 43.966 153.746 43.156C153.746 42.454 154.16 41.878 155.69 41.878H158.012V42.994C157.634 43.984 156.68 44.488 155.582 44.488ZM162.816 46H165.066V32.644H162.816V46Z" fill="black"/>
<path d="M93.283 56.7V60.966L89.809 56.7H88.846V63H90.007V58.734L93.481 63H94.444V56.7H93.283ZM97.8508 63.063C99.3448 63.063 100.416 62.037 100.416 60.597C100.416 59.157 99.3448 58.14 97.8508 58.14C96.3748 58.14 95.2948 59.157 95.2948 60.597C95.2948 62.037 96.3748 63.063 97.8508 63.063ZM97.8508 62.1C97.0408 62.1 96.4288 61.515 96.4288 60.597C96.4288 59.679 97.0408 59.094 97.8508 59.094C98.6698 59.094 99.2818 59.679 99.2818 60.597C99.2818 61.515 98.6698 62.1 97.8508 62.1ZM109.81 58.194L108.505 61.758L107.209 58.194H106.264L104.941 61.74L103.672 58.194H102.61L104.374 63H105.454L106.714 59.688L107.956 63H109.036L110.809 58.194H109.81ZM112.936 58.14C112.162 58.14 111.415 58.338 110.902 58.734L111.343 59.553C111.703 59.256 112.261 59.076 112.801 59.076C113.602 59.076 113.998 59.463 113.998 60.12V60.192H112.756C111.298 60.192 110.758 60.822 110.758 61.623C110.758 62.46 111.451 63.063 112.549 63.063C113.269 63.063 113.791 62.829 114.061 62.415V63H115.123V60.183C115.123 58.797 114.322 58.14 112.936 58.14ZM112.783 62.244C112.207 62.244 111.865 61.983 111.865 61.578C111.865 61.227 112.072 60.939 112.837 60.939H113.998V61.497C113.809 61.992 113.332 62.244 112.783 62.244ZM116.233 63H117.358V56.322H116.233V63ZM118.502 63H119.627V56.322H118.502V63ZM125.288 60.624C125.288 59.121 124.262 58.14 122.858 58.14C121.427 58.14 120.374 59.166 120.374 60.597C120.374 62.028 121.418 63.063 123.029 63.063C123.857 63.063 124.532 62.793 124.964 62.28L124.361 61.587C124.019 61.938 123.596 62.109 123.056 62.109C122.219 62.109 121.634 61.659 121.499 60.957H125.27C125.279 60.849 125.288 60.714 125.288 60.624ZM122.858 59.04C123.596 59.04 124.127 59.517 124.217 60.21H121.49C121.598 59.508 122.129 59.04 122.858 59.04ZM128.609 61.938C128.438 62.073 128.213 62.136 127.979 62.136C127.547 62.136 127.313 61.884 127.313 61.416V59.13H128.6V58.23H127.313V57.132H126.188V58.23H125.396V59.13H126.188V61.443C126.188 62.505 126.791 63.063 127.844 63.063C128.249 63.063 128.654 62.955 128.924 62.739L128.609 61.938ZM133.155 63.063C134.505 63.063 135.333 62.478 135.333 61.578C135.333 59.697 132.363 60.561 132.363 59.589C132.363 59.274 132.687 59.049 133.371 59.049C133.83 59.049 134.289 59.139 134.748 59.409L135.18 58.554C134.748 58.293 134.019 58.14 133.38 58.14C132.084 58.14 131.265 58.734 131.265 59.643C131.265 61.56 134.235 60.696 134.235 61.614C134.235 61.947 133.938 62.145 133.227 62.145C132.624 62.145 131.976 61.947 131.553 61.668L131.121 62.523C131.553 62.829 132.354 63.063 133.155 63.063ZM139.301 58.194L137.78 61.749L136.268 58.194H135.098L137.195 63.018L137.114 63.207C136.898 63.684 136.664 63.873 136.268 63.873C135.962 63.873 135.656 63.747 135.44 63.54L134.99 64.368C135.296 64.647 135.8 64.809 136.277 64.809C137.078 64.809 137.69 64.476 138.131 63.387L140.381 58.194H139.301ZM142.174 63.063C143.524 63.063 144.352 62.478 144.352 61.578C144.352 59.697 141.382 60.561 141.382 59.589C141.382 59.274 141.706 59.049 142.39 59.049C142.849 59.049 143.308 59.139 143.767 59.409L144.199 58.554C143.767 58.293 143.038 58.14 142.399 58.14C141.103 58.14 140.284 58.734 140.284 59.643C140.284 61.56 143.254 60.696 143.254 61.614C143.254 61.947 142.957 62.145 142.246 62.145C141.643 62.145 140.995 61.947 140.572 61.668L140.14 62.523C140.572 62.829 141.373 63.063 142.174 63.063ZM147.562 61.938C147.391 62.073 147.166 62.136 146.932 62.136C146.5 62.136 146.266 61.884 146.266 61.416V59.13H147.553V58.23H146.266V57.132H145.141V58.23H144.349V59.13H145.141V61.443C145.141 62.505 145.744 63.063 146.797 63.063C147.202 63.063 147.607 62.955 147.877 62.739L147.562 61.938ZM152.829 60.624C152.829 59.121 151.803 58.14 150.399 58.14C148.968 58.14 147.915 59.166 147.915 60.597C147.915 62.028 148.959 63.063 150.57 63.063C151.398 63.063 152.073 62.793 152.505 62.28L151.902 61.587C151.56 61.938 151.137 62.109 150.597 62.109C149.76 62.109 149.175 61.659 149.04 60.957H152.811C152.82 60.849 152.829 60.714 152.829 60.624ZM150.399 59.04C151.137 59.04 151.668 59.517 151.758 60.21H149.031C149.139 59.508 149.67 59.04 150.399 59.04ZM159.642 58.14C158.877 58.14 158.229 58.446 157.842 58.941C157.509 58.401 156.924 58.14 156.222 58.14C155.565 58.14 155.007 58.374 154.647 58.806V58.194H153.576V63H154.701V60.561C154.701 59.607 155.205 59.121 155.952 59.121C156.636 59.121 157.032 59.535 157.032 60.39V63H158.157V60.561C158.157 59.607 158.67 59.121 159.408 59.121C160.092 59.121 160.488 59.535 160.488 60.39V63H161.613V60.246C161.613 58.797 160.803 58.14 159.642 58.14ZM163.086 61.569C162.672 61.569 162.357 61.866 162.357 62.316C162.357 62.64 162.528 62.874 162.78 62.982L162.42 64.359H163.149L163.608 63.09C163.77 62.676 163.815 62.514 163.815 62.316C163.815 61.875 163.509 61.569 163.086 61.569ZM167.302 57.402C167.725 57.402 168.022 57.096 168.022 56.7C168.022 56.331 167.716 56.052 167.302 56.052C166.888 56.052 166.582 56.349 166.582 56.727C166.582 57.105 166.888 57.402 167.302 57.402ZM166.735 63H167.86V58.194H166.735V63ZM171.73 58.14C171.028 58.14 170.443 58.374 170.074 58.815V58.194H169.003V63H170.128V60.57C170.128 59.607 170.668 59.121 171.469 59.121C172.189 59.121 172.612 59.535 172.612 60.39V63H173.737V60.246C173.737 58.797 172.882 58.14 171.73 58.14ZM176.316 63.063C177.666 63.063 178.494 62.478 178.494 61.578C178.494 59.697 175.524 60.561 175.524 59.589C175.524 59.274 175.848 59.049 176.532 59.049C176.991 59.049 177.45 59.139 177.909 59.409L178.341 58.554C177.909 58.293 177.18 58.14 176.541 58.14C175.245 58.14 174.426 58.734 174.426 59.643C174.426 61.56 177.396 60.696 177.396 61.614C177.396 61.947 177.099 62.145 176.388 62.145C175.785 62.145 175.137 61.947 174.714 61.668L174.282 62.523C174.714 62.829 175.515 63.063 176.316 63.063ZM181.704 61.938C181.533 62.073 181.308 62.136 181.074 62.136C180.642 62.136 180.408 61.884 180.408 61.416V59.13H181.695V58.23H180.408V57.132H179.283V58.23H178.491V59.13H179.283V61.443C179.283 62.505 179.886 63.063 180.939 63.063C181.344 63.063 181.749 62.955 182.019 62.739L181.704 61.938ZM184.447 58.14C183.673 58.14 182.926 58.338 182.413 58.734L182.854 59.553C183.214 59.256 183.772 59.076 184.312 59.076C185.113 59.076 185.509 59.463 185.509 60.12V60.192H184.267C182.809 60.192 182.269 60.822 182.269 61.623C182.269 62.46 182.962 63.063 184.06 63.063C184.78 63.063 185.302 62.829 185.572 62.415V63H186.634V60.183C186.634 58.797 185.833 58.14 184.447 58.14ZM184.294 62.244C183.718 62.244 183.376 61.983 183.376 61.578C183.376 61.227 183.583 60.939 184.348 60.939H185.509V61.497C185.32 61.992 184.843 62.244 184.294 62.244ZM190.471 58.14C189.769 58.14 189.184 58.374 188.815 58.815V58.194H187.744V63H188.869V60.57C188.869 59.607 189.409 59.121 190.21 59.121C190.93 59.121 191.353 59.535 191.353 60.39V63H192.478V60.246C192.478 58.797 191.623 58.14 190.471 58.14ZM196.146 61.938C195.975 62.073 195.75 62.136 195.516 62.136C195.084 62.136 194.85 61.884 194.85 61.416V59.13H196.137V58.23H194.85V57.132H193.725V58.23H192.933V59.13H193.725V61.443C193.725 62.505 194.328 63.063 195.381 63.063C195.786 63.063 196.191 62.955 196.461 62.739L196.146 61.938ZM201.871 58.14C201.214 58.14 200.656 58.365 200.278 58.824V58.194H199.207V64.746H200.332V62.415C200.719 62.856 201.259 63.063 201.871 63.063C203.275 63.063 204.31 62.091 204.31 60.597C204.31 59.112 203.275 58.14 201.871 58.14ZM201.745 62.1C200.935 62.1 200.314 61.515 200.314 60.597C200.314 59.679 200.935 59.094 201.745 59.094C202.555 59.094 203.167 59.679 203.167 60.597C203.167 61.515 202.555 62.1 201.745 62.1ZM206.818 58.14C206.044 58.14 205.297 58.338 204.784 58.734L205.225 59.553C205.585 59.256 206.143 59.076 206.683 59.076C207.484 59.076 207.88 59.463 207.88 60.12V60.192H206.638C205.18 60.192 204.64 60.822 204.64 61.623C204.64 62.46 205.333 63.063 206.431 63.063C207.151 63.063 207.673 62.829 207.943 62.415V63H209.005V60.183C209.005 58.797 208.204 58.14 206.818 58.14ZM206.665 62.244C206.089 62.244 205.747 61.983 205.747 61.578C205.747 61.227 205.954 60.939 206.719 60.939H207.88V61.497C207.691 61.992 207.214 62.244 206.665 62.244ZM213.448 58.194L211.927 61.749L210.415 58.194H209.245L211.342 63.018L211.261 63.207C211.045 63.684 210.811 63.873 210.415 63.873C210.109 63.873 209.803 63.747 209.587 63.54L209.137 64.368C209.443 64.647 209.947 64.809 210.424 64.809C211.225 64.809 211.837 64.476 212.278 63.387L214.528 58.194H213.448ZM220.964 58.14C220.199 58.14 219.551 58.446 219.164 58.941C218.831 58.401 218.246 58.14 217.544 58.14C216.887 58.14 216.329 58.374 215.969 58.806V58.194H214.898V63H216.023V60.561C216.023 59.607 216.527 59.121 217.274 59.121C217.958 59.121 218.354 59.535 218.354 60.39V63H219.479V60.561C219.479 59.607 219.992 59.121 220.73 59.121C221.414 59.121 221.81 59.535 221.81 60.39V63H222.935V60.246C222.935 58.797 222.125 58.14 220.964 58.14ZM228.601 60.624C228.601 59.121 227.575 58.14 226.171 58.14C224.74 58.14 223.687 59.166 223.687 60.597C223.687 62.028 224.731 63.063 226.342 63.063C227.17 63.063 227.845 62.793 228.277 62.28L227.674 61.587C227.332 61.938 226.909 62.109 226.369 62.109C225.532 62.109 224.947 61.659 224.812 60.957H228.583C228.592 60.849 228.601 60.714 228.601 60.624ZM226.171 59.04C226.909 59.04 227.44 59.517 227.53 60.21H224.803C224.911 59.508 225.442 59.04 226.171 59.04ZM232.075 58.14C231.373 58.14 230.788 58.374 230.419 58.815V58.194H229.348V63H230.473V60.57C230.473 59.607 231.013 59.121 231.814 59.121C232.534 59.121 232.957 59.535 232.957 60.39V63H234.082V60.246C234.082 58.797 233.227 58.14 232.075 58.14ZM237.75 61.938C237.579 62.073 237.354 62.136 237.12 62.136C236.688 62.136 236.454 61.884 236.454 61.416V59.13H237.741V58.23H236.454V57.132H235.329V58.23H234.537V59.13H235.329V61.443C235.329 62.505 235.932 63.063 236.985 63.063C237.39 63.063 237.795 62.955 238.065 62.739L237.75 61.938Z" fill="#979797"/>
<path d="M50.3096 46.6401C53.42 46.6401 56.1129 45.5246 58.3139 43.3236C60.5141 41.123 61.63 38.4304 61.63 35.3197C61.63 32.2101 60.5145 29.5171 58.3135 27.3158C56.1125 25.1155 53.4196 24 50.3096 24C47.1989 24 44.5063 25.1155 42.3057 27.3162C40.1051 29.5168 38.9892 32.2097 38.9892 35.3197C38.9892 38.4304 40.1051 41.1233 42.3057 43.324C44.507 45.5242 47.2 46.6401 50.3096 46.6401ZM44.2535 29.2636C45.9421 27.5751 47.9229 26.7543 50.3096 26.7543C52.696 26.7543 54.6771 27.5751 56.3661 29.2636C58.0546 30.9525 58.8758 32.9337 58.8758 35.3197C58.8758 37.7064 58.0546 39.6872 56.3661 41.3761C54.6771 43.0651 52.696 43.8859 50.3096 43.8859C47.9236 43.8859 45.9428 43.0647 44.2535 41.3761C42.5646 39.6876 41.7435 37.7064 41.7435 35.3197C41.7435 32.9337 42.5646 30.9525 44.2535 29.2636Z" fill="#D0AA2B"/>
<path d="M70.1173 60.1407C70.0538 59.2249 69.9255 58.2259 69.7365 57.171C69.5457 56.1081 69.3001 55.1034 69.0061 54.185C68.702 53.2359 68.2893 52.2985 67.7783 51.4003C67.2486 50.468 66.6262 49.6562 65.9276 48.9881C65.1972 48.2892 64.3029 47.7273 63.2688 47.3175C62.2382 46.9098 61.0961 46.7032 59.8744 46.7032C59.3946 46.7032 58.9306 46.9001 58.0345 47.4835C57.483 47.8432 56.838 48.2591 56.1179 48.7192C55.5022 49.1115 54.6682 49.479 53.638 49.8118C52.6329 50.137 51.6123 50.302 50.6047 50.302C49.5978 50.302 48.5773 50.137 47.5715 49.8118C46.5424 49.4794 45.7079 49.1118 45.0933 48.7195C44.3801 48.2638 43.7347 47.8478 43.1749 47.4832C42.2795 46.8997 41.8155 46.7029 41.3358 46.7029C40.1137 46.7029 38.972 46.9098 37.9418 47.3178C36.9083 47.727 36.0137 48.2889 35.2825 48.9885C34.584 49.6569 33.9615 50.4683 33.4323 51.4003C32.922 52.2985 32.5089 53.2355 32.2048 54.1854C31.9112 55.1037 31.6655 56.1081 31.4748 57.171C31.2854 58.2245 31.1574 59.2238 31.0939 60.1418C31.0316 61.0393 31 61.9734 31 62.9172C31 65.3706 31.7799 67.3568 33.3179 68.8216C34.8368 70.2671 36.8463 71 39.2908 71H61.9216C64.3653 71 66.3748 70.2671 67.8941 68.8216C69.4324 67.3579 70.2123 65.371 70.2123 62.9169C70.212 61.9698 70.1801 61.0357 70.1173 60.1407ZM65.995 66.8261C64.9914 67.7814 63.6589 68.2457 61.9212 68.2457H39.2908C37.5527 68.2457 36.2202 67.7814 35.2169 66.8265C34.2326 65.8895 33.7543 64.6104 33.7543 62.9172C33.7543 62.0365 33.7833 61.167 33.8414 60.3322C33.8981 59.5132 34.0139 58.6135 34.1856 57.6575C34.3552 56.7134 34.5711 55.8273 34.8279 55.0252C35.0742 54.256 35.4102 53.4944 35.8269 52.7608C36.2245 52.0615 36.6821 51.4616 37.187 50.9782C37.6592 50.5261 38.2545 50.156 38.9558 49.8785C39.6045 49.6217 40.3335 49.4812 41.1249 49.46C41.2214 49.5113 41.3931 49.6092 41.6714 49.7906C42.2376 50.1596 42.8902 50.5806 43.6117 51.0414C44.4249 51.5599 45.4727 52.0282 46.7245 52.4323C48.0043 52.8461 49.3095 53.0562 50.6051 53.0562C51.9006 53.0562 53.2062 52.8461 54.4853 52.4327C55.7382 52.0278 56.7856 51.5599 57.5999 51.0406C58.3383 50.5687 58.9726 50.16 59.5388 49.7906C59.817 49.6095 59.9888 49.5113 60.0853 49.46C60.877 49.4812 61.606 49.6217 62.255 49.8785C62.9561 50.156 63.5513 50.5264 64.0236 50.9782C64.5285 51.4613 64.986 52.0612 65.3837 52.7611C65.8007 53.4944 66.137 54.2564 66.383 55.0248C66.6401 55.8281 66.8564 56.7138 67.0256 57.6572C67.197 58.615 67.3132 59.515 67.3699 60.3326V60.3333C67.4283 61.1648 67.4577 62.034 67.4581 62.9172C67.4577 64.6108 66.9794 65.8895 65.995 66.8261Z" fill="#D0AA2B"/>
<defs>
<filter id="filter0_d" x="0" y="0" width="299" height="113" filterUnits="userSpaceOnUse" color-interpolation-filters="sRGB">
<feFlood flood-opacity="0" result="BackgroundImageFix"/>
<feColorMatrix in="SourceAlpha" type="matrix" values="0 0 0 0 0 0 0 0 0 0 0 0 0 0 0 0 0 0 127 0"/>
<feOffset dx="4" dy="4"/>
<feGaussianBlur stdDeviation="2"/>
<feColorMatrix type="matrix" values="0 0 0 0 0 0 0 0 0 0 0 0 0 0 0 0 0 0 0.05 0"/>
<feBlend mode="normal" in2="BackgroundImageFix" result="effect1_dropShadow"/>
<feBlend mode="normal" in="SourceGraphic" in2="effect1_dropShadow" result="shape"/>
</filter>
</defs>
</svg>
