<svg width="108" height="108" viewBox="0 0 108 108" fill="none" xmlns="http://www.w3.org/2000/svg">
<g filter="url(#filter0_d)">
<rect x="4" width="100" height="100" rx="8" fill="white"/>
</g>
<path d="M31.0087 81.6H27.7327V90H28.9327V87.456H31.0087C33.1927 87.456 34.5127 86.352 34.5127 84.528C34.5127 82.704 33.1927 81.6 31.0087 81.6ZM30.9727 86.412H28.9327V82.644H30.9727C32.5087 82.644 33.3127 83.328 33.3127 84.528C33.3127 85.728 32.5087 86.412 30.9727 86.412ZM37.1062 84.708V83.64H36.0022V90H37.1542V86.832C37.1542 85.44 37.9222 84.684 39.1582 84.684C39.2422 84.684 39.3262 84.684 39.4222 84.696V83.58C38.3062 83.58 37.5142 83.964 37.1062 84.708ZM43.5074 90.072C45.4154 90.072 46.8074 88.716 46.8074 86.82C46.8074 84.924 45.4154 83.58 43.5074 83.58C41.5994 83.58 40.1954 84.924 40.1954 86.82C40.1954 88.716 41.5994 90.072 43.5074 90.072ZM43.5074 89.064C42.2834 89.064 41.3594 88.176 41.3594 86.82C41.3594 85.464 42.2834 84.588 43.5074 84.588C44.7314 84.588 45.6434 85.464 45.6434 86.82C45.6434 88.176 44.7314 89.064 43.5074 89.064ZM53.2486 81.096V84.6C52.7206 83.916 51.9286 83.58 51.0286 83.58C49.1686 83.58 47.8126 84.876 47.8126 86.82C47.8126 88.764 49.1686 90.072 51.0286 90.072C51.9646 90.072 52.7806 89.712 53.2966 88.992V90H54.4006V81.096H53.2486ZM51.1246 89.064C49.9006 89.064 48.9766 88.176 48.9766 86.82C48.9766 85.464 49.9006 84.588 51.1246 84.588C52.3366 84.588 53.2606 85.464 53.2606 86.82C53.2606 88.176 52.3366 89.064 51.1246 89.064ZM61.3563 83.64V86.928C61.3563 88.296 60.5883 89.04 59.3883 89.04C58.2963 89.04 57.6723 88.416 57.6723 87.168V83.64H56.5203V87.3C56.5203 89.172 57.6123 90.072 59.2563 90.072C60.1563 90.072 60.9483 89.7 61.4163 89.04V90H62.5083V83.64H61.3563ZM67.4734 90.072C68.6134 90.072 69.5614 89.592 70.0654 88.704L69.1894 88.152C68.7814 88.776 68.1574 89.064 67.4614 89.064C66.2134 89.064 65.2774 88.2 65.2774 86.82C65.2774 85.464 66.2134 84.588 67.4614 84.588C68.1574 84.588 68.7814 84.876 69.1894 85.5L70.0654 84.936C69.5614 84.048 68.6134 83.58 67.4734 83.58C65.5174 83.58 64.1134 84.924 64.1134 86.82C64.1134 88.716 65.5174 90.072 67.4734 90.072ZM74.8549 88.8C74.6149 88.992 74.2909 89.1 73.9549 89.1C73.3189 89.1 72.9589 88.716 72.9589 88.032V84.588H74.7829V83.64H72.9589V82.248H71.8069V83.64H70.7269V84.588H71.8069V88.08C71.8069 89.364 72.5389 90.072 73.8229 90.072C74.3389 90.072 74.8669 89.928 75.2149 89.628L74.8549 88.8ZM78.4316 90.072C80.1236 90.072 81.1796 89.34 81.1796 88.188C81.1796 85.716 77.1476 86.94 77.1476 85.44C77.1476 84.936 77.6396 84.564 78.6476 84.564C79.2716 84.564 79.9076 84.696 80.4836 85.068L80.9756 84.156C80.4236 83.796 79.4876 83.58 78.6596 83.58C77.0276 83.58 76.0076 84.348 76.0076 85.488C76.0076 88.02 80.0276 86.784 80.0276 88.212C80.0276 88.752 79.5836 89.076 78.5156 89.076C77.6876 89.076 76.8236 88.8 76.2836 88.416L75.8036 89.328C76.3316 89.748 77.3756 90.072 78.4316 90.072Z" fill="black"/>
<path d="M89.283 35.9992C89.283 36.6327 89.2662 37.2624 89.233 37.8877C88.2519 56.3392 72.9789 67.8294 54.2829 67.8294C34.9534 67.8294 22.615 55.6574 22.615 36.3279C22.615 30.6549 20.6343 24.9686 23.0302 20.2297C28.7977 8.82162 40.6274 1 54.2839 1C73.6134 1 89.283 16.6698 89.283 35.9992Z" fill="#3342AA"/>
<path d="M89.2786 36.3461C87.744 34.5699 85.4921 33.5059 83.0741 33.5059H75.5803C69.9252 33.5059 65.3408 28.9216 65.3408 23.2665V17.4052C65.3408 16.2101 66.3188 15.2682 67.5137 15.2531C68.7844 15.2368 69.4832 13.7493 68.6701 12.7607C67.9342 11.8661 61.4376 3.96764 60.3336 2.6254C59.2698 1.33206 57.2898 1.33206 56.226 2.6254C47.4354 13.3568 47.7195 12.8191 47.5867 13.3745C47.3623 14.3196 48.0683 15.2534 49.0667 15.2534H51.2186V23.1312C51.2186 28.8239 46.5606 33.5658 40.8681 33.5054C35.1106 33.4444 30.5125 28.6409 30.7462 22.8734C30.7504 22.7729 30.7548 22.6722 30.7598 22.5717C30.9758 18.176 25.1671 16.5555 23.0317 20.2302C22.3326 21.613 21.7468 22.9949 21.2418 24.4382C20.0126 27.9739 19.3574 31.6816 19.2921 35.4077C19.2913 35.456 19.2908 35.5045 19.2903 35.5528C19.1635 45.0209 22.8528 54.1822 29.7626 60.9689C33.1262 64.2724 37.1535 66.9017 41.627 68.6378C63.9101 77.2849 89.0367 61.215 89.2786 36.3461Z" fill="#2B3890"/>
<path d="M43.6722 15.4847C43.5082 15.8639 43.5056 16.2986 43.6722 16.688V15.4847Z" fill="#F5415F"/>
<path d="M63.4969 17.6139C64.0867 17.6139 64.6235 17.2737 64.8753 16.7406C65.1271 16.2073 65.0488 15.5767 64.6742 15.1213L58.2798 7.34729L50.0376 14.7656L55.2147 31.088H61.3449V17.6139H63.4969Z" fill="#F5415F"/>
<path d="M53.0627 17.6138C52.473 17.6138 51.9362 17.2736 51.6844 16.7405C51.4326 16.2073 51.5108 15.5766 51.8854 15.1212L58.2798 7.34725L56.3376 4.98599C55.2738 3.69266 53.2938 3.69266 52.23 4.98599L43.8935 15.1212C43.519 15.5766 43.4407 16.2073 43.6925 16.7405C43.9443 17.2738 44.4811 17.6138 45.0708 17.6138H47.2228V31.088H55.2148V17.6138H53.0627Z" fill="#CD2846"/>
<path d="M34.1581 35.8665H65.9172V67.4575H34.1581V35.8665Z" fill="#ECD833"/>
<path d="M71.3418 35.8665H84.2665V67.8292H71.3418V35.8665Z" fill="#ECC32E"/>
<path d="M72.6525 62.2108V35.8665H65.9172V70.9984H84.2665V66.7306H77.1722C74.676 66.7305 72.6525 64.707 72.6525 62.2108Z" fill="#DAB72B"/>
<path d="M57.552 50.9178C58.6135 50.9178 59.5951 50.3544 60.1305 49.4377L65.9172 39.5297V35.8665L34.9413 37.2577V35.8665H25.7666V70.9984H65.9171V66.7306H63.3708C61.7216 66.7306 60.3846 65.3936 60.3846 63.7444H47.5152C47.5152 65.3936 46.1783 66.7306 44.529 66.7306H37.9273C36.2781 66.7306 34.9412 65.3936 34.9412 63.7444V53.904C34.9412 52.2548 36.2781 50.9178 37.9273 50.9178H57.552Z" fill="#ECC32E"/>
<path d="M59.1188 66.046H48.7811C48.082 66.046 47.5153 65.4792 47.5153 64.7801V58.107C47.5153 57.4079 48.082 56.8412 48.7811 56.8412H59.1188C59.8179 56.8412 60.3846 57.4079 60.3846 58.107V64.7801C60.3848 65.4792 59.818 66.046 59.1188 66.046Z" fill="#8659B9"/>
<path d="M59.3192 47.1636L65.9172 35.8665H29.9106V47.1636H59.3192Z" fill="#F6E738"/>
<path d="M30.9911 40.1474L33.4914 35.8665H25.7666L18 49.1645H58.1505L59.6004 46.682H34.7421C31.3885 46.682 29.2998 43.0432 30.9911 40.1474Z" fill="#ECD833"/>
<path d="M73.5085 47.1636H89.6194L84.2664 35.8665H73.5085V47.1636Z" fill="#DAB72B"/>
<path d="M77.5607 43.5368L73.9262 35.8665H65.9174L72.2186 49.1645H90.5679L89.3915 46.682H82.5314C80.4058 46.682 78.4708 45.4575 77.5607 43.5368Z" fill="#E49824"/>
<defs>
<filter id="filter0_d" x="0" y="0" width="108" height="108" filterUnits="userSpaceOnUse" color-interpolation-filters="sRGB">
<feFlood flood-opacity="0" result="BackgroundImageFix"/>
<feColorMatrix in="SourceAlpha" type="matrix" values="0 0 0 0 0 0 0 0 0 0 0 0 0 0 0 0 0 0 127 0"/>
<feOffset dy="4"/>
<feGaussianBlur stdDeviation="2"/>
<feColorMatrix type="matrix" values="0 0 0 0 0 0 0 0 0 0 0 0 0 0 0 0 0 0 0.05 0"/>
<feBlend mode="normal" in2="BackgroundImageFix" result="effect1_dropShadow"/>
<feBlend mode="normal" in="SourceGraphic" in2="effect1_dropShadow" result="shape"/>
</filter>
</defs>
</svg>
