<svg width="299" height="113" viewBox="0 0 299 113" fill="none" xmlns="http://www.w3.org/2000/svg">
<g filter="url(#filter0_d)">
<rect width="291" height="105" rx="10" fill="white"/>
<rect x="0.5" y="0.5" width="290" height="104" rx="9.5" stroke="#E6E7E8"/>
</g>
<path d="M62.5304 40.3996L39.9702 32.4095L17.41 40.3996V68.5998L39.9702 76.5899L62.5304 68.5998V40.3996Z" fill="white"/>
<path d="M62.5304 40.3996L39.9702 32.4095L17.41 40.3996V68.5998L39.9702 76.5899L62.5304 68.5998V40.3996ZM62.5304 40.3996L39.9702 32.4095L62.5304 40.3996Z" fill="white"/>
<path d="M39.9702 77.9991C39.8292 77.9991 39.6412 77.9521 39.5002 77.9051L16.94 69.915C16.376 69.727 16 69.163 16 68.599V40.3988C16 39.7878 16.376 39.2708 16.94 39.0828L39.5002 31.0927C40.2522 30.8107 41.0512 31.2337 41.2862 31.9387C41.5682 32.6907 41.1452 33.4897 40.4402 33.7247L18.82 41.3858V67.612L40.4402 75.2731C41.1922 75.5551 41.5682 76.3541 41.2862 77.0591C41.0982 77.6231 40.5342 77.9991 39.9702 77.9991Z" fill="#D0AA2B"/>
<path d="M62.5304 40.3996L39.9702 32.4095L62.5304 40.3996ZM62.5304 40.3996L39.9702 32.4095L62.5304 40.3996Z" fill="white"/>
<path d="M63.9404 40.3527C63.9404 40.3057 63.9404 40.2117 63.9404 40.1647V40.1177C63.8464 39.6477 63.5174 39.2247 63.0474 39.0837L51.7673 35.0887H51.7203C51.4383 34.9947 51.0623 34.9477 50.7333 35.0887L28.6901 42.8437C28.1261 43.0317 27.7501 43.5957 27.7501 44.1597V49.3298C27.7501 50.1288 28.3611 50.7398 29.1601 50.7398C29.9591 50.7398 30.5701 50.1288 30.5701 49.3298V45.1467L51.1563 37.8617L58.3003 40.3997L39.5002 47.0738C38.9362 47.2618 38.5602 47.7788 38.5602 48.3898C38.5602 48.3898 38.5602 48.3898 38.5602 48.4368V74.663L18.82 67.6129V41.3867L40.4402 33.7256C41.1922 33.4436 41.5682 32.6446 41.2862 31.9396C41.0042 31.1876 40.2052 30.8116 39.5002 31.0936L16.94 39.0837C16.376 39.2717 16 39.8357 16 40.3997V68.5999C16 69.2109 16.376 69.7279 16.94 69.9159L39.5002 77.906C39.6412 77.953 39.8292 78 39.9702 78C40.1112 78 40.2992 77.953 40.4402 77.906L63.0004 69.9159C63.5644 69.7279 63.9404 69.1639 63.9404 68.5999V40.3527C63.9404 40.3997 63.9404 40.3527 63.9404 40.3527ZM61.1204 67.6129L41.3802 74.616V49.3768L61.1204 42.3737V67.6129Z" fill="#D0AA2B"/>
<path d="M93.598 46.18C97.054 46.18 98.692 44.452 98.692 42.436C98.692 37.81 91.222 39.556 91.222 36.874C91.222 35.92 92.014 35.164 93.958 35.164C95.056 35.164 96.298 35.488 97.432 36.154L98.17 34.336C97.072 33.616 95.488 33.22 93.976 33.22C90.52 33.22 88.9 34.948 88.9 36.982C88.9 41.662 96.388 39.88 96.388 42.598C96.388 43.534 95.56 44.236 93.598 44.236C92.05 44.236 90.448 43.66 89.44 42.85L88.63 44.668C89.674 45.568 91.636 46.18 93.598 46.18ZM109.499 41.248C109.499 38.242 107.447 36.28 104.639 36.28C101.777 36.28 99.671 38.332 99.671 41.194C99.671 44.056 101.759 46.126 104.981 46.126C106.637 46.126 107.987 45.586 108.851 44.56L107.645 43.174C106.961 43.876 106.115 44.218 105.035 44.218C103.361 44.218 102.191 43.318 101.921 41.914H109.463C109.481 41.698 109.499 41.428 109.499 41.248ZM104.639 38.08C106.115 38.08 107.177 39.034 107.357 40.42H101.903C102.119 39.016 103.181 38.08 104.639 38.08ZM116.781 36.28C115.377 36.28 114.207 36.748 113.469 37.63V36.388H111.327V46H113.577V41.14C113.577 39.214 114.657 38.242 116.259 38.242C117.699 38.242 118.545 39.07 118.545 40.78V46H120.795V40.492C120.795 37.594 119.085 36.28 116.781 36.28ZM130.568 32.644V37.576C129.812 36.694 128.714 36.28 127.472 36.28C124.682 36.28 122.612 38.206 122.612 41.194C122.612 44.182 124.682 46.126 127.472 46.126C128.786 46.126 129.902 45.676 130.658 44.758V46H132.818V32.644H130.568ZM127.742 44.2C126.122 44.2 124.88 43.03 124.88 41.194C124.88 39.358 126.122 38.188 127.742 38.188C129.362 38.188 130.604 39.358 130.604 41.194C130.604 43.03 129.362 44.2 127.742 44.2ZM138.053 47.8H140.069L146.009 30.844H143.993L138.053 47.8ZM162.037 46L159.139 41.86C160.849 41.194 161.821 39.79 161.821 37.882C161.821 35.092 159.769 33.4 156.457 33.4H151.273V46H153.613V42.328H156.457C156.619 42.328 156.781 42.328 156.943 42.31L159.517 46H162.037ZM159.463 37.882C159.463 39.466 158.401 40.402 156.349 40.402H153.613V35.38H156.349C158.401 35.38 159.463 36.298 159.463 37.882ZM172.925 41.248C172.925 38.242 170.873 36.28 168.065 36.28C165.203 36.28 163.097 38.332 163.097 41.194C163.097 44.056 165.185 46.126 168.407 46.126C170.063 46.126 171.413 45.586 172.277 44.56L171.071 43.174C170.387 43.876 169.541 44.218 168.461 44.218C166.787 44.218 165.617 43.318 165.347 41.914H172.889C172.907 41.698 172.925 41.428 172.925 41.248ZM168.065 38.08C169.541 38.08 170.603 39.034 170.783 40.42H165.329C165.545 39.016 166.607 38.08 168.065 38.08ZM179.163 46.126C181.035 46.126 182.529 45.316 183.267 43.876L181.539 42.868C180.963 43.786 180.099 44.2 179.145 44.2C177.489 44.2 176.229 43.066 176.229 41.194C176.229 39.34 177.489 38.188 179.145 38.188C180.099 38.188 180.963 38.602 181.539 39.52L183.267 38.512C182.529 37.054 181.035 36.28 179.163 36.28C176.121 36.28 173.961 38.314 173.961 41.194C173.961 44.074 176.121 46.126 179.163 46.126ZM193.774 41.248C193.774 38.242 191.722 36.28 188.914 36.28C186.052 36.28 183.946 38.332 183.946 41.194C183.946 44.056 186.034 46.126 189.256 46.126C190.912 46.126 192.262 45.586 193.126 44.56L191.92 43.174C191.236 43.876 190.39 44.218 189.31 44.218C187.636 44.218 186.466 43.318 186.196 41.914H193.738C193.756 41.698 193.774 41.428 193.774 41.248ZM188.914 38.08C190.39 38.08 191.452 39.034 191.632 40.42H186.178C186.394 39.016 187.456 38.08 188.914 38.08ZM196.736 34.804C197.582 34.804 198.176 34.192 198.176 33.4C198.176 32.662 197.564 32.104 196.736 32.104C195.908 32.104 195.296 32.698 195.296 33.454C195.296 34.21 195.908 34.804 196.736 34.804ZM195.602 46H197.852V36.388H195.602V46ZM207.312 36.388L204.234 43.516L201.246 36.388H198.906L203.028 46H205.35L209.472 36.388H207.312ZM219.317 41.248C219.317 38.242 217.265 36.28 214.457 36.28C211.595 36.28 209.489 38.332 209.489 41.194C209.489 44.056 211.577 46.126 214.799 46.126C216.455 46.126 217.805 45.586 218.669 44.56L217.463 43.174C216.779 43.876 215.933 44.218 214.853 44.218C213.179 44.218 212.009 43.318 211.739 41.914H219.281C219.299 41.698 219.317 41.428 219.317 41.248ZM214.457 38.08C215.933 38.08 216.995 39.034 217.175 40.42H211.721C211.937 39.016 212.999 38.08 214.457 38.08Z" fill="black"/>
<path d="M91.438 56.7H88.846V63H90.016V61.182H91.438C93.094 61.182 94.12 60.327 94.12 58.941C94.12 57.546 93.094 56.7 91.438 56.7ZM91.384 60.192H90.016V57.69H91.384C92.41 57.69 92.941 58.149 92.941 58.941C92.941 59.733 92.41 60.192 91.384 60.192ZM96.6391 58.14C95.8651 58.14 95.1181 58.338 94.6051 58.734L95.0461 59.553C95.4061 59.256 95.9641 59.076 96.5041 59.076C97.3051 59.076 97.7011 59.463 97.7011 60.12V60.192H96.4591C95.0011 60.192 94.4611 60.822 94.4611 61.623C94.4611 62.46 95.1541 63.063 96.2521 63.063C96.9721 63.063 97.4941 62.829 97.7641 62.415V63H98.8261V60.183C98.8261 58.797 98.0251 58.14 96.6391 58.14ZM96.4861 62.244C95.9101 62.244 95.5681 61.983 95.5681 61.578C95.5681 61.227 95.7751 60.939 96.5401 60.939H97.7011V61.497C97.5121 61.992 97.0351 62.244 96.4861 62.244ZM102.186 63.063C103.122 63.063 103.869 62.658 104.238 61.938L103.374 61.434C103.086 61.893 102.654 62.1 102.177 62.1C101.349 62.1 100.719 61.533 100.719 60.597C100.719 59.67 101.349 59.094 102.177 59.094C102.654 59.094 103.086 59.301 103.374 59.76L104.238 59.256C103.869 58.527 103.122 58.14 102.186 58.14C100.665 58.14 99.5845 59.157 99.5845 60.597C99.5845 62.037 100.665 63.063 102.186 63.063ZM108.46 63H109.828L107.632 60.21L109.639 58.194H108.289L105.958 60.354V56.322H104.833V63H105.958V61.731L106.795 60.939L108.46 63ZM111.969 58.14C111.195 58.14 110.448 58.338 109.935 58.734L110.376 59.553C110.736 59.256 111.294 59.076 111.834 59.076C112.635 59.076 113.031 59.463 113.031 60.12V60.192H111.789C110.331 60.192 109.791 60.822 109.791 61.623C109.791 62.46 110.484 63.063 111.582 63.063C112.302 63.063 112.824 62.829 113.094 62.415V63H114.156V60.183C114.156 58.797 113.355 58.14 111.969 58.14ZM111.816 62.244C111.24 62.244 110.898 61.983 110.898 61.578C110.898 61.227 111.105 60.939 111.87 60.939H113.031V61.497C112.842 61.992 112.365 62.244 111.816 62.244ZM119.01 58.194V58.833C118.614 58.356 118.02 58.14 117.345 58.14C115.968 58.14 114.915 59.058 114.915 60.453C114.915 61.848 115.968 62.784 117.345 62.784C117.993 62.784 118.56 62.577 118.956 62.145V62.397C118.956 63.369 118.488 63.855 117.426 63.855C116.76 63.855 116.076 63.63 115.653 63.279L115.149 64.125C115.698 64.575 116.589 64.809 117.489 64.809C119.172 64.809 120.081 64.017 120.081 62.271V58.194H119.01ZM117.516 61.83C116.661 61.83 116.049 61.272 116.049 60.453C116.049 59.643 116.661 59.094 117.516 59.094C118.362 59.094 118.974 59.643 118.974 60.453C118.974 61.272 118.362 61.83 117.516 61.83ZM125.744 60.624C125.744 59.121 124.718 58.14 123.314 58.14C121.883 58.14 120.83 59.166 120.83 60.597C120.83 62.028 121.874 63.063 123.485 63.063C124.313 63.063 124.988 62.793 125.42 62.28L124.817 61.587C124.475 61.938 124.052 62.109 123.512 62.109C122.675 62.109 122.09 61.659 121.955 60.957H125.726C125.735 60.849 125.744 60.714 125.744 60.624ZM123.314 59.04C124.052 59.04 124.583 59.517 124.673 60.21H121.946C122.054 59.508 122.585 59.04 123.314 59.04ZM127.977 63.063C129.327 63.063 130.155 62.478 130.155 61.578C130.155 59.697 127.185 60.561 127.185 59.589C127.185 59.274 127.509 59.049 128.193 59.049C128.652 59.049 129.111 59.139 129.57 59.409L130.002 58.554C129.57 58.293 128.841 58.14 128.202 58.14C126.906 58.14 126.087 58.734 126.087 59.643C126.087 61.56 129.057 60.696 129.057 61.614C129.057 61.947 128.76 62.145 128.049 62.145C127.446 62.145 126.798 61.947 126.375 61.668L125.943 62.523C126.375 62.829 127.176 63.063 127.977 63.063ZM134.429 63.063C135.779 63.063 136.607 62.478 136.607 61.578C136.607 59.697 133.637 60.561 133.637 59.589C133.637 59.274 133.961 59.049 134.645 59.049C135.104 59.049 135.563 59.139 136.022 59.409L136.454 58.554C136.022 58.293 135.293 58.14 134.654 58.14C133.358 58.14 132.539 58.734 132.539 59.643C132.539 61.56 135.509 60.696 135.509 61.614C135.509 61.947 135.212 62.145 134.501 62.145C133.898 62.145 133.25 61.947 132.827 61.668L132.395 62.523C132.827 62.829 133.628 63.063 134.429 63.063ZM140.771 58.194V60.624C140.771 61.587 140.24 62.073 139.457 62.073C138.746 62.073 138.332 61.659 138.332 60.786V58.194H137.207V60.939C137.207 62.388 138.044 63.063 139.277 63.063C139.898 63.063 140.465 62.829 140.825 62.388V63H141.896V58.194H140.771ZM145.24 63.063C146.176 63.063 146.923 62.658 147.292 61.938L146.428 61.434C146.14 61.893 145.708 62.1 145.231 62.1C144.403 62.1 143.773 61.533 143.773 60.597C143.773 59.67 144.403 59.094 145.231 59.094C145.708 59.094 146.14 59.301 146.428 59.76L147.292 59.256C146.923 58.527 146.176 58.14 145.24 58.14C143.719 58.14 142.639 59.157 142.639 60.597C142.639 62.037 143.719 63.063 145.24 63.063ZM150.614 58.14C149.948 58.14 149.381 58.356 149.012 58.752V56.322H147.887V63H149.012V60.57C149.012 59.607 149.552 59.121 150.353 59.121C151.073 59.121 151.496 59.535 151.496 60.39V63H152.621V60.246C152.621 58.797 151.766 58.14 150.614 58.14ZM157.705 58.14C156.931 58.14 156.184 58.338 155.671 58.734L156.112 59.553C156.472 59.256 157.03 59.076 157.57 59.076C158.371 59.076 158.767 59.463 158.767 60.12V60.192H157.525C156.067 60.192 155.527 60.822 155.527 61.623C155.527 62.46 156.22 63.063 157.318 63.063C158.038 63.063 158.56 62.829 158.83 62.415V63H159.892V60.183C159.892 58.797 159.091 58.14 157.705 58.14ZM157.552 62.244C156.976 62.244 156.634 61.983 156.634 61.578C156.634 61.227 156.841 60.939 157.606 60.939H158.767V61.497C158.578 61.992 158.101 62.244 157.552 62.244ZM162.488 63.063C163.838 63.063 164.666 62.478 164.666 61.578C164.666 59.697 161.696 60.561 161.696 59.589C161.696 59.274 162.02 59.049 162.704 59.049C163.163 59.049 163.622 59.139 164.081 59.409L164.513 58.554C164.081 58.293 163.352 58.14 162.713 58.14C161.417 58.14 160.598 58.734 160.598 59.643C160.598 61.56 163.568 60.696 163.568 61.614C163.568 61.947 163.271 62.145 162.56 62.145C161.957 62.145 161.309 61.947 160.886 61.668L160.454 62.523C160.886 62.829 161.687 63.063 162.488 63.063ZM171.154 58.194V58.833C170.758 58.356 170.164 58.14 169.489 58.14C168.112 58.14 167.059 59.058 167.059 60.453C167.059 61.848 168.112 62.784 169.489 62.784C170.137 62.784 170.704 62.577 171.1 62.145V62.397C171.1 63.369 170.632 63.855 169.57 63.855C168.904 63.855 168.22 63.63 167.797 63.279L167.293 64.125C167.842 64.575 168.733 64.809 169.633 64.809C171.316 64.809 172.225 64.017 172.225 62.271V58.194H171.154ZM169.66 61.83C168.805 61.83 168.193 61.272 168.193 60.453C168.193 59.643 168.805 59.094 169.66 59.094C170.506 59.094 171.118 59.643 171.118 60.453C171.118 61.272 170.506 61.83 169.66 61.83ZM173.938 57.402C174.361 57.402 174.658 57.096 174.658 56.7C174.658 56.331 174.352 56.052 173.938 56.052C173.524 56.052 173.218 56.349 173.218 56.727C173.218 57.105 173.524 57.402 173.938 57.402ZM173.371 63H174.496V58.194H173.371V63ZM177.592 57.168C177.826 57.168 178.042 57.249 178.213 57.366L178.528 56.52C178.276 56.34 177.898 56.259 177.511 56.259C176.395 56.259 175.792 56.916 175.792 57.924V58.23H175V59.13H175.792V63H176.917V59.13H178.204V58.23H176.881V57.942C176.881 57.429 177.124 57.168 177.592 57.168ZM181.202 61.938C181.031 62.073 180.806 62.136 180.572 62.136C180.14 62.136 179.906 61.884 179.906 61.416V59.13H181.193V58.23H179.906V57.132H178.781V58.23H177.989V59.13H178.781V61.443C178.781 62.505 179.384 63.063 180.437 63.063C180.842 63.063 181.247 62.955 181.517 62.739L181.202 61.938ZM183.594 63.063C184.944 63.063 185.772 62.478 185.772 61.578C185.772 59.697 182.802 60.561 182.802 59.589C182.802 59.274 183.126 59.049 183.81 59.049C184.269 59.049 184.728 59.139 185.187 59.409L185.619 58.554C185.187 58.293 184.458 58.14 183.819 58.14C182.523 58.14 181.704 58.734 181.704 59.643C181.704 61.56 184.674 60.696 184.674 61.614C184.674 61.947 184.377 62.145 183.666 62.145C183.063 62.145 182.415 61.947 181.992 61.668L181.56 62.523C181.992 62.829 182.793 63.063 183.594 63.063ZM186.777 61.569C186.363 61.569 186.048 61.866 186.048 62.316C186.048 62.64 186.219 62.874 186.471 62.982L186.111 64.359H186.84L187.299 63.09C187.461 62.676 187.506 62.514 187.506 62.316C187.506 61.875 187.2 61.569 186.777 61.569ZM194.008 56.322V58.788C193.63 58.347 193.081 58.14 192.46 58.14C191.065 58.14 190.03 59.103 190.03 60.597C190.03 62.091 191.065 63.063 192.46 63.063C193.117 63.063 193.675 62.838 194.053 62.379V63H195.133V56.322H194.008ZM192.595 62.1C191.785 62.1 191.164 61.515 191.164 60.597C191.164 59.679 191.785 59.094 192.595 59.094C193.405 59.094 194.026 59.679 194.026 60.597C194.026 61.515 193.405 62.1 192.595 62.1ZM198.431 63.063C199.925 63.063 200.996 62.037 200.996 60.597C200.996 59.157 199.925 58.14 198.431 58.14C196.955 58.14 195.875 59.157 195.875 60.597C195.875 62.037 196.955 63.063 198.431 63.063ZM198.431 62.1C197.621 62.1 197.009 61.515 197.009 60.597C197.009 59.679 197.621 59.094 198.431 59.094C199.25 59.094 199.862 59.679 199.862 60.597C199.862 61.515 199.25 62.1 198.431 62.1ZM203.943 63.063C204.879 63.063 205.626 62.658 205.995 61.938L205.131 61.434C204.843 61.893 204.411 62.1 203.934 62.1C203.106 62.1 202.476 61.533 202.476 60.597C202.476 59.67 203.106 59.094 203.934 59.094C204.411 59.094 204.843 59.301 205.131 59.76L205.995 59.256C205.626 58.527 204.879 58.14 203.943 58.14C202.422 58.14 201.342 59.157 201.342 60.597C201.342 62.037 202.422 63.063 203.943 63.063ZM210.162 58.194V60.624C210.162 61.587 209.631 62.073 208.848 62.073C208.137 62.073 207.723 61.659 207.723 60.786V58.194H206.598V60.939C206.598 62.388 207.435 63.063 208.668 63.063C209.289 63.063 209.856 62.829 210.216 62.388V63H211.287V58.194H210.162ZM218.493 58.14C217.728 58.14 217.08 58.446 216.693 58.941C216.36 58.401 215.775 58.14 215.073 58.14C214.416 58.14 213.858 58.374 213.498 58.806V58.194H212.427V63H213.552V60.561C213.552 59.607 214.056 59.121 214.803 59.121C215.487 59.121 215.883 59.535 215.883 60.39V63H217.008V60.561C217.008 59.607 217.521 59.121 218.259 59.121C218.943 59.121 219.339 59.535 219.339 60.39V63H220.464V60.246C220.464 58.797 219.654 58.14 218.493 58.14ZM226.13 60.624C226.13 59.121 225.104 58.14 223.7 58.14C222.269 58.14 221.216 59.166 221.216 60.597C221.216 62.028 222.26 63.063 223.871 63.063C224.699 63.063 225.374 62.793 225.806 62.28L225.203 61.587C224.861 61.938 224.438 62.109 223.898 62.109C223.061 62.109 222.476 61.659 222.341 60.957H226.112C226.121 60.849 226.13 60.714 226.13 60.624ZM223.7 59.04C224.438 59.04 224.969 59.517 225.059 60.21H222.332C222.44 59.508 222.971 59.04 223.7 59.04ZM229.605 58.14C228.903 58.14 228.318 58.374 227.949 58.815V58.194H226.878V63H228.003V60.57C228.003 59.607 228.543 59.121 229.344 59.121C230.064 59.121 230.487 59.535 230.487 60.39V63H231.612V60.246C231.612 58.797 230.757 58.14 229.605 58.14ZM235.279 61.938C235.108 62.073 234.883 62.136 234.649 62.136C234.217 62.136 233.983 61.884 233.983 61.416V59.13H235.27V58.23H233.983V57.132H232.858V58.23H232.066V59.13H232.858V61.443C232.858 62.505 233.461 63.063 234.514 63.063C234.919 63.063 235.324 62.955 235.594 62.739L235.279 61.938ZM237.672 63.063C239.022 63.063 239.85 62.478 239.85 61.578C239.85 59.697 236.88 60.561 236.88 59.589C236.88 59.274 237.204 59.049 237.888 59.049C238.347 59.049 238.806 59.139 239.265 59.409L239.697 58.554C239.265 58.293 238.536 58.14 237.897 58.14C236.601 58.14 235.782 58.734 235.782 59.643C235.782 61.56 238.752 60.696 238.752 61.614C238.752 61.947 238.455 62.145 237.744 62.145C237.141 62.145 236.493 61.947 236.07 61.668L235.638 62.523C236.07 62.829 236.871 63.063 237.672 63.063ZM90.898 74.063C92.392 74.063 93.463 73.037 93.463 71.597C93.463 70.157 92.392 69.14 90.898 69.14C89.422 69.14 88.342 70.157 88.342 71.597C88.342 73.037 89.422 74.063 90.898 74.063ZM90.898 73.1C90.088 73.1 89.476 72.515 89.476 71.597C89.476 70.679 90.088 70.094 90.898 70.094C91.717 70.094 92.329 70.679 92.329 71.597C92.329 72.515 91.717 73.1 90.898 73.1ZM95.2764 69.896V69.194H94.2054V74H95.3304V71.669C95.3304 70.688 95.8704 70.184 96.7254 70.184C96.8064 70.184 96.8874 70.193 96.9864 70.211V69.14C96.1854 69.14 95.6004 69.392 95.2764 69.896ZM102.469 69.14C101.812 69.14 101.254 69.365 100.876 69.824V69.194H99.8054V75.746H100.93V73.415C101.317 73.856 101.857 74.063 102.469 74.063C103.873 74.063 104.908 73.091 104.908 71.597C104.908 70.112 103.873 69.14 102.469 69.14ZM102.343 73.1C101.533 73.1 100.912 72.515 100.912 71.597C100.912 70.679 101.533 70.094 102.343 70.094C103.153 70.094 103.765 70.679 103.765 71.597C103.765 72.515 103.153 73.1 102.343 73.1ZM106.713 69.896V69.194H105.642V74H106.767V71.669C106.767 70.688 107.307 70.184 108.162 70.184C108.243 70.184 108.324 70.193 108.423 70.211V69.14C107.622 69.14 107.037 69.392 106.713 69.896ZM111.16 74.063C112.654 74.063 113.725 73.037 113.725 71.597C113.725 70.157 112.654 69.14 111.16 69.14C109.684 69.14 108.604 70.157 108.604 71.597C108.604 73.037 109.684 74.063 111.16 74.063ZM111.16 73.1C110.35 73.1 109.738 72.515 109.738 71.597C109.738 70.679 110.35 70.094 111.16 70.094C111.979 70.094 112.591 70.679 112.591 71.597C112.591 72.515 111.979 73.1 111.16 73.1ZM118.049 67.322V69.788C117.671 69.347 117.122 69.14 116.501 69.14C115.106 69.14 114.071 70.103 114.071 71.597C114.071 73.091 115.106 74.063 116.501 74.063C117.158 74.063 117.716 73.838 118.094 73.379V74H119.174V67.322H118.049ZM116.636 73.1C115.826 73.1 115.205 72.515 115.205 71.597C115.205 70.679 115.826 70.094 116.636 70.094C117.446 70.094 118.067 70.679 118.067 71.597C118.067 72.515 117.446 73.1 116.636 73.1ZM123.841 69.194V71.624C123.841 72.587 123.31 73.073 122.527 73.073C121.816 73.073 121.402 72.659 121.402 71.786V69.194H120.277V71.939C120.277 73.388 121.114 74.063 122.347 74.063C122.968 74.063 123.535 73.829 123.895 73.388V74H124.966V69.194H123.841ZM128.311 74.063C129.247 74.063 129.994 73.658 130.363 72.938L129.499 72.434C129.211 72.893 128.779 73.1 128.302 73.1C127.474 73.1 126.844 72.533 126.844 71.597C126.844 70.67 127.474 70.094 128.302 70.094C128.779 70.094 129.211 70.301 129.499 70.76L130.363 70.256C129.994 69.527 129.247 69.14 128.311 69.14C126.79 69.14 125.71 70.157 125.71 71.597C125.71 73.037 126.79 74.063 128.311 74.063ZM133.637 72.938C133.466 73.073 133.241 73.136 133.007 73.136C132.575 73.136 132.341 72.884 132.341 72.416V70.13H133.628V69.23H132.341V68.132H131.216V69.23H130.424V70.13H131.216V72.443C131.216 73.505 131.819 74.063 132.872 74.063C133.277 74.063 133.682 73.955 133.952 73.739L133.637 72.938ZM136.029 74.063C137.379 74.063 138.207 73.478 138.207 72.578C138.207 70.697 135.237 71.561 135.237 70.589C135.237 70.274 135.561 70.049 136.245 70.049C136.704 70.049 137.163 70.139 137.622 70.409L138.054 69.554C137.622 69.293 136.893 69.14 136.254 69.14C134.958 69.14 134.139 69.734 134.139 70.643C134.139 72.56 137.109 71.696 137.109 72.614C137.109 72.947 136.812 73.145 136.101 73.145C135.498 73.145 134.85 72.947 134.427 72.668L133.995 73.523C134.427 73.829 135.228 74.063 136.029 74.063ZM139.203 74.063C139.608 74.063 139.941 73.748 139.941 73.316C139.941 72.866 139.608 72.569 139.203 72.569C138.798 72.569 138.465 72.866 138.465 73.316C138.465 73.748 138.798 74.063 139.203 74.063Z" fill="#979797"/>
<defs>
<filter id="filter0_d" x="0" y="0" width="299" height="113" filterUnits="userSpaceOnUse" color-interpolation-filters="sRGB">
<feFlood flood-opacity="0" result="BackgroundImageFix"/>
<feColorMatrix in="SourceAlpha" type="matrix" values="0 0 0 0 0 0 0 0 0 0 0 0 0 0 0 0 0 0 127 0"/>
<feOffset dx="4" dy="4"/>
<feGaussianBlur stdDeviation="2"/>
<feColorMatrix type="matrix" values="0 0 0 0 0 0 0 0 0 0 0 0 0 0 0 0 0 0 0.05 0"/>
<feBlend mode="normal" in2="BackgroundImageFix" result="effect1_dropShadow"/>
<feBlend mode="normal" in="SourceGraphic" in2="effect1_dropShadow" result="shape"/>
</filter>
</defs>
</svg>
