<svg width="299" height="113" viewBox="0 0 299 113" fill="none" xmlns="http://www.w3.org/2000/svg">
<g filter="url(#filter0_d)">
<rect width="291" height="105" rx="10" fill="white"/>
<rect x="0.5" y="0.5" width="290" height="104" rx="9.5" stroke="#E6E7E8"/>
</g>
<path d="M30.4844 44.2773C28.2065 44.2773 26.3535 46.1304 26.3535 48.4082V59.6074C26.3535 61.8853 28.2065 63.7383 30.4844 63.7383C32.7622 63.7383 34.6152 61.8853 34.6152 59.6074V48.4082C34.6152 46.1304 32.7622 44.2773 30.4844 44.2773Z" fill="#D0AA2B"/>
<path d="M23.5996 48.4082C23.5996 48.011 23.652 47.6273 23.7169 47.2484C22.0574 47.7848 20.8457 49.3262 20.8457 51.1621V56.8535C20.8457 58.6893 22.0574 60.2308 23.7169 60.7672C23.652 60.3883 23.5996 60.0046 23.5996 59.6074V48.4082Z" fill="#D0AA2B"/>
<path d="M52.5156 44.2773C50.2378 44.2773 48.3848 46.1304 48.3848 48.4082V59.6074C48.3848 61.8853 50.2378 63.7383 52.5156 63.7383C52.9296 63.7383 53.3218 63.6586 53.6991 63.5448C53.1865 65.2438 51.6257 66.4922 49.7617 66.4922H45.3772C44.8069 64.8929 43.2928 63.7383 41.5 63.7383C39.2222 63.7383 37.3691 65.5913 37.3691 67.8691C37.3691 70.147 39.2222 72 41.5 72C43.2928 72 44.8069 70.8454 45.3772 69.2461H49.7617C53.5578 69.2461 56.6465 66.1574 56.6465 62.3613V59.6074V48.4082C56.6465 46.1304 54.7935 44.2773 52.5156 44.2773Z" fill="#D0AA2B"/>
<path d="M59.2831 47.2484C59.348 47.6273 59.4004 48.011 59.4004 48.4082V59.6074C59.4004 60.0046 59.348 60.3883 59.2831 60.7672C60.9426 60.2308 62.1543 58.6893 62.1543 56.8535V51.1621C62.1543 49.3262 60.9426 47.7848 59.2831 47.2484Z" fill="#D0AA2B"/>
<path d="M41.5 25C30.1106 25 20.8457 34.2649 20.8457 45.6543V45.6895C21.6661 45.0684 22.6153 44.6139 23.6627 44.4104C24.3063 35.1207 32.0499 27.7539 41.5 27.7539C50.9501 27.7539 58.6937 35.1207 59.3373 44.4103C60.3846 44.6138 61.3338 45.0684 62.1543 45.6894V45.6543C62.1543 34.2649 52.8894 25 41.5 25Z" fill="#D0AA2B"/>
<path d="M95.524 46.18C97.594 46.18 99.358 45.442 100.528 44.074L99.016 42.634C98.098 43.642 96.964 44.128 95.65 44.128C93.04 44.128 91.15 42.292 91.15 39.7C91.15 37.108 93.04 35.272 95.65 35.272C96.964 35.272 98.098 35.758 99.016 36.748L100.528 35.326C99.358 33.958 97.594 33.22 95.542 33.22C91.672 33.22 88.792 35.938 88.792 39.7C88.792 43.462 91.672 46.18 95.524 46.18ZM109.013 36.388V41.248C109.013 43.174 107.951 44.146 106.385 44.146C104.963 44.146 104.135 43.318 104.135 41.572V36.388H101.885V41.878C101.885 44.776 103.559 46.126 106.025 46.126C107.267 46.126 108.401 45.658 109.121 44.776V46H111.263V36.388H109.013ZM116.846 46.126C119.546 46.126 121.202 44.956 121.202 43.156C121.202 39.394 115.262 41.122 115.262 39.178C115.262 38.548 115.91 38.098 117.278 38.098C118.196 38.098 119.114 38.278 120.032 38.818L120.896 37.108C120.032 36.586 118.574 36.28 117.296 36.28C114.704 36.28 113.066 37.468 113.066 39.286C113.066 43.12 119.006 41.392 119.006 43.228C119.006 43.894 118.412 44.29 116.99 44.29C115.784 44.29 114.488 43.894 113.642 43.336L112.778 45.046C113.642 45.658 115.244 46.126 116.846 46.126ZM127.954 43.876C127.612 44.146 127.162 44.272 126.694 44.272C125.83 44.272 125.362 43.768 125.362 42.832V38.26H127.936V36.46H125.362V34.264H123.112V36.46H121.528V38.26H123.112V42.886C123.112 45.01 124.318 46.126 126.424 46.126C127.234 46.126 128.044 45.91 128.584 45.478L127.954 43.876ZM134.105 46.126C137.093 46.126 139.235 44.074 139.235 41.194C139.235 38.314 137.093 36.28 134.105 36.28C131.153 36.28 128.993 38.314 128.993 41.194C128.993 44.074 131.153 46.126 134.105 46.126ZM134.105 44.2C132.485 44.2 131.261 43.03 131.261 41.194C131.261 39.358 132.485 38.188 134.105 38.188C135.743 38.188 136.967 39.358 136.967 41.194C136.967 43.03 135.743 44.2 134.105 44.2ZM153.185 36.28C151.655 36.28 150.359 36.892 149.585 37.882C148.919 36.802 147.749 36.28 146.345 36.28C145.031 36.28 143.915 36.748 143.195 37.612V36.388H141.053V46H143.303V41.122C143.303 39.214 144.311 38.242 145.805 38.242C147.173 38.242 147.965 39.07 147.965 40.78V46H150.215V41.122C150.215 39.214 151.241 38.242 152.717 38.242C154.085 38.242 154.877 39.07 154.877 40.78V46H157.127V40.492C157.127 37.594 155.507 36.28 153.185 36.28ZM168.793 41.248C168.793 38.242 166.741 36.28 163.933 36.28C161.071 36.28 158.965 38.332 158.965 41.194C158.965 44.056 161.053 46.126 164.275 46.126C165.931 46.126 167.281 45.586 168.145 44.56L166.939 43.174C166.255 43.876 165.409 44.218 164.329 44.218C162.655 44.218 161.485 43.318 161.215 41.914H168.757C168.775 41.698 168.793 41.428 168.793 41.248ZM163.933 38.08C165.409 38.08 166.471 39.034 166.651 40.42H161.197C161.413 39.016 162.475 38.08 163.933 38.08ZM172.763 37.792V36.388H170.621V46H172.871V41.338C172.871 39.376 173.951 38.368 175.661 38.368C175.823 38.368 175.985 38.386 176.183 38.422V36.28C174.581 36.28 173.411 36.784 172.763 37.792ZM186.61 46.18C190.066 46.18 191.704 44.452 191.704 42.436C191.704 37.81 184.234 39.556 184.234 36.874C184.234 35.92 185.026 35.164 186.97 35.164C188.068 35.164 189.31 35.488 190.444 36.154L191.182 34.336C190.084 33.616 188.5 33.22 186.988 33.22C183.532 33.22 181.912 34.948 181.912 36.982C181.912 41.662 189.4 39.88 189.4 42.598C189.4 43.534 188.572 44.236 186.61 44.236C185.062 44.236 183.46 43.66 182.452 42.85L181.642 44.668C182.686 45.568 184.648 46.18 186.61 46.18ZM200.531 36.388V41.248C200.531 43.174 199.469 44.146 197.903 44.146C196.481 44.146 195.653 43.318 195.653 41.572V36.388H193.403V41.878C193.403 44.776 195.077 46.126 197.543 46.126C198.785 46.126 199.919 45.658 200.639 44.776V46H202.781V36.388H200.531ZM210.721 36.28C209.407 36.28 208.291 36.73 207.535 37.648V36.388H205.393V49.492H207.643V44.83C208.417 45.712 209.497 46.126 210.721 46.126C213.529 46.126 215.599 44.182 215.599 41.194C215.599 38.224 213.529 36.28 210.721 36.28ZM210.469 44.2C208.849 44.2 207.607 43.03 207.607 41.194C207.607 39.358 208.849 38.188 210.469 38.188C212.089 38.188 213.313 39.358 213.313 41.194C213.313 43.03 212.089 44.2 210.469 44.2ZM222.728 36.28C221.414 36.28 220.298 36.73 219.542 37.648V36.388H217.4V49.492H219.65V44.83C220.424 45.712 221.504 46.126 222.728 46.126C225.536 46.126 227.606 44.182 227.606 41.194C227.606 38.224 225.536 36.28 222.728 36.28ZM222.476 44.2C220.856 44.2 219.614 43.03 219.614 41.194C219.614 39.358 220.856 38.188 222.476 38.188C224.096 38.188 225.32 39.358 225.32 41.194C225.32 43.03 224.096 44.2 222.476 44.2ZM233.726 46.126C236.714 46.126 238.856 44.074 238.856 41.194C238.856 38.314 236.714 36.28 233.726 36.28C230.774 36.28 228.614 38.314 228.614 41.194C228.614 44.074 230.774 46.126 233.726 46.126ZM233.726 44.2C232.106 44.2 230.882 43.03 230.882 41.194C230.882 39.358 232.106 38.188 233.726 38.188C235.364 38.188 236.588 39.358 236.588 41.194C236.588 43.03 235.364 44.2 233.726 44.2ZM242.817 37.792V36.388H240.675V46H242.925V41.338C242.925 39.376 244.005 38.368 245.715 38.368C245.877 38.368 246.039 38.386 246.237 38.422V36.28C244.635 36.28 243.465 36.784 242.817 37.792ZM253.312 43.876C252.97 44.146 252.52 44.272 252.052 44.272C251.188 44.272 250.72 43.768 250.72 42.832V38.26H253.294V36.46H250.72V34.264H248.47V36.46H246.886V38.26H248.47V42.886C248.47 45.01 249.676 46.126 251.782 46.126C252.592 46.126 253.402 45.91 253.942 45.478L253.312 43.876Z" fill="black"/>
<path d="M88.846 63H93.31V62.01H90.016V56.7H88.846V63ZM98.2664 60.624C98.2664 59.121 97.2404 58.14 95.8364 58.14C94.4054 58.14 93.3524 59.166 93.3524 60.597C93.3524 62.028 94.3964 63.063 96.0074 63.063C96.8354 63.063 97.5104 62.793 97.9424 62.28L97.3394 61.587C96.9974 61.938 96.5744 62.109 96.0344 62.109C95.1974 62.109 94.6124 61.659 94.4774 60.957H98.2484C98.2574 60.849 98.2664 60.714 98.2664 60.624ZM95.8364 59.04C96.5744 59.04 97.1054 59.517 97.1954 60.21H94.4684C94.5764 59.508 95.1074 59.04 95.8364 59.04ZM101.588 61.938C101.417 62.073 101.192 62.136 100.958 62.136C100.526 62.136 100.292 61.884 100.292 61.416V59.13H101.579V58.23H100.292V57.132H99.1667V58.23H98.3747V59.13H99.1667V61.443C99.1667 62.505 99.7697 63.063 100.823 63.063C101.228 63.063 101.633 62.955 101.903 62.739L101.588 61.938ZM102.864 56.259C102.45 56.259 102.135 56.556 102.135 56.997C102.135 57.33 102.306 57.564 102.558 57.663L102.198 59.049H102.927L103.395 57.771C103.557 57.357 103.593 57.204 103.593 56.997C103.593 56.565 103.287 56.259 102.864 56.259ZM105.694 63.063C107.044 63.063 107.872 62.478 107.872 61.578C107.872 59.697 104.902 60.561 104.902 59.589C104.902 59.274 105.226 59.049 105.91 59.049C106.369 59.049 106.828 59.139 107.287 59.409L107.719 58.554C107.287 58.293 106.558 58.14 105.919 58.14C104.623 58.14 103.804 58.734 103.804 59.643C103.804 61.56 106.774 60.696 106.774 61.614C106.774 61.947 106.477 62.145 105.766 62.145C105.163 62.145 104.515 61.947 104.092 61.668L103.66 62.523C104.092 62.829 104.893 63.063 105.694 63.063ZM113.389 58.14C112.723 58.14 112.156 58.356 111.787 58.752V56.322H110.662V63H111.787V60.57C111.787 59.607 112.327 59.121 113.128 59.121C113.848 59.121 114.271 59.535 114.271 60.39V63H115.396V60.246C115.396 58.797 114.541 58.14 113.389 58.14ZM121.052 60.624C121.052 59.121 120.026 58.14 118.622 58.14C117.191 58.14 116.138 59.166 116.138 60.597C116.138 62.028 117.182 63.063 118.793 63.063C119.621 63.063 120.296 62.793 120.728 62.28L120.125 61.587C119.783 61.938 119.36 62.109 118.82 62.109C117.983 62.109 117.398 61.659 117.263 60.957H121.034C121.043 60.849 121.052 60.714 121.052 60.624ZM118.622 59.04C119.36 59.04 119.891 59.517 119.981 60.21H117.254C117.362 59.508 117.893 59.04 118.622 59.04ZM123.503 58.14C122.729 58.14 121.982 58.338 121.469 58.734L121.91 59.553C122.27 59.256 122.828 59.076 123.368 59.076C124.169 59.076 124.565 59.463 124.565 60.12V60.192H123.323C121.865 60.192 121.325 60.822 121.325 61.623C121.325 62.46 122.018 63.063 123.116 63.063C123.836 63.063 124.358 62.829 124.628 62.415V63H125.69V60.183C125.69 58.797 124.889 58.14 123.503 58.14ZM123.35 62.244C122.774 62.244 122.432 61.983 122.432 61.578C122.432 61.227 122.639 60.939 123.404 60.939H124.565V61.497C124.376 61.992 123.899 62.244 123.35 62.244ZM127.872 58.896V58.194H126.801V63H127.926V60.669C127.926 59.688 128.466 59.184 129.321 59.184C129.402 59.184 129.483 59.193 129.582 59.211V58.14C128.781 58.14 128.196 58.392 127.872 58.896ZM134.353 57.168C134.587 57.168 134.803 57.249 134.974 57.366L135.289 56.52C135.037 56.34 134.659 56.259 134.272 56.259C133.156 56.259 132.553 56.916 132.553 57.924V58.23H131.761V59.13H132.553V63H133.678V59.13H134.965V58.23H133.642V57.942C133.642 57.429 133.885 57.168 134.353 57.168ZM137.181 58.896V58.194H136.11V63H137.235V60.669C137.235 59.688 137.775 59.184 138.63 59.184C138.711 59.184 138.792 59.193 138.891 59.211V58.14C138.09 58.14 137.505 58.392 137.181 58.896ZM141.628 63.063C143.122 63.063 144.193 62.037 144.193 60.597C144.193 59.157 143.122 58.14 141.628 58.14C140.152 58.14 139.072 59.157 139.072 60.597C139.072 62.037 140.152 63.063 141.628 63.063ZM141.628 62.1C140.818 62.1 140.206 61.515 140.206 60.597C140.206 59.679 140.818 59.094 141.628 59.094C142.447 59.094 143.059 59.679 143.059 60.597C143.059 61.515 142.447 62.1 141.628 62.1ZM151.002 58.14C150.237 58.14 149.589 58.446 149.202 58.941C148.869 58.401 148.284 58.14 147.582 58.14C146.925 58.14 146.367 58.374 146.007 58.806V58.194H144.936V63H146.061V60.561C146.061 59.607 146.565 59.121 147.312 59.121C147.996 59.121 148.392 59.535 148.392 60.39V63H149.517V60.561C149.517 59.607 150.03 59.121 150.768 59.121C151.452 59.121 151.848 59.535 151.848 60.39V63H152.973V60.246C152.973 58.797 152.163 58.14 151.002 58.14ZM159.651 58.194L158.13 61.749L156.618 58.194H155.448L157.545 63.018L157.464 63.207C157.248 63.684 157.014 63.873 156.618 63.873C156.312 63.873 156.006 63.747 155.79 63.54L155.34 64.368C155.646 64.647 156.15 64.809 156.627 64.809C157.428 64.809 158.04 64.476 158.481 63.387L160.731 58.194H159.651ZM163.129 63.063C164.623 63.063 165.694 62.037 165.694 60.597C165.694 59.157 164.623 58.14 163.129 58.14C161.653 58.14 160.573 59.157 160.573 60.597C160.573 62.037 161.653 63.063 163.129 63.063ZM163.129 62.1C162.319 62.1 161.707 61.515 161.707 60.597C161.707 59.679 162.319 59.094 163.129 59.094C163.948 59.094 164.56 59.679 164.56 60.597C164.56 61.515 163.948 62.1 163.129 62.1ZM169.964 58.194V60.624C169.964 61.587 169.433 62.073 168.65 62.073C167.939 62.073 167.525 61.659 167.525 60.786V58.194H166.4V60.939C166.4 62.388 167.237 63.063 168.47 63.063C169.091 63.063 169.658 62.829 170.018 62.388V63H171.089V58.194H169.964Z" fill="#979797"/>
<defs>
<filter id="filter0_d" x="0" y="0" width="299" height="113" filterUnits="userSpaceOnUse" color-interpolation-filters="sRGB">
<feFlood flood-opacity="0" result="BackgroundImageFix"/>
<feColorMatrix in="SourceAlpha" type="matrix" values="0 0 0 0 0 0 0 0 0 0 0 0 0 0 0 0 0 0 127 0"/>
<feOffset dx="4" dy="4"/>
<feGaussianBlur stdDeviation="2"/>
<feColorMatrix type="matrix" values="0 0 0 0 0 0 0 0 0 0 0 0 0 0 0 0 0 0 0.05 0"/>
<feBlend mode="normal" in2="BackgroundImageFix" result="effect1_dropShadow"/>
<feBlend mode="normal" in="SourceGraphic" in2="effect1_dropShadow" result="shape"/>
</filter>
</defs>
</svg>
