<svg width="299" height="113" viewBox="0 0 299 113" fill="none" xmlns="http://www.w3.org/2000/svg">
<g filter="url(#filter0_d)">
<rect width="291" height="105" rx="10" fill="white"/>
<rect x="0.5" y="0.5" width="290" height="104" rx="9.5" stroke="#E6E7E8"/>
</g>
<path d="M20.2727 25C17.912 25 16 26.912 16 29.2727V67.7273C16 70.088 17.912 72 20.2727 72H58.7273C61.088 72 63 70.088 63 67.7273V29.2727C63 26.912 61.088 25 58.7273 25H20.2727ZM37.3636 33.5455C44.4329 33.5455 50.1818 39.2944 50.1818 46.3636C50.1818 49.1281 49.2926 51.6825 47.7993 53.7783L53.8287 59.8077C54.664 60.643 54.664 61.9933 53.8287 62.8287C53.4121 63.2453 52.8651 63.4545 52.3182 63.4545C51.7713 63.4545 51.2243 63.2453 50.8077 62.8287L44.7783 56.7993C42.6825 58.2926 40.1281 59.1818 37.3636 59.1818C30.2944 59.1818 24.5455 53.4329 24.5455 46.3636C24.5455 39.2944 30.2944 33.5455 37.3636 33.5455ZM37.3636 37.8182C35.0972 37.8182 32.9237 38.7185 31.3211 40.3211C29.7185 41.9237 28.8182 44.0972 28.8182 46.3636C28.8182 48.63 29.7185 50.8036 31.3211 52.4062C32.9237 54.0088 35.0972 54.9091 37.3636 54.9091C39.63 54.9091 41.8036 54.0088 43.4062 52.4062C45.0088 50.8036 45.9091 48.63 45.9091 46.3636C45.9091 44.0972 45.0088 41.9237 43.4062 40.3211C41.8036 38.7185 39.63 37.8182 37.3636 37.8182Z" fill="#D0AA2B"/>
<path d="M92.248 46H94.588V35.38H98.764V33.4H88.072V35.38H92.248V46ZM101.884 37.792V36.388H99.7423V46H101.992V41.338C101.992 39.376 103.072 38.368 104.782 38.368C104.944 38.368 105.106 38.386 105.304 38.422V36.28C103.702 36.28 102.532 36.784 101.884 37.792ZM110.499 36.28C108.951 36.28 107.457 36.676 106.431 37.468L107.313 39.106C108.033 38.512 109.149 38.152 110.229 38.152C111.831 38.152 112.623 38.926 112.623 40.24V40.384H110.139C107.223 40.384 106.143 41.644 106.143 43.246C106.143 44.92 107.529 46.126 109.725 46.126C111.165 46.126 112.209 45.658 112.749 44.83V46H114.873V40.366C114.873 37.594 113.271 36.28 110.499 36.28ZM110.193 44.488C109.041 44.488 108.357 43.966 108.357 43.156C108.357 42.454 108.771 41.878 110.301 41.878H112.623V42.994C112.245 43.984 111.291 44.488 110.193 44.488ZM121.925 46.126C123.797 46.126 125.291 45.316 126.029 43.876L124.301 42.868C123.725 43.786 122.861 44.2 121.907 44.2C120.251 44.2 118.991 43.066 118.991 41.194C118.991 39.34 120.251 38.188 121.907 38.188C122.861 38.188 123.725 38.602 124.301 39.52L126.029 38.512C125.291 37.054 123.797 36.28 121.925 36.28C118.883 36.28 116.723 38.314 116.723 41.194C116.723 44.074 118.883 46.126 121.925 46.126ZM134.807 46H137.543L133.151 40.42L137.165 36.388H134.465L129.803 40.708V32.644H127.553V46H129.803V43.462L131.477 41.878L134.807 46ZM149.406 46.18C153.312 46.18 156.192 43.444 156.192 39.7C156.192 35.956 153.312 33.22 149.406 33.22C145.5 33.22 142.62 35.974 142.62 39.7C142.62 43.426 145.5 46.18 149.406 46.18ZM149.406 44.128C146.868 44.128 144.978 42.274 144.978 39.7C144.978 37.126 146.868 35.272 149.406 35.272C151.944 35.272 153.834 37.126 153.834 39.7C153.834 42.274 151.944 44.128 149.406 44.128ZM160.265 37.792V36.388H158.123V46H160.373V41.338C160.373 39.376 161.453 38.368 163.163 38.368C163.325 38.368 163.487 38.386 163.685 38.422V36.28C162.083 36.28 160.913 36.784 160.265 37.792ZM172.337 32.644V37.576C171.581 36.694 170.483 36.28 169.241 36.28C166.451 36.28 164.381 38.206 164.381 41.194C164.381 44.182 166.451 46.126 169.241 46.126C170.555 46.126 171.671 45.676 172.427 44.758V46H174.587V32.644H172.337ZM169.511 44.2C167.891 44.2 166.649 43.03 166.649 41.194C166.649 39.358 167.891 38.188 169.511 38.188C171.131 38.188 172.373 39.358 172.373 41.194C172.373 43.03 171.131 44.2 169.511 44.2ZM186.233 41.248C186.233 38.242 184.181 36.28 181.373 36.28C178.511 36.28 176.405 38.332 176.405 41.194C176.405 44.056 178.493 46.126 181.715 46.126C183.371 46.126 184.721 45.586 185.585 44.56L184.379 43.174C183.695 43.876 182.849 44.218 181.769 44.218C180.095 44.218 178.925 43.318 178.655 41.914H186.197C186.215 41.698 186.233 41.428 186.233 41.248ZM181.373 38.08C182.849 38.08 183.911 39.034 184.091 40.42H178.637C178.853 39.016 179.915 38.08 181.373 38.08ZM190.203 37.792V36.388H188.061V46H190.311V41.338C190.311 39.376 191.391 38.368 193.101 38.368C193.263 38.368 193.425 38.386 193.623 38.422V36.28C192.021 36.28 190.851 36.784 190.203 37.792Z" fill="black"/>
<path d="M90.124 63H91.294V57.69H93.382V56.7H88.036V57.69H90.124V63ZM94.7755 58.896V58.194H93.7045V63H94.8295V60.669C94.8295 59.688 95.3695 59.184 96.2245 59.184C96.3055 59.184 96.3865 59.193 96.4855 59.211V58.14C95.6845 58.14 95.0995 58.392 94.7755 58.896ZM98.9161 58.14C98.1421 58.14 97.3951 58.338 96.8821 58.734L97.3231 59.553C97.6831 59.256 98.2411 59.076 98.7811 59.076C99.5821 59.076 99.9781 59.463 99.9781 60.12V60.192H98.7361C97.2781 60.192 96.7381 60.822 96.7381 61.623C96.7381 62.46 97.4311 63.063 98.5291 63.063C99.2491 63.063 99.7711 62.829 100.041 62.415V63H101.103V60.183C101.103 58.797 100.302 58.14 98.9161 58.14ZM98.7631 62.244C98.1871 62.244 97.8451 61.983 97.8451 61.578C97.8451 61.227 98.0521 60.939 98.8171 60.939H99.9781V61.497C99.7891 61.992 99.3121 62.244 98.7631 62.244ZM104.463 63.063C105.399 63.063 106.146 62.658 106.515 61.938L105.651 61.434C105.363 61.893 104.931 62.1 104.454 62.1C103.626 62.1 102.996 61.533 102.996 60.597C102.996 59.67 103.626 59.094 104.454 59.094C104.931 59.094 105.363 59.301 105.651 59.76L106.515 59.256C106.146 58.527 105.399 58.14 104.463 58.14C102.942 58.14 101.862 59.157 101.862 60.597C101.862 62.037 102.942 63.063 104.463 63.063ZM110.737 63H112.105L109.909 60.21L111.916 58.194H110.566L108.235 60.354V56.322H107.11V63H108.235V61.731L109.072 60.939L110.737 63ZM116.488 58.14C115.714 58.14 114.967 58.338 114.454 58.734L114.895 59.553C115.255 59.256 115.813 59.076 116.353 59.076C117.154 59.076 117.55 59.463 117.55 60.12V60.192H116.308C114.85 60.192 114.31 60.822 114.31 61.623C114.31 62.46 115.003 63.063 116.101 63.063C116.821 63.063 117.343 62.829 117.613 62.415V63H118.675V60.183C118.675 58.797 117.874 58.14 116.488 58.14ZM116.335 62.244C115.759 62.244 115.417 61.983 115.417 61.578C115.417 61.227 115.624 60.939 116.389 60.939H117.55V61.497C117.361 61.992 116.884 62.244 116.335 62.244ZM122.513 58.14C121.811 58.14 121.226 58.374 120.857 58.815V58.194H119.786V63H120.911V60.57C120.911 59.607 121.451 59.121 122.252 59.121C122.972 59.121 123.395 59.535 123.395 60.39V63H124.52V60.246C124.52 58.797 123.665 58.14 122.513 58.14ZM129.927 63.063C131.421 63.063 132.492 62.037 132.492 60.597C132.492 59.157 131.421 58.14 129.927 58.14C128.451 58.14 127.371 59.157 127.371 60.597C127.371 62.037 128.451 63.063 129.927 63.063ZM129.927 62.1C129.117 62.1 128.505 61.515 128.505 60.597C128.505 59.679 129.117 59.094 129.927 59.094C130.746 59.094 131.358 59.679 131.358 60.597C131.358 61.515 130.746 62.1 129.927 62.1ZM135.962 58.14C135.26 58.14 134.675 58.374 134.306 58.815V58.194H133.235V63H134.36V60.57C134.36 59.607 134.9 59.121 135.701 59.121C136.421 59.121 136.844 59.535 136.844 60.39V63H137.969V60.246C137.969 58.797 137.114 58.14 135.962 58.14ZM138.82 60.966H141.295V60.03H138.82V60.966ZM145.979 58.194V58.833C145.583 58.356 144.989 58.14 144.314 58.14C142.937 58.14 141.884 59.058 141.884 60.453C141.884 61.848 142.937 62.784 144.314 62.784C144.962 62.784 145.529 62.577 145.925 62.145V62.397C145.925 63.369 145.457 63.855 144.395 63.855C143.729 63.855 143.045 63.63 142.622 63.279L142.118 64.125C142.667 64.575 143.558 64.809 144.458 64.809C146.141 64.809 147.05 64.017 147.05 62.271V58.194H145.979ZM144.485 61.83C143.63 61.83 143.018 61.272 143.018 60.453C143.018 59.643 143.63 59.094 144.485 59.094C145.331 59.094 145.943 59.643 145.943 60.453C145.943 61.272 145.331 61.83 144.485 61.83ZM150.356 63.063C151.85 63.063 152.921 62.037 152.921 60.597C152.921 59.157 151.85 58.14 150.356 58.14C148.88 58.14 147.8 59.157 147.8 60.597C147.8 62.037 148.88 63.063 150.356 63.063ZM150.356 62.1C149.546 62.1 148.934 61.515 148.934 60.597C148.934 59.679 149.546 59.094 150.356 59.094C151.175 59.094 151.787 59.679 151.787 60.597C151.787 61.515 151.175 62.1 150.356 62.1ZM154.23 57.402C154.653 57.402 154.95 57.096 154.95 56.7C154.95 56.331 154.644 56.052 154.23 56.052C153.816 56.052 153.51 56.349 153.51 56.727C153.51 57.105 153.816 57.402 154.23 57.402ZM153.663 63H154.788V58.194H153.663V63ZM158.658 58.14C157.956 58.14 157.371 58.374 157.002 58.815V58.194H155.931V63H157.056V60.57C157.056 59.607 157.596 59.121 158.397 59.121C159.117 59.121 159.54 59.535 159.54 60.39V63H160.665V60.246C160.665 58.797 159.81 58.14 158.658 58.14ZM165.502 58.194V58.833C165.106 58.356 164.512 58.14 163.837 58.14C162.46 58.14 161.407 59.058 161.407 60.453C161.407 61.848 162.46 62.784 163.837 62.784C164.485 62.784 165.052 62.577 165.448 62.145V62.397C165.448 63.369 164.98 63.855 163.918 63.855C163.252 63.855 162.568 63.63 162.145 63.279L161.641 64.125C162.19 64.575 163.081 64.809 163.981 64.809C165.664 64.809 166.573 64.017 166.573 62.271V58.194H165.502ZM164.008 61.83C163.153 61.83 162.541 61.272 162.541 60.453C162.541 59.643 163.153 59.094 164.008 59.094C164.854 59.094 165.466 59.643 165.466 60.453C165.466 61.272 164.854 61.83 164.008 61.83ZM173.455 56.322V58.788C173.077 58.347 172.528 58.14 171.907 58.14C170.512 58.14 169.477 59.103 169.477 60.597C169.477 62.091 170.512 63.063 171.907 63.063C172.564 63.063 173.122 62.838 173.5 62.379V63H174.58V56.322H173.455ZM172.042 62.1C171.232 62.1 170.611 61.515 170.611 60.597C170.611 59.679 171.232 59.094 172.042 59.094C172.852 59.094 173.473 59.679 173.473 60.597C173.473 61.515 172.852 62.1 172.042 62.1ZM180.236 60.624C180.236 59.121 179.21 58.14 177.806 58.14C176.375 58.14 175.322 59.166 175.322 60.597C175.322 62.028 176.366 63.063 177.977 63.063C178.805 63.063 179.48 62.793 179.912 62.28L179.309 61.587C178.967 61.938 178.544 62.109 178.004 62.109C177.167 62.109 176.582 61.659 176.447 60.957H180.218C180.227 60.849 180.236 60.714 180.236 60.624ZM177.806 59.04C178.544 59.04 179.075 59.517 179.165 60.21H176.438C176.546 59.508 177.077 59.04 177.806 59.04ZM180.983 63H182.108V56.322H180.983V63ZM183.819 57.402C184.242 57.402 184.539 57.096 184.539 56.7C184.539 56.331 184.233 56.052 183.819 56.052C183.405 56.052 183.099 56.349 183.099 56.727C183.099 57.105 183.405 57.402 183.819 57.402ZM183.252 63H184.377V58.194H183.252V63ZM188.94 58.194L187.401 61.758L185.907 58.194H184.737L186.798 63H187.959L190.02 58.194H188.94ZM194.776 60.624C194.776 59.121 193.75 58.14 192.346 58.14C190.915 58.14 189.862 59.166 189.862 60.597C189.862 62.028 190.906 63.063 192.517 63.063C193.345 63.063 194.02 62.793 194.452 62.28L193.849 61.587C193.507 61.938 193.084 62.109 192.544 62.109C191.707 62.109 191.122 61.659 190.987 60.957H194.758C194.767 60.849 194.776 60.714 194.776 60.624ZM192.346 59.04C193.084 59.04 193.615 59.517 193.705 60.21H190.978C191.086 59.508 191.617 59.04 192.346 59.04ZM196.594 58.896V58.194H195.523V63H196.648V60.669C196.648 59.688 197.188 59.184 198.043 59.184C198.124 59.184 198.205 59.193 198.304 59.211V58.14C197.503 58.14 196.918 58.392 196.594 58.896ZM202.521 58.194L201 61.749L199.488 58.194H198.318L200.415 63.018L200.334 63.207C200.118 63.684 199.884 63.873 199.488 63.873C199.182 63.873 198.876 63.747 198.66 63.54L198.21 64.368C198.516 64.647 199.02 64.809 199.497 64.809C200.298 64.809 200.91 64.476 201.351 63.387L203.601 58.194H202.521Z" fill="#979797"/>
<defs>
<filter id="filter0_d" x="0" y="0" width="299" height="113" filterUnits="userSpaceOnUse" color-interpolation-filters="sRGB">
<feFlood flood-opacity="0" result="BackgroundImageFix"/>
<feColorMatrix in="SourceAlpha" type="matrix" values="0 0 0 0 0 0 0 0 0 0 0 0 0 0 0 0 0 0 127 0"/>
<feOffset dx="4" dy="4"/>
<feGaussianBlur stdDeviation="2"/>
<feColorMatrix type="matrix" values="0 0 0 0 0 0 0 0 0 0 0 0 0 0 0 0 0 0 0.05 0"/>
<feBlend mode="normal" in2="BackgroundImageFix" result="effect1_dropShadow"/>
<feBlend mode="normal" in="SourceGraphic" in2="effect1_dropShadow" result="shape"/>
</filter>
</defs>
</svg>
