<svg width="200" height="197" viewBox="0 0 200 197" fill="none" xmlns="http://www.w3.org/2000/svg">
<path d="M194.118 39.2139L100 5.88054L5.88232 39.2139V156.861L100 190.194L194.118 156.861V39.2139Z" fill="white"/>
<path d="M194.118 39.2139L100 5.88054L5.88232 39.2139V156.861L100 190.194L194.118 156.861V39.2139ZM194.118 39.2139L100 5.88054Z" fill="white"/>
<path d="M100 196.073C99.4118 196.073 98.6274 195.877 98.0392 195.681L3.92157 162.348C1.56863 161.563 0 159.21 0 156.857V39.2104C0 36.6613 1.56863 34.5045 3.92157 33.7202L98.0392 0.386833C101.176 -0.789638 104.51 0.975069 105.49 3.91625C106.667 7.0535 104.902 10.3868 101.961 11.3672L11.7647 43.328V152.74L101.961 184.701C105.098 185.877 106.667 189.21 105.49 192.152C104.706 194.504 102.353 196.073 100 196.073Z" fill="#D0AA2B"/>
<path d="M194.118 39.2139L100 5.88054L194.118 39.2139ZM194.118 39.2139L100 5.88054Z" fill="white"/>
<path d="M200 39.0181C200 38.822 200 38.4298 200 38.2337V38.0377C199.608 36.0769 198.235 34.3122 196.275 33.7239L149.216 17.0573H149.02C147.843 16.6651 146.275 16.469 144.902 17.0573L52.9412 49.4102C50.5882 50.1945 49.0196 52.5475 49.0196 54.9004V76.469C49.0196 79.8024 51.5686 82.3514 54.902 82.3514C58.2353 82.3514 60.7843 79.8024 60.7843 76.469V59.0181L146.667 28.6259L176.471 39.2141L98.0392 67.0573C95.6863 67.8416 94.1176 69.9985 94.1176 72.5475C94.1176 72.5475 94.1176 72.5475 94.1176 72.7435V182.155L11.7647 152.744V43.3318L101.961 11.371C105.098 10.1945 106.667 6.8612 105.49 3.92002C104.314 0.782764 100.98 -0.785864 98.0392 0.390607L3.92157 33.7239C1.56863 34.5083 0 36.8612 0 39.2141V156.861C0 159.41 1.56863 161.567 3.92157 162.351L98.0392 195.685C98.6275 195.881 99.4118 196.077 100 196.077C100.588 196.077 101.373 195.881 101.961 195.685L196.078 162.351C198.431 161.567 200 159.214 200 156.861V39.0181C200 39.0181 200 39.2141 200 39.0181ZM188.235 152.744L105.882 181.959V76.6651L188.235 47.4494V152.744Z" fill="#D0AA2B"/>
</svg>
