<svg width="30" height="30" viewBox="0 0 30 30" fill="none" xmlns="http://www.w3.org/2000/svg">
<circle cx="15" cy="15" r="15" fill="#084777"/>
<path d="M23.1317 20.2614C23.08 19.87 22.854 19.5326 22.512 19.3357L18.4942 17.0224C18.0021 16.7391 17.3779 16.8215 16.9762 17.2232L16.1848 18.0145C15.9743 18.2251 15.6411 18.2438 15.41 18.0578C14.7862 17.5558 14.1719 17.0033 13.5843 16.4157C12.9967 15.8282 12.4443 15.2139 11.9422 14.59C11.7563 14.3589 11.7749 14.0258 11.9855 13.8152L12.7769 13.0238C13.1785 12.6222 13.2611 11.998 12.9777 11.5058L10.6644 7.48807C10.4674 7.14597 10.13 6.92009 9.73869 6.86831C9.34731 6.81643 8.96276 6.94696 8.68362 7.2261L7.49119 8.41856C6.65895 9.25084 6.64558 10.7732 7.45356 12.7054C8.23048 14.5632 9.68034 16.6083 11.536 18.464C13.3917 20.3197 15.4369 21.7696 17.2947 22.5465C18.2458 22.9442 19.0975 23.143 19.8166 23.1429C20.5583 23.1429 21.1589 22.9314 21.5815 22.5089L22.774 21.3164C23.0531 21.0373 23.1835 20.6527 23.1317 20.2614V20.2614ZM18.231 17.4796L22.2487 19.7929C22.4474 19.9073 22.5786 20.1032 22.6087 20.3305C22.6339 20.5213 22.5844 20.7091 22.472 20.8605L17.1325 17.8131L17.3493 17.5962C17.5825 17.363 17.9452 17.3151 18.231 17.4796V17.4796ZM9.66947 7.39138C9.8968 7.42145 10.0928 7.55265 10.2071 7.75135L12.5204 11.7691C12.685 12.055 12.637 12.4175 12.4038 12.6507L12.2046 12.8499L9.14049 7.52803C9.26575 7.43528 9.41555 7.38491 9.57172 7.38491C9.60412 7.38491 9.63679 7.38705 9.66947 7.39138V7.39138ZM21.2084 22.1358C20.5472 22.797 19.1949 22.7692 17.4983 22.0597C15.7023 21.3087 13.7174 19.8992 11.9091 18.091C10.1008 16.2827 8.69136 14.2977 7.94033 12.5018C7.23077 10.8051 7.20309 9.45284 7.86428 8.79161L8.7495 7.90636L11.8182 13.2363L11.6124 13.4421C11.2109 13.8437 11.176 14.4793 11.5311 14.9208C12.045 15.5594 12.6103 16.1879 13.2112 16.7888C13.8122 17.3898 14.4407 17.955 15.0792 18.4689C15.5207 18.8241 16.1563 18.7892 16.5579 18.3876L16.7457 18.1998L22.0927 21.2515L21.2084 22.1358V22.1358Z" fill="white"/>
</svg>
