<svg width="20" height="20" viewBox="0 0 20 20" fill="none" xmlns="http://www.w3.org/2000/svg">
<path d="M19.47 6.86339L13.1366 0.530141C12.7948 0.18829 12.3388 0 11.8528 0C11.3668 0 10.9108 0.188212 10.569 0.530063L0.530141 10.5689C0.18829 10.9108 0 11.3667 0 11.8527C0 12.3388 0.18829 12.7947 0.530141 13.1365L1.31111 13.9175C1.31119 13.9175 1.31123 13.9176 1.31131 13.9177C1.31139 13.9178 1.31147 13.9179 1.31154 13.9179L6.56022 19.1666H5.83347C5.60338 19.1666 5.41681 19.3531 5.41681 19.5833C5.41681 19.8134 5.60338 19.9999 5.83347 19.9999H8.14564C8.14619 19.9999 8.14669 20 8.14724 20C8.14779 20 8.1483 19.9999 8.14884 19.9999L14.1668 20C14.3969 20 14.5835 19.8134 14.5835 19.5833C14.5835 19.3532 14.3969 19.1667 14.1668 19.1667L9.73442 19.1666L19.47 9.43101C20.1779 8.72309 20.1779 7.57124 19.47 6.86339ZM18.8807 8.84176L8.84184 18.8807C8.65773 19.0647 8.41163 19.1662 8.14876 19.1666H8.1456C7.88282 19.1662 7.63679 19.0647 7.45276 18.8807L2.19522 13.6231L11.8361 3.98213C11.9988 3.81943 11.9988 3.55559 11.8361 3.39289C11.6733 3.23018 11.4096 3.23018 11.2468 3.39293L1.60593 13.0339L1.11935 12.5473C0.934925 12.3629 0.833358 12.1162 0.833358 11.8528C0.833358 11.5893 0.934925 11.3426 1.11939 11.1582L11.1582 1.11935C11.3427 0.934925 11.5893 0.833358 11.8528 0.833358C12.1162 0.833358 12.3629 0.934925 12.5474 1.11939L14.8015 3.37347L5.16054 13.0145C4.99784 13.1772 4.99784 13.441 5.16054 13.6038C5.24192 13.6851 5.34856 13.7258 5.45517 13.7258C5.56177 13.7258 5.66842 13.6851 5.74979 13.6038L15.3908 3.96276L18.8807 7.4526C19.2637 7.83559 19.2636 8.45878 18.8807 8.84176Z" fill="#084777"/>
<path d="M10.2661 12.0339C10.1034 11.8712 9.83967 11.8712 9.67685 12.0339L6.39803 15.3127C6.23533 15.4754 6.23533 15.7392 6.39803 15.9019C6.4794 15.9833 6.58604 16.024 6.69265 16.024C6.79926 16.024 6.9059 15.9833 6.98727 15.9019L10.2661 12.6232C10.4288 12.4604 10.4288 12.1966 10.2661 12.0339Z" fill="#084777"/>
<path d="M8.92128 15.1463L7.57649 16.4911C7.41379 16.6538 7.41379 16.9177 7.57649 17.0804C7.65787 17.1618 7.76451 17.2025 7.87112 17.2025C7.9778 17.2025 8.08437 17.1618 8.16574 17.0804L9.51053 15.7356C9.67323 15.5729 9.67323 15.3091 9.51053 15.1463C9.34782 14.9836 9.0841 14.9836 8.92128 15.1463Z" fill="#084777"/>
<path d="M10.1588 13.909L9.98205 14.0857C9.8193 14.2484 9.8193 14.5122 9.98201 14.675C10.0633 14.7564 10.17 14.7971 10.2766 14.7971C10.3832 14.7971 10.4899 14.7564 10.5712 14.675L10.748 14.4983C10.9107 14.3356 10.9107 14.0718 10.748 13.909C10.5854 13.7463 10.3215 13.7463 10.1588 13.909Z" fill="#084777"/>
<path d="M15.902 6.39804C15.8239 6.31991 15.7179 6.276 15.6074 6.276C15.4969 6.276 15.3909 6.31991 15.3127 6.39804L13.5449 8.16585C13.4668 8.24402 13.4229 8.34996 13.4229 8.46047C13.4229 8.57099 13.4668 8.67697 13.5449 8.7551L14.7235 9.93355C14.8048 10.0149 14.9115 10.0556 15.0181 10.0556C15.1248 10.0556 15.2313 10.0149 15.3127 9.93355L17.0805 8.16581C17.2432 8.00311 17.2432 7.73927 17.0805 7.57657L15.902 6.39804ZM15.018 9.04972L14.4288 8.46047L15.6073 7.28194L16.1966 7.87123L15.018 9.04972Z" fill="#084777"/>
<path d="M12.5138 3.132C12.6205 3.132 12.7272 3.09129 12.8085 3.00988L12.9853 2.83304C13.1479 2.6703 13.1479 2.40646 12.9851 2.24379C12.8224 2.08113 12.5586 2.08117 12.3959 2.24391L12.2191 2.42076C12.0565 2.5835 12.0565 2.84734 12.2193 3.01C12.3006 3.09137 12.4072 3.132 12.5138 3.132Z" fill="#084777"/>
<path d="M4.18832 13.9868L4.01155 14.1636C3.84885 14.3262 3.84885 14.5901 4.01155 14.7529C4.09292 14.8342 4.19957 14.8749 4.30618 14.8749C4.41278 14.8749 4.51943 14.8342 4.6008 14.7529L4.77756 14.5761C4.94027 14.4133 4.94027 14.1495 4.77756 13.9868C4.61482 13.8241 4.35106 13.8241 4.18832 13.9868Z" fill="#084777"/>
</svg>
