<svg width="23" height="20" viewBox="0 0 23 20" fill="none" xmlns="http://www.w3.org/2000/svg">
<path d="M17.0741 8.40699C17.0736 8.40285 17.0733 8.39865 17.0727 8.39456C17.0697 8.37415 17.0658 8.35378 17.0603 8.33367C17.0603 8.33347 17.0602 8.33327 17.0601 8.33302C17.055 8.31422 17.0484 8.29568 17.041 8.27733C17.0389 8.27208 17.0365 8.26703 17.0343 8.26187C17.0284 8.24863 17.0219 8.2356 17.0148 8.22276C17.0117 8.21715 17.0087 8.21154 17.0054 8.20604C17.0036 8.20306 17.0022 8.19997 17.0004 8.19699C16.9929 8.18512 16.9847 8.17395 16.9764 8.16289C16.9748 8.16081 16.9736 8.15864 16.972 8.15662C16.9594 8.14025 16.9457 8.12504 16.9314 8.11064C16.9288 8.10791 16.9258 8.10538 16.923 8.10276C16.9106 8.09078 16.8977 8.07956 16.8843 8.069C16.8809 8.06632 16.8775 8.06365 16.874 8.06107C16.856 8.04773 16.8375 8.0353 16.8181 8.02454L9.37386 3.79306L13.66 1.09408L20.8456 5.17847L17.8194 7.08408C17.5832 7.23274 17.5123 7.54476 17.661 7.78088C17.8097 8.01706 18.1217 8.08795 18.3578 7.93924L22.0983 5.58392C22.2487 5.48928 22.3383 5.32258 22.3342 5.14492C22.3302 4.96726 22.2333 4.80486 22.0788 4.71704L13.8964 0.0660129C13.7345 -0.0260516 13.5351 -0.0215039 13.3775 0.0776852L8.12463 3.38539C8.12357 3.38604 8.12245 3.38675 8.12139 3.38741L5.49655 5.04027C5.49533 5.04103 5.49412 5.04179 5.49296 5.04255L0.236541 8.35252C0.0861657 8.44716 -0.00342284 8.61386 0.000619504 8.79152C0.00461132 8.96918 0.101577 9.13158 0.256096 9.2194L8.43852 13.8704C8.51603 13.9145 8.60213 13.9365 8.68818 13.9365C8.78181 13.9365 8.87529 13.9104 8.9574 13.8588L12.6979 11.5034C12.9341 11.3547 13.005 11.0427 12.8562 10.8066C12.7076 10.5704 12.3956 10.4995 12.1594 10.6482L8.67489 12.8424L1.48926 8.75792L5.77547 6.05889L13.4393 10.4151V16.1847C13.4393 16.3687 13.5393 16.5381 13.7003 16.6271C13.7765 16.6691 13.8606 16.69 13.9445 16.69C14.0382 16.69 14.1317 16.6639 14.2138 16.6123L16.842 14.9573C16.9889 14.8647 17.0781 14.7033 17.0781 14.5297V8.46616C17.0781 8.46318 17.0776 8.46035 17.0775 8.45737C17.0772 8.44059 17.0761 8.42382 17.0741 8.40699ZM14.4498 15.2694V10.1212C14.4498 9.93945 14.3522 9.77174 14.1942 9.68195L6.74563 5.44805L8.40365 4.40396L15.5892 8.4884L14.9601 8.88455C14.7239 9.0332 14.653 9.34522 14.8017 9.58134C14.8977 9.73394 15.0619 9.81747 15.2298 9.81747C15.3218 9.81747 15.415 9.79236 15.4985 9.7397L16.0674 9.3815V14.2508L14.4498 15.2694Z" fill="#084777"/>
<path d="M21.5596 6.74992L17.8191 9.10525C17.583 9.2539 17.5121 9.56592 17.6608 9.80204C17.7568 9.95464 17.921 10.0382 18.0889 10.0382C18.1808 10.0382 18.274 10.0131 18.3576 9.9604L22.0981 7.60508C22.3342 7.45642 22.4051 7.1444 22.2564 6.90828C22.1078 6.67211 21.7958 6.60116 21.5596 6.74992Z" fill="#084777"/>
<path d="M12.159 12.6693L8.67448 14.8635L0.755065 10.362C0.512625 10.2242 0.203992 10.3088 0.0660975 10.5516C-0.0717971 10.7942 0.0130417 11.1027 0.255684 11.2405L8.4381 15.8916C8.51562 15.9357 8.60172 15.9576 8.68777 15.9576C8.7814 15.9576 8.87488 15.9316 8.95699 15.8799L12.6975 13.5245C12.9336 13.3759 13.0045 13.0638 12.8558 12.8277C12.7072 12.5915 12.3952 12.5206 12.159 12.6693Z" fill="#084777"/>
<path d="M21.5596 8.77105L17.8191 11.1264C17.583 11.275 17.5121 11.5871 17.6608 11.8232C17.7568 11.9758 17.921 12.0593 18.0889 12.0593C18.1808 12.0593 18.274 12.0342 18.3576 11.9815L22.0981 9.62621C22.3342 9.47755 22.4051 9.16553 22.2564 8.92941C22.1078 8.69319 21.7958 8.62229 21.5596 8.77105Z" fill="#084777"/>
<path d="M12.159 14.6906L8.67448 16.8847L0.755065 12.3832C0.512625 12.2454 0.203992 12.3301 0.0660975 12.5728C-0.0717971 12.8154 0.0130417 13.1239 0.255684 13.2618L8.4381 17.9128C8.51562 17.9569 8.60172 17.9789 8.68777 17.9789C8.7814 17.9789 8.87488 17.9528 8.95699 17.9011L12.6975 15.5458C12.9336 15.3971 13.0045 15.0851 12.8558 14.849C12.7072 14.6127 12.3952 14.5418 12.159 14.6906Z" fill="#084777"/>
<path d="M21.5596 10.7923L17.8191 13.1476C17.583 13.2962 17.5121 13.6083 17.6608 13.8444C17.7568 13.997 17.921 14.0805 18.0889 14.0805C18.1808 14.0805 18.274 14.0554 18.3576 14.0027L22.0981 11.6474C22.3342 11.4988 22.4051 11.1867 22.2564 10.9506C22.1078 10.7144 21.7958 10.6435 21.5596 10.7923Z" fill="#084777"/>
<path d="M12.159 16.7117L8.67448 18.9059L0.755065 14.4044C0.512625 14.2665 0.203992 14.3512 0.0660975 14.5939C-0.0717971 14.8365 0.0130417 15.145 0.255684 15.2829L8.4381 19.9339C8.51562 19.978 8.60172 20 8.68777 20C8.7814 20 8.87488 19.974 8.95699 19.9223L12.6975 17.5669C12.9336 17.4182 13.0045 17.1062 12.8558 16.8701C12.7072 16.6339 12.3952 16.5629 12.159 16.7117Z" fill="#084777"/>
</svg>
