<svg width="30" height="30" viewBox="0 0 30 30" fill="none" xmlns="http://www.w3.org/2000/svg">
<path d="M14.9675 29.9675C23.2338 29.9675 29.9349 23.2663 29.9349 15C29.9349 6.7337 23.2338 0.0325375 14.9675 0.0325375C6.70116 0.0325375 0 6.7337 0 15C0 23.2663 6.70116 29.9675 14.9675 29.9675Z" fill="#40A459"/>
<path d="M14.9674 0.0325375C14.8535 0.0325375 14.7402 0.0342953 14.6269 0.0368148C14.5981 0.0374593 14.5693 0.0381039 14.5405 0.0389828C14.4325 0.041971 14.3248 0.0459554 14.2174 0.0512288C14.1897 0.0525765 14.1621 0.0545101 14.1343 0.0559749C14.0527 0.0604866 13.9712 0.0656429 13.8898 0.0714437C13.8488 0.0743733 13.8079 0.0771858 13.7671 0.0804085C13.6727 0.0879085 13.5786 0.0962288 13.4847 0.105487C13.4361 0.110291 13.3877 0.115623 13.3394 0.120838C13.2813 0.127166 13.2234 0.133787 13.1655 0.14076C13.1153 0.146795 13.0651 0.152596 13.0151 0.1591C20.3589 1.11576 26.0303 7.3953 26.0303 14.9998C26.0303 22.6043 20.3589 28.884 13.0151 29.8406C13.0652 29.8471 13.1153 29.853 13.1656 29.8589C13.2234 29.8659 13.2814 29.8725 13.3395 29.8789C13.3879 29.8841 13.4363 29.8895 13.4847 29.8942C13.5786 29.9035 13.6727 29.9118 13.7671 29.9193C13.8079 29.9226 13.8489 29.9254 13.8898 29.9283C13.9712 29.9341 14.0527 29.9393 14.1344 29.9437C14.1621 29.9453 14.1898 29.9471 14.2175 29.9485C14.3249 29.9538 14.4326 29.9577 14.5406 29.9607C14.5693 29.9615 14.5981 29.9622 14.6269 29.9629C14.7401 29.9654 14.8536 29.9672 14.9675 29.9672C23.2338 29.9672 29.935 23.266 29.935 14.9997C29.935 6.73343 23.2338 0.0325375 14.9674 0.0325375Z" fill="#378B4E"/>
<path d="M13.0152 13.6984L19.2591 10.1153C19.2591 10.1153 26.0893 11.5702 27.6657 8.69367L28.1629 7.78646L28.5953 8.72631C29.493 10.6777 29.9675 12.8471 29.9675 15C29.9675 19.9623 27.5095 24.5996 23.3923 27.4044L22.9675 27.6939L13.0152 13.6984Z" fill="#898790"/>
<path d="M29.9348 15C29.9348 12.4135 29.2787 9.98022 28.1238 7.85755L27.6656 8.69362C27.1119 9.70407 26.3831 10.7373 25.6568 11.6667C25.9006 12.7387 26.0302 13.8542 26.0302 15C26.0302 19.1799 24.3165 22.959 21.5537 25.6744L22.9513 27.7056C27.15 25.0546 29.9348 20.3327 29.9348 15Z" fill="#7A797F"/>
<path d="M14.9675 30C9.84321 30 5.1232 27.4171 2.34152 23.0908L2.07627 22.6783L10.4122 15.6507L20.0063 29.1344L19.395 29.3328C17.9647 29.7755 16.4751 30 14.9675 30Z" fill="#3D9AE3"/>
<path d="M20.0669 29.1109L19.0523 27.6581C17.2611 28.7909 15.207 29.5867 13.0091 29.873C13.6481 29.9562 14.3058 29.9675 14.9675 29.9675C16.7516 29.9675 18.4803 29.6836 20.0669 29.1109Z" fill="#1D81CE"/>
<path d="M10.4121 15.6508L13.0151 13.6985L23.0232 27.6601L22.5368 27.9455C21.8495 28.3489 21.1262 28.6991 20.387 28.9865L20.0062 29.1346L10.4121 15.6508Z" fill="white"/>
<path d="M20.0063 29.1345C21.0727 28.7551 22.0838 28.2589 23.0233 27.6601L21.581 25.6481C20.7961 26.4234 19.9258 27.1125 18.9857 27.7002L20.0063 29.1345Z" fill="#E0E0E3"/>
<path d="M1.82186 22.2181C1.41112 21.4729 1.06225 20.688 0.784989 19.8853L0.66124 19.4131L18.2212 7.19089L20.8243 9.14317L2.07628 22.6783L1.82186 22.2181Z" fill="#FFCE00"/>
<path d="M22.4005 14.6611C21.4798 13.6996 16.8872 8.75759 16.8872 5.88937C16.8872 2.64193 19.5291 0 22.7765 0C26.0239 0 28.6659 2.64193 28.6659 5.88937C28.6659 8.75565 24.0732 13.6991 23.1525 14.6611C22.9476 14.8752 22.6054 14.8752 22.4005 14.6611Z" fill="#CD2900"/>
<path d="M22.7766 7.8742C21.3233 7.8742 20.141 6.6919 20.141 5.23866C20.141 3.78541 21.3233 2.60311 22.7766 2.60311C24.2299 2.60311 25.4121 3.78541 25.4121 5.23866C25.4121 6.6919 24.2299 7.8742 22.7766 7.8742Z" fill="#891D00"/>
<path d="M8.45996 10.9327C10.1643 10.9327 11.5511 9.54601 11.5511 7.84157C11.5511 7.57204 11.3326 7.35349 11.063 7.35349H9.1107C8.84117 7.35349 8.62262 7.57198 8.62262 7.84157C8.62262 8.1111 8.84111 8.32966 9.1107 8.32966H10.518C10.2972 9.26136 9.45816 9.95657 8.4599 9.95657C7.29377 9.95657 6.34496 9.00776 6.34496 7.84163C6.34496 6.6755 7.29377 5.72669 8.4599 5.72669C8.97553 5.72669 9.47211 5.91431 9.85824 6.25492C10.0605 6.43327 10.3689 6.41388 10.5471 6.21179C10.7254 6.00964 10.7061 5.70121 10.504 5.52291C9.93939 5.02486 9.21348 4.75058 8.4599 4.75058C6.75553 4.75058 5.36879 6.13726 5.36879 7.84169C5.36879 9.54612 6.75553 10.9327 8.45996 10.9327Z" fill="white"/>
</svg>
