<svg width="155" height="155" viewBox="0 0 155 155" fill="none" xmlns="http://www.w3.org/2000/svg">
<path d="M77.5 155C120.299 155 155 120.299 155 77.5C155 34.7006 120.299 0 77.5 0C34.7006 0 0 34.7006 0 77.5C0 120.299 34.7006 155 77.5 155ZM71.0417 38.75H83.9583V83.9583H71.0417V38.75ZM77.5 100.104C82.8475 100.104 87.1875 104.444 87.1875 109.792C87.1875 115.139 82.8475 119.479 77.5 119.479C72.1525 119.479 67.8125 115.139 67.8125 109.792C67.8125 104.444 72.1525 100.104 77.5 100.104Z" fill="#084777"/>
</svg>
