<svg width="11" height="20" viewBox="0 0 11 20" fill="none" xmlns="http://www.w3.org/2000/svg">
<path d="M9.30717 0H1.44254C0.645923 0 0 0.645923 0 1.44254V18.5575C0 19.3543 0.645708 20 1.44254 20H9.30717C10.1042 20 10.7501 19.3543 10.7501 18.5575V1.44254C10.7499 0.645923 10.1042 0 9.30717 0ZM4.40984 0.852859H6.33988C6.40921 0.852859 6.46567 0.909315 6.46567 0.978866C6.46567 1.0482 6.40921 1.10466 6.33988 1.10466H4.40984C4.34029 1.10466 4.28404 1.0482 4.28404 0.978866C4.28404 0.909315 4.3405 0.852859 4.40984 0.852859ZM2.48602 0.550183C2.59722 0.550183 2.68737 0.640342 2.68737 0.751538C2.68737 0.862733 2.59743 0.952892 2.48602 0.952892C2.37461 0.952892 2.28467 0.862733 2.28467 0.751538C2.28467 0.640342 2.37482 0.550183 2.48602 0.550183ZM1.5737 0.429542C1.75166 0.429542 1.89569 0.573796 1.89569 0.751538C1.89569 0.929279 1.75166 1.07353 1.5737 1.07353C1.39574 1.07353 1.2517 0.929279 1.2517 0.751538C1.2517 0.573796 1.39574 0.429542 1.5737 0.429542ZM5.87856 19.2678H4.87158C4.55216 19.2678 4.29349 19.0091 4.29349 18.6901C4.29349 18.3709 4.55216 18.1122 4.87158 18.1122H5.87856C6.19798 18.1122 6.45665 18.3709 6.45665 18.6901C6.45665 19.0091 6.19798 19.2678 5.87856 19.2678ZM10.139 17.6557H0.610933V2.34413H10.139V17.6557Z" fill="#D0AA2B"/>
</svg>
