<svg width="20" height="20" viewBox="0 0 20 20" fill="none" xmlns="http://www.w3.org/2000/svg">
<path d="M9.99993 12.2048C11.2157 12.2048 12.2048 11.2157 12.2048 9.99993C12.2048 8.78417 11.2157 7.79504 9.99993 7.79504C8.78417 7.79504 7.79504 8.78417 7.79504 9.99993C7.79504 11.2157 8.78417 12.2048 9.99993 12.2048ZM9.99993 8.66671C10.7351 8.66671 11.3331 9.26475 11.3331 9.99993C11.3331 10.7351 10.7351 11.3331 9.99993 11.3331C9.26475 11.3331 8.66671 10.7351 8.66671 9.99993C8.66671 9.26475 9.26475 8.66671 9.99993 8.66671Z" fill="#D0AA2B"/>
<path d="M19.5642 9.56417H17.8372C17.6182 5.58224 14.4178 2.38183 10.4358 2.16283V0.435834C10.4358 0.195181 10.2407 0 10 0C9.75935 0 9.56417 0.195181 9.56417 0.435834V2.58631C9.56417 2.82697 9.75935 3.02215 10 3.02215C13.8476 3.02215 16.9779 6.15238 16.9779 10C16.9779 13.8476 13.8476 16.9779 10 16.9779C6.15238 16.9779 3.02215 13.8476 3.02215 10C3.02215 7.32812 4.5804 4.85592 6.99194 3.7019C7.20906 3.59796 7.30088 3.33776 7.19693 3.12065C7.09306 2.9036 6.83265 2.81178 6.61567 2.91566C5.29866 3.54588 4.18423 4.52948 3.39297 5.76006C2.65859 6.90223 2.23823 8.2093 2.16363 9.56417H0.435834C0.195181 9.56417 0 9.75935 0 10C0 10.2407 0.195181 10.4358 0.435834 10.4358H2.16283C2.38183 14.4178 5.58224 17.6182 9.56417 17.8372V19.5642C9.56417 19.8048 9.75935 20 10 20C10.2407 20 10.4358 19.8048 10.4358 19.5642V17.8372C14.4178 17.6182 17.6182 14.4178 17.8372 10.4358H19.5642C19.8048 10.4358 20 10.2407 20 10C20 9.75935 19.8048 9.56417 19.5642 9.56417Z" fill="#D0AA2B"/>
</svg>
