<svg width="512" height="512" viewBox="0 0 512 512" fill="none" xmlns="http://www.w3.org/2000/svg">
<path d="M387.46 373.15L336 356H176L124.54 373.15C71.67 390.78 36 446.26 36 502H476C476 446.26 440.33 390.78 387.46 373.15Z" fill="#444B75"/>
<path d="M355.65 161.38L332 158C295.65 152.81 261.96 135.96 236 110C210.82 110 187.11 121.86 172 142L156.4 162.8C157.21 186.15 159.33 210.27 162.74 233C166.985 261.098 170.54 287.552 198.38 311.68L197.88 312.24C190.548 326.905 183.255 341.489 176 356C188.965 394.878 208.268 432.341 233.95 466.6L256 502L278.05 466.6C287.98 453.36 297.04 439.52 305.18 425.18C317.66 403.21 327.98 380.04 336 356L314.12 312.24L313.62 311.68C330.4 297.09 342.1 276.36 345.81 254.11C347.76 242.34 348.438 238.587 349.32 232.6C352.77 209.53 354.88 185.04 355.66 161.38H355.65Z" fill="white"/>
<path d="M355.65 161.38L332 158C295.65 152.81 261.96 135.96 236 110C210.82 110 187.11 121.86 172 142L156.4 162.8C157.21 186.15 159.33 210.27 162.74 233C166.985 261.098 170.54 287.552 198.38 311.68L197.88 312.24C190.547 326.905 257 371 257 371L314.12 312.24L313.62 311.68C330.4 297.09 342.1 276.36 345.81 254.11C347.76 242.34 348.438 238.587 349.32 232.6C352.77 209.53 354.88 185.04 355.66 161.38H355.65Z" fill="#A86931"/>
<path d="M396 150V213C396 224.05 387.05 233 376 233H352L349.32 232.6C352.77 209.53 354.88 185.04 355.66 161.38C355.79 157.56 355.88 153.77 355.92 150H356H396Z" fill="#BF8BDE"/>
<path d="M264.95 50C315.22 50 356.03 91.14 356 141.41C356 146.466 355.894 154.512 355.66 161.38C329.285 157.612 332.227 158.032 332 158C295.65 152.81 261.96 135.96 236 110C210.82 110 187.11 121.86 172 142L156.4 162.8C156.14 155.822 156 147.668 156 141.41C155.97 91.14 196.78 50 247.05 50H256H264.95Z" fill="#444B75"/>
<path d="M256 253C267.05 253 276 261.95 276 273C276 284.04 267.04 293 256 293H236C224.95 293 216 284.05 216 273C216 261.96 224.96 253 236 253H256Z" fill="#BF8BDE"/>
<path d="M162.74 233H136C124.95 233 116 224.05 116 213V150H156H156.08C156.13 154.23 156.24 158.5 156.4 162.8C157.21 186.15 159.33 210.27 162.74 233Z" fill="#BF8BDE"/>
<path d="M366 416C371.52 416 376 411.52 376 406C376 400.48 371.52 396 366 396C360.48 396 356 400.48 356 406C356 411.52 360.48 416 366 416Z" fill="black"/>
<path d="M36 512H476C481.522 512 486 507.523 486 502C486 440.271 445.889 382.092 390.622 363.663L343.092 347.823L326.029 313.696C341.401 298.05 352.074 277.348 355.673 255.755L357.801 243H376C392.542 243 406 229.542 406 213V150C406 67.29 338.71 0 256 0C173.078 0 106 67.097 106 150V213C106 226.036 114.361 237.152 126 241.28V253C126 269.542 139.458 283 156 283H164.782C169.117 292.417 174.728 301.139 181.556 308.974C182.972 310.602 184.449 312.18 185.962 313.715L168.908 347.823L121.377 363.664C66.112 382.092 26 440.271 26 502C26 507.523 30.477 512 36 512ZM256 483.086L242.438 461.313C242.286 461.069 242.124 460.832 241.952 460.602C233.854 449.8 226.3 438.503 219.42 426.94L255.083 389.226L292.661 426.804C285.735 438.451 278.155 449.795 270.05 460.6C269.56 461.253 270.255 460.224 256 483.086ZM302.778 408.636L268.83 374.688L311.566 329.494L325.17 356.703C319.006 374.541 311.501 391.942 302.778 408.636ZM254.683 360.541L235.159 341.016C242.018 342.461 249.011 343.2 256 343.2C261.471 343.2 266.943 342.742 272.353 341.854L254.683 360.541ZM198.739 332.882L240.935 375.079L209.217 408.621C200.485 391.907 192.982 374.512 186.828 356.704L198.739 332.882ZM465.6 492H274.01L286.311 472.252C296.338 458.852 305.612 444.678 313.875 430.12C313.925 430.032 313.972 429.942 314.022 429.854C314.028 429.843 314.034 429.833 314.04 429.822C325.095 410.322 334.549 389.775 342.204 368.609L384.297 382.637C428.668 397.433 461.637 442.461 465.6 492ZM136 223C130.486 223 126 218.514 126 213V160H146.298C146.331 161.043 146.366 162.091 146.405 163.146C146.406 163.182 146.408 163.217 146.409 163.253C146.409 163.256 146.409 163.259 146.409 163.262C147.109 183.334 148.781 203.743 151.265 222.999H136V223ZM345.922 149.79C345.922 149.822 345.921 149.855 345.921 149.888L333.413 148.101C299.433 143.249 267.349 127.207 243.071 102.929C241.195 101.054 238.652 100 236 100C209.144 100 183.436 112.236 166.442 132.908C170.63 92.189 205.053 60 247.05 60H264.95C309.759 60 346.026 96.651 346 141.41C346 144.557 345.975 147.297 345.922 149.79ZM386 213C386 218.514 381.514 223 376 223H360.738C363.28 203.31 364.974 182.357 365.655 161.72C365.675 161.138 365.691 160.572 365.709 160H386V213ZM256 20C324.318 20 380.496 72.972 385.619 140H365.984C365.264 84.773 320.291 40 264.951 40H247.051C191.712 40 146.736 84.773 146.017 140H126.38C131.445 72.979 187.377 20 256 20ZM146 253V243H154.198L156.326 255.759C156.732 258.184 157.231 260.6 157.808 263H156C150.486 263 146 258.514 146 253ZM207.72 283C211.848 294.639 222.963 303 236 303H256C272.575 303 286 289.576 286 273C286 256.458 272.542 243 256 243H236C222.673 243 211.722 251.608 207.703 263H178.54C173.534 246.347 167.806 197.347 166.54 165.947L179.999 148.001C192.36 131.525 211.591 121.288 232.048 120.113C258.965 145.729 293.787 162.645 330.585 167.899L345.307 170.003C344.323 190.888 342.312 211.846 339.431 231.121C339.43 231.127 339.429 231.134 339.428 231.141C338.512 237.338 337.79 241.326 335.946 252.465C330.65 284.23 306.948 312.955 275.659 320.778C262.782 323.993 249.216 323.992 236.346 320.778C216.809 315.894 198.895 302.376 187.334 283H207.72ZM226 273C226 267.479 230.478 263 236 263H256C261.514 263 266 267.486 266 273C266 278.522 261.521 283 256 283H236C230.486 283 226 278.514 226 273ZM127.702 382.637L169.796 368.609C177.508 389.934 187.062 410.661 198.259 430.349C198.278 430.383 198.296 430.417 198.315 430.45C198.315 430.451 198.316 430.451 198.316 430.452C206.497 444.841 215.705 458.902 225.688 472.251L237.99 492H46.4C50.363 442.461 83.332 397.433 127.702 382.637Z" fill="black"/>
<path d="M395.042 433.016C404.496 440.289 412.314 449.782 417.653 460.469C420.126 465.418 426.136 467.41 431.068 464.946C436.008 462.478 438.013 456.472 435.546 451.531C428.863 438.154 419.074 426.27 407.237 417.164C402.859 413.795 396.581 414.614 393.214 418.992C389.846 423.37 390.665 429.648 395.042 433.016Z" fill="black"/>
</svg>
