<svg width="26" height="24" viewBox="0 0 26 24" xmlns="http://www.w3.org/2000/svg">
<path d="M5.84264 4.56853L15.8097 1.84796L15.2818 0.781065C14.9365 0.0875857 14.0942 -0.19879 13.4007 0.146546L4.47814 4.56853H5.84264Z"/>
<path d="M18.9036 1.92657C18.7801 1.92657 18.6566 1.94341 18.533 1.97711L16.1915 2.61724L9.0405 4.56853H17.1573H20.6949L20.2569 2.96258C20.0884 2.33648 19.5213 1.92657 18.9036 1.92657Z"/>
<path d="M22.1577 5.55119H21.8376H21.4024H20.9672H17.6458H5.44115H3.84081H2.49316H2.24328H1.40661C0.96301 5.55119 0.567137 5.75614 0.308837 6.07902C0.190917 6.22782 0.101074 6.39909 0.050537 6.5872C0.0196533 6.70512 0 6.82865 0 6.95499V7.12345V8.72379V22.5962C0 23.3711 0.628905 24 1.4038 24H22.1548C22.9298 24 23.5587 23.3711 23.5587 22.5962V18.6796H15.2285C13.9117 18.6796 12.842 17.6099 12.842 16.2931V15.0072V14.572V14.1369V13.171C12.842 12.5253 13.1003 11.9385 13.5186 11.509C13.8892 11.1271 14.3862 10.8688 14.9421 10.8042C15.0348 10.793 15.1302 10.7874 15.2257 10.7874H22.3907H22.8259H23.261H23.5587V6.95499C23.5615 6.18009 22.9326 5.55119 22.1577 5.55119Z"/>
<path d="M24.5441 12.1294C24.4037 12.0003 24.2381 11.902 24.0528 11.8374C23.9096 11.7897 23.758 11.7617 23.598 11.7617H23.5615H23.5334H23.0982H21.5288H15.2285C14.4536 11.7617 13.8247 12.3905 13.8247 13.1655V13.8645V14.2997V14.7349V16.2903C13.8247 17.0652 14.4536 17.6941 15.2285 17.6941H23.5615H23.598C23.758 17.6941 23.9096 17.666 24.0528 17.6183C24.2381 17.5565 24.4037 17.4555 24.5441 17.3263C24.8249 17.0708 25.0018 16.7002 25.0018 16.2903V13.1655C25.0018 12.7555 24.8249 12.3849 24.5441 12.1294ZM18.1596 15.0072C18.1596 15.3947 17.8452 15.7091 17.4577 15.7091H16.9917C16.6042 15.7091 16.2898 15.3947 16.2898 15.0072V14.5412C16.2898 14.3166 16.3936 14.1172 16.5593 13.9909C16.68 13.8982 16.8288 13.8393 16.9917 13.8393H17.1096H17.4577C17.8452 13.8393 18.1596 14.1537 18.1596 14.5412V15.0072Z"/>
</svg>
